<?xml version="1.0" encoding="utf-8"?>
<!-- Generator: Adobe Illustrator 21.1.0, SVG Export Plug-In . SVG Version: 6.00 Build 0)  -->
<svg version="1.1" id="Capa_1" xmlns="http://www.w3.org/2000/svg" xmlns:xlink="http://www.w3.org/1999/xlink" x="0px" y="0px"
	 viewBox="0 0 372.3 149.6" style="enable-background:new 0 0 372.3 149.6;" xml:space="preserve">
<style type="text/css">
	.st0{fill:url(#SVGID_1_);}
	.st1{fill:url(#SVGID_2_);}
	.st2{fill:url(#SVGID_3_);}
	.st3{fill:url(#SVGID_4_);}
	.st4{fill:url(#SVGID_5_);}
	.st5{fill:url(#SVGID_6_);}
	.st6{fill:url(#SVGID_7_);}
	.st7{fill:url(#SVGID_8_);}
	.st8{opacity:0.6;fill:url(#SVGID_9_);enable-background:new    ;}
	.st9{opacity:0.6;fill:url(#SVGID_10_);enable-background:new    ;}
	.st10{fill:url(#SVGID_11_);}
	.st11{fill:url(#SVGID_12_);}
	.st12{opacity:0.5;fill:url(#SVGID_13_);enable-background:new    ;}
	.st13{fill:url(#SVGID_14_);}
	.st14{opacity:0.2;fill:url(#SVGID_15_);enable-background:new    ;}
	.st15{opacity:0.3;fill:url(#SVGID_16_);enable-background:new    ;}
	.st16{fill:url(#SVGID_17_);}
	.st17{fill:url(#SVGID_18_);}
	.st18{fill:url(#SVGID_19_);}
	.st19{opacity:0.2;fill:#57766C;enable-background:new    ;}
	.st20{opacity:0.6;fill:url(#SVGID_20_);enable-background:new    ;}
	.st21{opacity:0.6;fill:url(#SVGID_21_);enable-background:new    ;}
	.st22{opacity:0.6;fill:url(#SVGID_22_);enable-background:new    ;}
	.st23{opacity:0.6;fill:url(#SVGID_23_);enable-background:new    ;}
	.st24{fill:url(#SVGID_24_);}
	.st25{opacity:0.4;fill:url(#SVGID_25_);enable-background:new    ;}
	.st26{fill:url(#SVGID_26_);}
	.st27{fill:url(#SVGID_27_);}
	.st28{opacity:0.5;fill:url(#SVGID_28_);enable-background:new    ;}
	.st29{opacity:0.7;fill:url(#SVGID_29_);enable-background:new    ;}
	.st30{opacity:0.5;fill:url(#SVGID_30_);enable-background:new    ;}
	.st31{opacity:0.5;fill:url(#SVGID_31_);enable-background:new    ;}
	.st32{opacity:0.5;fill:url(#SVGID_32_);enable-background:new    ;}
	.st33{fill:url(#SVGID_33_);}
	.st34{opacity:0.7;fill:url(#SVGID_34_);enable-background:new    ;}
	.st35{fill:url(#SVGID_35_);}
	.st36{fill:url(#SVGID_36_);}
	.st37{opacity:0.3;fill:url(#SVGID_37_);enable-background:new    ;}
	.st38{opacity:0.5;fill:url(#SVGID_38_);enable-background:new    ;}
	.st39{fill:url(#SVGID_39_);}
	.st40{fill:url(#SVGID_40_);}
	.st41{fill:url(#SVGID_41_);}
	.st42{fill:url(#SVGID_42_);}
	.st43{opacity:0.7;fill:url(#SVGID_43_);enable-background:new    ;}
	.st44{opacity:0.5;fill:url(#SVGID_44_);enable-background:new    ;}
</style>
<g>
	
		<radialGradient id="SVGID_1_" cx="354.25" cy="17.65" r="13.67" gradientTransform="matrix(1 0 0 -1 0 152)" gradientUnits="userSpaceOnUse">
		<stop  offset="0.32" style="stop-color:#000000"/>
		<stop  offset="0.38" style="stop-color:#111111"/>
		<stop  offset="0.52" style="stop-color:#3E3E3E"/>
		<stop  offset="0.71" style="stop-color:#878787"/>
		<stop  offset="0.95" style="stop-color:#EAEAEA"/>
		<stop  offset="1" style="stop-color:#FFFFFF"/>
	</radialGradient>
	<ellipse class="st0" cx="351.2" cy="130.5" rx="9.3" ry="9.5"/>
</g>
<g>
	
		<radialGradient id="SVGID_2_" cx="176.88" cy="303.4431" r="268.2" gradientTransform="matrix(1 0 0 -0.97 0 157.42)" gradientUnits="userSpaceOnUse">
		<stop  offset="0" style="stop-color:#FFFFFF"/>
		<stop  offset="0.29" style="stop-color:#FDFDFD"/>
		<stop  offset="0.45" style="stop-color:#F5F5F5"/>
		<stop  offset="0.58" style="stop-color:#E7E7E7"/>
		<stop  offset="0.69" style="stop-color:#D4D4D4"/>
		<stop  offset="0.79" style="stop-color:#BABABA"/>
		<stop  offset="0.88" style="stop-color:#9B9B9B"/>
		<stop  offset="0.96" style="stop-color:#777777"/>
		<stop  offset="1" style="stop-color:#666666"/>
	</radialGradient>
	<path class="st1" d="M319.6,111.6c-0.1,1.4-1.2,2.4-2.6,2.4H53c-1.4,0-2.5-1-2.6-2.4v-37c0-1.4,1.2-2.5,2.6-2.4c0,0,0,0,0,0h264
		c1.4,0,2.5,1.1,2.6,2.4c0,0,0,0,0,0L319.6,111.6z"/>
</g>
<g>
	
		<linearGradient id="SVGID_3_" gradientUnits="userSpaceOnUse" x1="21.32" y1="120.47" x2="336.6" y2="120.47" gradientTransform="matrix(1 0 0 -1 0 152)">
		<stop  offset="8.000000e-02" style="stop-color:#000000"/>
		<stop  offset="0.26" style="stop-color:#FFFFFF"/>
		<stop  offset="0.47" style="stop-color:#FFFFFF"/>
		<stop  offset="0.69" style="stop-color:#FFFFFF"/>
		<stop  offset="0.9" style="stop-color:#000000"/>
	</linearGradient>
	<path class="st2" d="M362.5,31.5c0,0.4-0.8,0.7-1.7,0.7H17.1c-0.9,0-1.7-0.3-1.7-0.7l0,0c0-0.4,0.8-0.7,1.7-0.7h343.6
		C361.7,30.8,362.5,31.1,362.5,31.5L362.5,31.5z"/>
</g>
<g>
	
		<linearGradient id="SVGID_4_" gradientUnits="userSpaceOnUse" x1="21.32" y1="116.59" x2="336.6" y2="116.59" gradientTransform="matrix(1 0 0 -1 0 152)">
		<stop  offset="8.000000e-02" style="stop-color:#000000"/>
		<stop  offset="0.26" style="stop-color:#FFFFFF"/>
		<stop  offset="0.47" style="stop-color:#FFFFFF"/>
		<stop  offset="0.69" style="stop-color:#FFFFFF"/>
		<stop  offset="0.9" style="stop-color:#000000"/>
	</linearGradient>
	<path class="st3" d="M362.5,35.4c0,2.5-0.8,4.6-1.7,4.6H17.1c-0.9,0-1.7-2-1.7-4.6l0,0c0-2.5,0.8-4.6,1.7-4.6h343.6
		C361.7,30.9,362.5,32.8,362.5,35.4L362.5,35.4z"/>
</g>
<g>
	
		<linearGradient id="SVGID_5_" gradientUnits="userSpaceOnUse" x1="66.01" y1="111.93" x2="295.3" y2="111.93" gradientTransform="matrix(1 0 0 -1 0 152)">
		<stop  offset="8.000000e-02" style="stop-color:#000000"/>
		<stop  offset="0.26" style="stop-color:#FFFFFF"/>
		<stop  offset="0.47" style="stop-color:#FFFFFF"/>
		<stop  offset="0.69" style="stop-color:#FFFFFF"/>
		<stop  offset="0.9" style="stop-color:#000000"/>
	</linearGradient>
	<path class="st4" d="M314.1,40.1c0,0.7-0.6,1.2-1.2,1.2c0,0,0,0,0,0H63c-0.7,0-1.2-0.5-1.2-1.2c0,0,0,0,0,0l0,0
		c0-0.7,0.6-1.2,1.2-1.2c0,0,0,0,0,0h249.9C313.6,38.9,314.1,39.4,314.1,40.1C314.1,40.1,314.1,40.1,314.1,40.1L314.1,40.1z"/>
</g>
<title>balanzaB</title>
<g id="balanza">
	
		<radialGradient id="SVGID_6_" cx="185.792" cy="102.3355" r="116.6382" gradientTransform="matrix(1 0 0 -1 0 152)" gradientUnits="userSpaceOnUse">
		<stop  offset="0.81" style="stop-color:#8EA6B8"/>
		<stop  offset="1" style="stop-color:#899EA8"/>
	</radialGradient>
	<path class="st5" d="M27.3,39.9c0,0-5,11.2-6.1,14.2c-0.7,2,4.6,1.4,13.7,1.4s309.6,3.9,312.6,3.9s4.3,0.9,1.2-7.7
		c-1.6-3.9-3.3-7.7-5.3-11.4L27.3,39.9z"/>
	
		<linearGradient id="SVGID_7_" gradientUnits="userSpaceOnUse" x1="6.82" y1="6.315" x2="38.54" y2="6.315" gradientTransform="matrix(1 0 0 -1 0 152)">
		<stop  offset="0" style="stop-color:#030303"/>
		<stop  offset="0.15" style="stop-color:#434F58"/>
		<stop  offset="0.88" style="stop-color:#434F58"/>
		<stop  offset="1" style="stop-color:#030303"/>
	</linearGradient>
	<path class="st6" d="M38.5,148.4c0,0.7-0.6,1.3-1.3,1.3H8.1c-0.7,0-1.3-0.6-1.3-1.3V143c0-0.7,0.6-1.3,1.3-1.3h29.2
		c0.7,0,1.2,0.6,1.3,1.3V148.4z"/>
	
		<linearGradient id="SVGID_8_" gradientUnits="userSpaceOnUse" x1="330.83" y1="6.315" x2="362.56" y2="6.315" gradientTransform="matrix(1 0 0 -1 0 152)">
		<stop  offset="0" style="stop-color:#030303"/>
		<stop  offset="0.15" style="stop-color:#434F58"/>
		<stop  offset="0.88" style="stop-color:#434F58"/>
		<stop  offset="1" style="stop-color:#030303"/>
	</linearGradient>
	<path class="st7" d="M362.5,148.4c0,0.7-0.6,1.3-1.2,1.3c0,0,0,0,0,0h-29.2c-0.7,0-1.3-0.5-1.3-1.2c0,0,0,0,0,0V143
		c0-0.7,0.6-1.3,1.2-1.3c0,0,0,0,0,0h29.2c0.7,0,1.3,0.5,1.3,1.2c0,0,0,0,0,0L362.5,148.4z"/>
	
		<linearGradient id="SVGID_9_" gradientUnits="userSpaceOnUse" x1="22.68" y1="2.31" x2="22.68" y2="8.64" gradientTransform="matrix(1 0 0 -1 0 152)">
		<stop  offset="0.42" style="stop-color:#FFFFFF"/>
		<stop  offset="0.44" style="stop-color:#DADCDE"/>
		<stop  offset="0.47" style="stop-color:#B2B7BA"/>
		<stop  offset="0.5" style="stop-color:#8F979C"/>
		<stop  offset="0.53" style="stop-color:#747C83"/>
		<stop  offset="0.57" style="stop-color:#5E6870"/>
		<stop  offset="0.61" style="stop-color:#4F5A62"/>
		<stop  offset="0.65" style="stop-color:#46525A"/>
		<stop  offset="0.72" style="stop-color:#434F58"/>
	</linearGradient>
	<path class="st8" d="M38.5,148.4c0,0.7-0.6,1.3-1.3,1.3H8.1c-0.7,0-1.3-0.6-1.3-1.3V143c0-0.7,0.6-1.3,1.3-1.3h29.2
		c0.7,0,1.2,0.6,1.3,1.3V148.4z"/>
	
		<linearGradient id="SVGID_10_" gradientUnits="userSpaceOnUse" x1="346.695" y1="2.62" x2="346.695" y2="9.06" gradientTransform="matrix(1 0 0 -1 0 152)">
		<stop  offset="0.42" style="stop-color:#FFFFFF"/>
		<stop  offset="0.44" style="stop-color:#DADCDE"/>
		<stop  offset="0.47" style="stop-color:#B2B7BA"/>
		<stop  offset="0.5" style="stop-color:#8F979C"/>
		<stop  offset="0.53" style="stop-color:#747C83"/>
		<stop  offset="0.57" style="stop-color:#5E6870"/>
		<stop  offset="0.61" style="stop-color:#4F5A62"/>
		<stop  offset="0.65" style="stop-color:#46525A"/>
		<stop  offset="0.72" style="stop-color:#434F58"/>
	</linearGradient>
	<path class="st9" d="M362.5,148.4c0,0.7-0.6,1.3-1.2,1.3c0,0,0,0,0,0h-29.2c-0.7,0-1.3-0.5-1.3-1.2c0,0,0,0,0,0V143
		c0-0.7,0.6-1.3,1.2-1.3c0,0,0,0,0,0h29.2c0.7,0,1.3,0.5,1.3,1.2c0,0,0,0,0,0L362.5,148.4z"/>
	
		<radialGradient id="SVGID_11_" cx="118.14" cy="289.36" r="454.52" gradientTransform="matrix(1 0 0 -1 0 152)" gradientUnits="userSpaceOnUse">
		<stop  offset="0.5" style="stop-color:#E2ECF3"/>
		<stop  offset="0.81" style="stop-color:#8EA6B8"/>
		<stop  offset="1" style="stop-color:#899EA8"/>
	</radialGradient>
	<path class="st10" d="M371.9,139.8c1.1,3.5-0.4,4.8-3.9,4.8H6.7c-4.7,0.1-7.6-0.6-6.3-4.8l20.4-84c1.1-4.6,2.8-4.8,6.3-4.8h316.7
		c3.8,0.1,5.1,0.2,6.3,4.8L371.9,139.8z"/>
	
		<radialGradient id="SVGID_12_" cx="-39.13" cy="246.53" r="495.95" gradientTransform="matrix(1 0 0 -1 0 152)" gradientUnits="userSpaceOnUse">
		<stop  offset="5.000000e-02" style="stop-color:#E2ECF3"/>
		<stop  offset="0.62" style="stop-color:#8EA6B8"/>
		<stop  offset="0.83" style="stop-color:#BBCBD7"/>
		<stop  offset="0.85" style="stop-color:#E2ECF3"/>
		<stop  offset="1" style="stop-color:#899EA8"/>
	</radialGradient>
	<polygon class="st11" points="26.3,39.8 25.6,49.3 344.4,49.3 344,38.3 	"/>
	
		<linearGradient id="SVGID_13_" gradientUnits="userSpaceOnUse" x1="185.04" y1="103.28" x2="185.04" y2="109.58" gradientTransform="matrix(1 0 0 -1 0 152)">
		<stop  offset="0.61" style="stop-color:#FFFFFF"/>
		<stop  offset="0.62" style="stop-color:#F4F5F6"/>
		<stop  offset="0.66" style="stop-color:#C6C9CC"/>
		<stop  offset="0.71" style="stop-color:#9DA4A8"/>
		<stop  offset="0.75" style="stop-color:#7D858B"/>
		<stop  offset="0.8" style="stop-color:#636D75"/>
		<stop  offset="0.84" style="stop-color:#515C65"/>
		<stop  offset="0.89" style="stop-color:#46525B"/>
		<stop  offset="0.95" style="stop-color:#434F58"/>
	</linearGradient>
	<polygon class="st12" points="26.3,39.8 25.6,49.3 344.4,49.3 344,38.3 	"/>
	
		<linearGradient id="SVGID_14_" gradientUnits="userSpaceOnUse" x1="180.0568" y1="173.4396" x2="186.4468" y2="126.8396" gradientTransform="matrix(1 0 0 -1 0 152)">
		<stop  offset="0" style="stop-color:#9FBEB4"/>
		<stop  offset="0.1" style="stop-color:#B0CBC2"/>
		<stop  offset="0.26" style="stop-color:#C5DAD3"/>
		<stop  offset="0.45" style="stop-color:#D4E5E0"/>
		<stop  offset="0.67" style="stop-color:#DCECE7"/>
		<stop  offset="1" style="stop-color:#DFEEE9"/>
	</linearGradient>
	<path class="st13" d="M363.2,27.6c0,1.4-3,14.6-4.4,14.6H14.9c-1.4,0-4.5-12.6-4.5-14L23.9,2.5C24.4,1.1,25,0,26.4,0h321.5
		c1.4,0,1.6,1.1,2.5,2.5L363.2,27.6z"/>
	
		<linearGradient id="SVGID_15_" gradientUnits="userSpaceOnUse" x1="187.948" y1="156.56" x2="187.5479" y2="83.81" gradientTransform="matrix(1 0 0 -1 0 152)">
		<stop  offset="0" style="stop-color:#769F91"/>
		<stop  offset="9.000000e-02" style="stop-color:#8CB0A4"/>
		<stop  offset="0.25" style="stop-color:#B0CBC2"/>
		<stop  offset="0.41" style="stop-color:#CADED7"/>
		<stop  offset="0.55" style="stop-color:#DAEAE4"/>
		<stop  offset="0.66" style="stop-color:#DFEEE9"/>
	</linearGradient>
	<path class="st14" d="M350.8,23.7c0.4,0.8-0.1,1.1-1.2,1.1H26.8c-1.5,0-2.5-0.1-2-1.1l6.5-19.3c0.4-1.1,0.9-1.1,2-1.1h308.4
		c1.2,0,1.6,0,2,1.1L350.8,23.7z"/>
	
		<linearGradient id="SVGID_16_" gradientUnits="userSpaceOnUse" x1="188.3353" y1="154.16" x2="187.9853" y2="91.86" gradientTransform="matrix(1 0 0 -1 0 152)">
		<stop  offset="0" style="stop-color:#769F91"/>
		<stop  offset="9.000000e-02" style="stop-color:#8CB0A4"/>
		<stop  offset="0.25" style="stop-color:#B0CBC2"/>
		<stop  offset="0.41" style="stop-color:#CADED7"/>
		<stop  offset="0.55" style="stop-color:#DAEAE4"/>
		<stop  offset="0.66" style="stop-color:#DFEEE9"/>
	</linearGradient>
	<path class="st15" d="M345.3,22c0.3,0.7-0.1,1-1.2,1H33.1c-1.5,0-2.4-0.1-2-1l4-16.4c0.4-0.9,0.9-0.9,2-0.9h300.8
		c1.2,0,1.6,0,2,0.9L345.3,22z"/>
	
		<linearGradient id="SVGID_17_" gradientUnits="userSpaceOnUse" x1="186.91" y1="109.25" x2="186.91" y2="125.06" gradientTransform="matrix(1 0 0 -1 0 152)">
		<stop  offset="1.000000e-02" style="stop-color:#3C7A69"/>
		<stop  offset="0.13" style="stop-color:#79B1A0"/>
		<stop  offset="0.35" style="stop-color:#79B1A0"/>
		<stop  offset="0.36" style="stop-color:#68A291"/>
		<stop  offset="0.38" style="stop-color:#55907F"/>
		<stop  offset="0.4" style="stop-color:#478473"/>
		<stop  offset="0.43" style="stop-color:#3E7C6B"/>
		<stop  offset="0.47" style="stop-color:#3C7A69"/>
		<stop  offset="0.53" style="stop-color:#3E7C6B"/>
		<stop  offset="0.55" style="stop-color:#458271"/>
		<stop  offset="0.56" style="stop-color:#508C7B"/>
		<stop  offset="0.57" style="stop-color:#619C8B"/>
		<stop  offset="0.58" style="stop-color:#77AF9E"/>
		<stop  offset="0.58" style="stop-color:#79B1A0"/>
		<stop  offset="0.7" style="stop-color:#79B1A0"/>
		<stop  offset="0.8" style="stop-color:#639D8C"/>
		<stop  offset="1" style="stop-color:#3C7A69"/>
	</linearGradient>
	<path class="st16" d="M12.4,26.9h349.1c1.4,0,2.5,1.1,2.5,2.5v10.7c0,1.4-1.1,2.5-2.5,2.5H12.4c-1.4,0-2.5-1.1-2.5-2.5V29.4
		C9.9,28,11,26.9,12.4,26.9z"/>
	
		<radialGradient id="SVGID_18_" cx="24.58" cy="117.28" r="19.99" gradientTransform="matrix(1 0 0 -1 0 152)" gradientUnits="userSpaceOnUse">
		<stop  offset="0.58" style="stop-color:#FFFFFF"/>
		<stop  offset="0.76" style="stop-color:#6F968B"/>
		<stop  offset="0.91" style="stop-color:#42685B"/>
	</radialGradient>
	<path class="st17" d="M27.9,35.3c1.1-2.9,2.4-5.7,3.9-8.4H12.4c-1.4,0-2.5,1.1-2.5,2.5l0,0v10.7c0,1.4,1.1,2.5,2.5,2.5h13.4
		C26.3,40.1,27,37.7,27.9,35.3z"/>
	
		<radialGradient id="SVGID_19_" cx="351.37" cy="117.49" r="17.73" gradientTransform="matrix(1 0 0 -1 0 152)" gradientUnits="userSpaceOnUse">
		<stop  offset="0.58" style="stop-color:#FFFFFF"/>
		<stop  offset="0.76" style="stop-color:#6F968B"/>
		<stop  offset="0.91" style="stop-color:#42685B"/>
	</radialGradient>
	<path class="st18" d="M361.5,26.9h-19.2c1.3,1,2.3,2.2,3.1,3.6c2,3.7,2.2,8.2,0.5,12.1h15.5c1.4,0,2.5-1.1,2.5-2.5c0,0,0,0,0,0
		V29.4C364,28,362.9,26.9,361.5,26.9C361.5,26.9,361.5,26.9,361.5,26.9z"/>
	<path class="st19" d="M350.4,2.5c-0.9-1.4-1.1-2.5-2.5-2.5H26.4c-1.4,0-2,1.1-2.5,2.5l-13.1,25c0.5-0.4,1-0.6,1.6-0.6h349.1
		c0.7,0,1.3,0.3,1.8,0.8c0,0,0,0,0-0.1L350.4,2.5z M361.1,26.8L13.6,26.7l11-23.8l0,0l0,0c0.6-1.6,1.6-2.5,2.4-2.5l320.2-0.2
		c0.9,0.1,1.7,0.6,2.1,1.4c0.1,0.3,0.6,1.4,0.8,1.7C350,3.3,361.2,26.8,361.1,26.8z"/>
	<path class="st19" d="M350.4,2.5c-0.9-1.4-1.1-2.5-2.5-2.5H26.4c-1.4,0-2,1.1-2.5,2.5l-13.1,25c0.5-0.4,1-0.6,1.6-0.6h349.1
		c0.7,0,1.3,0.3,1.8,0.8c0,0,0,0,0-0.1L350.4,2.5z M362.2,26.8h-350L24.1,3l0.2-0.4c0.6-1.6,1.6-2.3,2.3-2.3l320.5,0
		c0.9-0.1,1.8,0.3,2.3,1.1c0.1,0.3,0.6,1.4,0.8,1.7C350.3,3,362.2,26.8,362.2,26.8z"/>
	
		<linearGradient id="SVGID_20_" gradientUnits="userSpaceOnUse" x1="19.2" y1="117.255" x2="75.52" y2="117.255" gradientTransform="matrix(1 0 0 -1 0 152)">
		<stop  offset="0.13" style="stop-color:#FFFFFF"/>
		<stop  offset="0.21" style="stop-color:#79B1A0"/>
		<stop  offset="0.21" style="stop-color:#76AD9C"/>
		<stop  offset="0.23" style="stop-color:#5F8F80"/>
		<stop  offset="0.25" style="stop-color:#4F796B"/>
		<stop  offset="0.28" style="stop-color:#456C5F"/>
		<stop  offset="0.29" style="stop-color:#42685B"/>
		<stop  offset="0.68" style="stop-color:#42685B"/>
		<stop  offset="0.76" style="stop-color:#6F968B"/>
		<stop  offset="0.95" style="stop-color:#FFFFFF"/>
	</linearGradient>
	<rect x="18.1" y="26.9" class="st20" width="62" height="15.7"/>
	
		<linearGradient id="SVGID_21_" gradientUnits="userSpaceOnUse" x1="22.76" y1="117.255" x2="48.77" y2="117.255" gradientTransform="matrix(1 0 0 -1 0 152)">
		<stop  offset="0.13" style="stop-color:#FFFFFF"/>
		<stop  offset="0.21" style="stop-color:#79B1A0"/>
		<stop  offset="0.21" style="stop-color:#76AD9C"/>
		<stop  offset="0.23" style="stop-color:#5F8F80"/>
		<stop  offset="0.25" style="stop-color:#4F796B"/>
		<stop  offset="0.28" style="stop-color:#456C5F"/>
		<stop  offset="0.29" style="stop-color:#42685B"/>
		<stop  offset="0.68" style="stop-color:#42685B"/>
		<stop  offset="0.76" style="stop-color:#6F968B"/>
		<stop  offset="0.95" style="stop-color:#FFFFFF"/>
	</linearGradient>
	<rect x="22.3" y="26.9" class="st21" width="28.6" height="15.7"/>
	
		<linearGradient id="SVGID_22_" gradientUnits="userSpaceOnUse" x1="351.01" y1="117.255" x2="303.49" y2="117.255" gradientTransform="matrix(1 0 0 -1 0 152)">
		<stop  offset="0.13" style="stop-color:#FFFFFF"/>
		<stop  offset="0.21" style="stop-color:#79B1A0"/>
		<stop  offset="0.21" style="stop-color:#76AD9C"/>
		<stop  offset="0.23" style="stop-color:#5F8F80"/>
		<stop  offset="0.25" style="stop-color:#4F796B"/>
		<stop  offset="0.28" style="stop-color:#456C5F"/>
		<stop  offset="0.29" style="stop-color:#42685B"/>
		<stop  offset="0.68" style="stop-color:#42685B"/>
		<stop  offset="0.76" style="stop-color:#6F968B"/>
		<stop  offset="0.95" style="stop-color:#FFFFFF"/>
	</linearGradient>
	<rect x="270.3" y="26.9" class="st22" width="84" height="15.7"/>
	
		<linearGradient id="SVGID_23_" gradientUnits="userSpaceOnUse" x1="348.23" y1="117.255" x2="314.23" y2="117.255" gradientTransform="matrix(1 0 0 -1 0 152)">
		<stop  offset="0.13" style="stop-color:#FFFFFF"/>
		<stop  offset="0.21" style="stop-color:#79B1A0"/>
		<stop  offset="0.21" style="stop-color:#76AD9C"/>
		<stop  offset="0.23" style="stop-color:#5F8F80"/>
		<stop  offset="0.25" style="stop-color:#4F796B"/>
		<stop  offset="0.28" style="stop-color:#456C5F"/>
		<stop  offset="0.29" style="stop-color:#42685B"/>
		<stop  offset="0.68" style="stop-color:#42685B"/>
		<stop  offset="0.76" style="stop-color:#6F968B"/>
		<stop  offset="0.95" style="stop-color:#FFFFFF"/>
	</linearGradient>
	<rect x="290.5" y="26.9" class="st23" width="60.1" height="15.7"/>
	<g>
		
			<linearGradient id="SVGID_24_" gradientUnits="userSpaceOnUse" x1="66.01" y1="111.93" x2="295.3" y2="111.93" gradientTransform="matrix(1 0 0 -1 0 152)">
			<stop  offset="8.000000e-02" style="stop-color:#42685B"/>
			<stop  offset="0.26" style="stop-color:#79B1A0"/>
			<stop  offset="0.28" style="stop-color:#93C0B2"/>
			<stop  offset="0.32" style="stop-color:#BAD7CE"/>
			<stop  offset="0.36" style="stop-color:#D8E8E3"/>
			<stop  offset="0.4" style="stop-color:#EEF5F3"/>
			<stop  offset="0.44" style="stop-color:#FBFCFC"/>
			<stop  offset="0.47" style="stop-color:#FFFFFF"/>
			<stop  offset="0.69" style="stop-color:#6F968B"/>
			<stop  offset="0.9" style="stop-color:#42685B"/>
		</linearGradient>
		<path class="st24" d="M314.1,40.1c0,0.7-0.6,1.2-1.2,1.2c0,0,0,0,0,0H63c-0.7,0-1.2-0.5-1.2-1.2c0,0,0,0,0,0l0,0
			c0-0.7,0.6-1.2,1.2-1.2c0,0,0,0,0,0h249.9C313.6,38.9,314.1,39.4,314.1,40.1C314.1,40.1,314.1,40.1,314.1,40.1L314.1,40.1z"/>
	</g>
	<g>
		
			<linearGradient id="SVGID_25_" gradientUnits="userSpaceOnUse" x1="21.32" y1="116.59" x2="336.6" y2="116.59" gradientTransform="matrix(1 0 0 -1 0 152)">
			<stop  offset="8.000000e-02" style="stop-color:#42685B"/>
			<stop  offset="0.26" style="stop-color:#79B1A0"/>
			<stop  offset="0.28" style="stop-color:#93C0B2"/>
			<stop  offset="0.32" style="stop-color:#BAD7CE"/>
			<stop  offset="0.36" style="stop-color:#D8E8E3"/>
			<stop  offset="0.4" style="stop-color:#EEF5F3"/>
			<stop  offset="0.44" style="stop-color:#FBFCFC"/>
			<stop  offset="0.47" style="stop-color:#FFFFFF"/>
			<stop  offset="0.69" style="stop-color:#6F968B"/>
			<stop  offset="0.9" style="stop-color:#42685B"/>
		</linearGradient>
		<path class="st25" d="M362.5,35.4c0,2.5-0.8,4.6-1.7,4.6H17.1c-0.9,0-1.7-2-1.7-4.6l0,0c0-2.5,0.8-4.6,1.7-4.6h343.6
			C361.7,30.8,362.5,32.8,362.5,35.4L362.5,35.4z"/>
	</g>
	<g>
		
			<linearGradient id="SVGID_26_" gradientUnits="userSpaceOnUse" x1="21.32" y1="120.47" x2="336.6" y2="120.47" gradientTransform="matrix(1 0 0 -1 0 152)">
			<stop  offset="8.000000e-02" style="stop-color:#42685B"/>
			<stop  offset="0.26" style="stop-color:#79B1A0"/>
			<stop  offset="0.28" style="stop-color:#93C0B2"/>
			<stop  offset="0.32" style="stop-color:#BAD7CE"/>
			<stop  offset="0.36" style="stop-color:#D8E8E3"/>
			<stop  offset="0.4" style="stop-color:#EEF5F3"/>
			<stop  offset="0.44" style="stop-color:#FBFCFC"/>
			<stop  offset="0.47" style="stop-color:#FFFFFF"/>
			<stop  offset="0.69" style="stop-color:#6F968B"/>
			<stop  offset="0.9" style="stop-color:#42685B"/>
		</linearGradient>
		<path class="st26" d="M362.5,31.5c0,0.4-0.8,0.7-1.7,0.7H17.1c-0.9,0-1.7-0.3-1.7-0.7l0,0c0-0.4,0.8-0.7,1.7-0.7h343.6
			C361.7,30.8,362.5,31.1,362.5,31.5L362.5,31.5z"/>
	</g>
	
		<radialGradient id="SVGID_27_" cx="29.76" cy="208.94" r="381.71" gradientTransform="matrix(1 0 0 -1 0 152)" gradientUnits="userSpaceOnUse">
		<stop  offset="0.18" style="stop-color:#E2ECF3"/>
		<stop  offset="0.69" style="stop-color:#8EA6B8"/>
		<stop  offset="1" style="stop-color:#899EA8"/>
	</radialGradient>
	<path class="st27" d="M321.8,63.7H47.7c-2.7,0-4.8,2.2-4.8,4.8v47.7c0,2.7,2.2,4.8,4.8,4.8h0h274.1c2.7,0,4.8-2.2,4.8-4.8V68.6
		C326.6,65.9,324.5,63.7,321.8,63.7z M320.6,112.2c0,1.4-1.2,2.6-2.6,2.6H51.4c-1.4,0-2.6-1.2-2.6-2.6c0,0,0,0,0,0V72.5
		c0-1.4,1.2-2.6,2.6-2.6c0,0,0,0,0,0H318c1.4,0,2.6,1.2,2.6,2.6L320.6,112.2z"/>
	
		<linearGradient id="SVGID_28_" gradientUnits="userSpaceOnUse" x1="107.71" y1="59.615" x2="270.74" y2="59.615" gradientTransform="matrix(1 0 0 -1 0 152)">
		<stop  offset="0.18" style="stop-color:#E2ECF3"/>
		<stop  offset="0.41" style="stop-color:#899EA8"/>
		<stop  offset="0.6" style="stop-color:#899EA8"/>
		<stop  offset="1" style="stop-color:#E2ECF3"/>
	</linearGradient>
	<path class="st28" d="M321.8,63.7H47.7c-2.7,0-4.8,2.2-4.8,4.8v47.7c0,2.7,2.2,4.8,4.8,4.8h0h274.1c2.7,0,4.8-2.2,4.8-4.8V68.6
		C326.6,65.9,324.5,63.7,321.8,63.7z M320.6,112.2c0,1.4-1.2,2.6-2.6,2.6H51.4c-1.4,0-2.6-1.2-2.6-2.6c0,0,0,0,0,0V72.5
		c0-1.4,1.2-2.6,2.6-2.6c0,0,0,0,0,0H318c1.4,0,2.6,1.2,2.6,2.6L320.6,112.2z"/>
	
		<linearGradient id="SVGID_29_" gradientUnits="userSpaceOnUse" x1="291.5787" y1="74.0614" x2="238.5187" y2="23.5214" gradientTransform="matrix(1 0 0 -1 0 152)">
		<stop  offset="4.000000e-02" style="stop-color:#FFFFFF"/>
		<stop  offset="5.000000e-02" style="stop-color:#EEEFF0"/>
		<stop  offset="6.000000e-02" style="stop-color:#C1C5C8"/>
		<stop  offset="8.000000e-02" style="stop-color:#9AA0A5"/>
		<stop  offset="0.1" style="stop-color:#7A8389"/>
		<stop  offset="0.12" style="stop-color:#626C74"/>
		<stop  offset="0.14" style="stop-color:#515C64"/>
		<stop  offset="0.16" style="stop-color:#46525B"/>
		<stop  offset="0.19" style="stop-color:#434F58"/>
		<stop  offset="0.25" style="stop-color:#4B565F"/>
		<stop  offset="0.35" style="stop-color:#616B72"/>
		<stop  offset="0.47" style="stop-color:#848C92"/>
		<stop  offset="0.6" style="stop-color:#B5BABD"/>
		<stop  offset="0.75" style="stop-color:#F3F4F4"/>
		<stop  offset="0.78" style="stop-color:#FFFFFF"/>
	</linearGradient>
	<path class="st29" d="M320.6,108.4v3.8c0,1.4-1.2,2.6-2.6,2.6H175.5c-0.1,2.1-0.1,4.2-0.2,6.2h146.5c2.7,0,4.8-2.2,4.8-4.8v-7.8
		L320.6,108.4z"/>
	
		<linearGradient id="SVGID_30_" gradientUnits="userSpaceOnUse" x1="57.2638" y1="47.3747" x2="85.8038" y2="14.3247" gradientTransform="matrix(1 0 0 -1 0 152)">
		<stop  offset="0" style="stop-color:#FFFFFF"/>
		<stop  offset="1.000000e-02" style="stop-color:#EEEFF0"/>
		<stop  offset="2.000000e-02" style="stop-color:#C1C5C8"/>
		<stop  offset="4.000000e-02" style="stop-color:#9AA0A5"/>
		<stop  offset="6.000000e-02" style="stop-color:#7A8389"/>
		<stop  offset="8.000000e-02" style="stop-color:#626C74"/>
		<stop  offset="0.11" style="stop-color:#515C64"/>
		<stop  offset="0.13" style="stop-color:#46525B"/>
		<stop  offset="0.16" style="stop-color:#434F58"/>
		<stop  offset="0.2" style="stop-color:#4B565F"/>
		<stop  offset="0.28" style="stop-color:#616B72"/>
		<stop  offset="0.37" style="stop-color:#848C92"/>
		<stop  offset="0.47" style="stop-color:#B5BABD"/>
		<stop  offset="0.58" style="stop-color:#F3F4F4"/>
		<stop  offset="0.6" style="stop-color:#FFFFFF"/>
	</linearGradient>
	<path class="st30" d="M92.1,114.8H51.4c-1.4,0-2.6-1.2-2.6-2.6c0,0,0,0,0,0v-3.8h-6v7.8c0,2.7,2.2,4.8,4.8,4.8h44.4V114.8z"/>
	
		<linearGradient id="SVGID_31_" gradientUnits="userSpaceOnUse" x1="309.5971" y1="81.8297" x2="329.1772" y2="57.4497" gradientTransform="matrix(1 0 0 -1 0 152)">
		<stop  offset="0" style="stop-color:#FFFFFF"/>
		<stop  offset="1.000000e-02" style="stop-color:#EEEFF0"/>
		<stop  offset="4.000000e-02" style="stop-color:#C1C5C8"/>
		<stop  offset="8.000000e-02" style="stop-color:#9AA0A5"/>
		<stop  offset="0.12" style="stop-color:#7A8389"/>
		<stop  offset="0.15" style="stop-color:#626C74"/>
		<stop  offset="0.19" style="stop-color:#515C64"/>
		<stop  offset="0.23" style="stop-color:#46525B"/>
		<stop  offset="0.28" style="stop-color:#434F58"/>
		<stop  offset="0.34" style="stop-color:#4B565F"/>
		<stop  offset="0.43" style="stop-color:#616B72"/>
		<stop  offset="0.54" style="stop-color:#848C92"/>
		<stop  offset="0.67" style="stop-color:#B5BABD"/>
		<stop  offset="0.81" style="stop-color:#F3F4F4"/>
		<stop  offset="0.84" style="stop-color:#FFFFFF"/>
	</linearGradient>
	<path class="st31" d="M321.8,63.7h-25.3c0.1,2.1,0.1,4.2,0.1,6.2H318c1.4,0,2.6,1.2,2.6,2.6v35.8h6V68.6
		C326.6,65.9,324.4,63.7,321.8,63.7z"/>
	
		<linearGradient id="SVGID_32_" gradientUnits="userSpaceOnUse" x1="65.631" y1="43.5685" x2="148.771" y2="101.0385" gradientTransform="matrix(1 0 0 -1 0 152)">
		<stop  offset="2.000000e-02" style="stop-color:#FFFFFF"/>
		<stop  offset="2.000000e-02" style="stop-color:#F6F7F7"/>
		<stop  offset="3.000000e-02" style="stop-color:#DDE0E1"/>
		<stop  offset="5.000000e-02" style="stop-color:#B5BABE"/>
		<stop  offset="6.000000e-02" style="stop-color:#7F878D"/>
		<stop  offset="8.000000e-02" style="stop-color:#434F58"/>
		<stop  offset="0.16" style="stop-color:#445059"/>
		<stop  offset="0.34" style="stop-color:#4D5860"/>
		<stop  offset="0.42" style="stop-color:#59636A"/>
		<stop  offset="0.56" style="stop-color:#788086"/>
		<stop  offset="0.74" style="stop-color:#ABB0B4"/>
		<stop  offset="0.96" style="stop-color:#F0F1F2"/>
		<stop  offset="1" style="stop-color:#FFFFFF"/>
	</linearGradient>
	<path class="st32" d="M205.4,63.7H47.7c-2.7,0-4.8,2.2-4.8,4.8v14.4h6V72.5c0-1.4,1.2-2.6,2.6-2.6c0,0,0,0,0,0h154L205.4,63.7z"/>
	
		<radialGradient id="SVGID_33_" cx="164.8" cy="176.56" r="301.53" fx="90.1596" fy="271.4654" gradientTransform="matrix(1 0 0 -1 0 152)" gradientUnits="userSpaceOnUse">
		<stop  offset="0" style="stop-color:#7C857A"/>
		<stop  offset="0.51" style="stop-color:#9FAAA4"/>
		<stop  offset="0.94" style="stop-color:#B5BFBC"/>
	</radialGradient>
	<path class="st33" d="M51.4,69.9H318c1.4,0,2.6,1.2,2.6,2.6c0,0,0,0,0,0v39.7c0,1.4-1.2,2.6-2.6,2.6H51.4c-1.4,0-2.6-1.2-2.6-2.6
		l0,0V72.5C48.8,71.1,50,69.9,51.4,69.9z"/>
	<g>
		
			<radialGradient id="SVGID_34_" cx="176.88" cy="303.4431" r="268.2" gradientTransform="matrix(1 0 0 -0.97 0 157.42)" gradientUnits="userSpaceOnUse">
			<stop  offset="0" style="stop-color:#7C857A"/>
			<stop  offset="0.35" style="stop-color:#7E877C"/>
			<stop  offset="0.55" style="stop-color:#858E84"/>
			<stop  offset="0.7" style="stop-color:#919A92"/>
			<stop  offset="0.84" style="stop-color:#A1ABA5"/>
			<stop  offset="0.95" style="stop-color:#B7C2BE"/>
			<stop  offset="1" style="stop-color:#C1CCCA"/>
		</radialGradient>
		<path class="st34" d="M319.6,111.6c-0.1,1.4-1.2,2.4-2.6,2.4H53c-1.4,0-2.5-1-2.6-2.4v-37c0-1.4,1.2-2.5,2.6-2.4c0,0,0,0,0,0h264
			c1.4,0,2.5,1.1,2.6,2.4c0,0,0,0,0,0L319.6,111.6z"/>
	</g>
	<g>
		
			<radialGradient id="SVGID_35_" cx="184.7305" cy="56.8" r="102.6471" gradientTransform="matrix(1 0 0 -1 0 152)" gradientUnits="userSpaceOnUse">
			<stop  offset="0.18" style="stop-color:#E2ECF3"/>
			<stop  offset="0.69" style="stop-color:#8EA6B8"/>
			<stop  offset="1" style="stop-color:#899EA8"/>
		</radialGradient>
		<path class="st35" d="M42.8,68.6c0,0,0,6,0.1,16.5c0,5.3,0.1,11.6,0.2,19c0,3.7,0.1,7.6,0.1,11.7v0.5c0,0,0,0,0,0.1v0.2
			c0,0.3,0,0.5,0.1,0.8l0.2,0.7c0.1,0.2,0.2,0.4,0.3,0.6c0.5,0.8,1.3,1.5,2.2,1.8l0.7,0.2l0.7,0.1c0.5,0,1.1,0,1.6,0h3.3l61.6-0.3
			l70.6-0.1l70.6,0.1l61.6,0.3h3.3c0.5,0,1.1,0,1.6,0l0.8-0.1l0.7-0.2c0.9-0.4,1.7-1,2.2-1.8c0.1-0.2,0.2-0.4,0.3-0.6l0.2-0.7
			c0.1-0.5,0.1-1,0.1-1.4c0-4.1,0.1-8,0.1-11.7c0.1-7.3,0.1-13.7,0.2-19c0.1-10.5,0.1-16.5,0.1-16.5s0,6,0.1,16.5
			c0,5.3,0.1,11.6,0.2,19c0,3.7,0.1,7.6,0.1,11.7c0,0.5,0,1.1-0.1,1.6l-0.3,0.8c-0.1,0.3-0.2,0.5-0.4,0.8c-0.6,1-1.5,1.8-2.6,2.2
			c-0.3,0.1-0.6,0.2-0.9,0.3l-0.8,0.1c-0.6,0-1.1,0-1.7,0h-3.3l-61.6,0.3l-70.6,0.1l-70.6-0.1l-61.6-0.3h-3.3c-0.6,0-1.1,0-1.7,0
			l-0.9-0.1l-0.8-0.3c-1.1-0.4-2-1.2-2.6-2.2c-0.1-0.2-0.3-0.5-0.4-0.8l-0.3-0.8c0-0.3-0.1-0.5-0.1-0.8v-0.2v-0.6
			c0-4.1,0.1-8,0.1-11.7c0.1-7.3,0.1-13.7,0.2-19C42.8,74.6,42.8,68.6,42.8,68.6z"/>
	</g>
	
		<radialGradient id="SVGID_36_" cx="27.56" cy="100.81" r="287.74" gradientTransform="matrix(1 0 0 -1 0 152)" gradientUnits="userSpaceOnUse">
		<stop  offset="0.5" style="stop-color:#E2ECF3"/>
		<stop  offset="0.81" style="stop-color:#8EA6B8"/>
		<stop  offset="1" style="stop-color:#899EA8"/>
	</radialGradient>
	<path class="st36" d="M27.4,52.1h316l2-0.2c1.6,0.1,3.2,0.9,4.1,2.2c-1.1-3-2.5-3.1-5.8-3.2H27c-3.5,0-5.2,0.2-6.3,4.8l-20.4,84
		l0,0l21.2-83.2C22.4,53.1,24.3,52.1,27.4,52.1z"/>
	
		<radialGradient id="SVGID_37_" cx="350.24" cy="23.2" r="13.91" gradientTransform="matrix(1 0 0 -1 0 152)" gradientUnits="userSpaceOnUse">
		<stop  offset="0.7" style="stop-color:#000000"/>
		<stop  offset="0.86" style="stop-color:#9EADB2"/>
		<stop  offset="0.86" style="stop-color:#A8B5BA"/>
		<stop  offset="0.87" style="stop-color:#C3CCCF"/>
		<stop  offset="0.88" style="stop-color:#D9DFE1"/>
		<stop  offset="0.89" style="stop-color:#EAEDEE"/>
		<stop  offset="0.91" style="stop-color:#F6F8F8"/>
		<stop  offset="0.93" style="stop-color:#FDFDFD"/>
		<stop  offset="0.98" style="stop-color:#FFFFFF"/>
	</radialGradient>
	<ellipse class="st37" cx="349.2" cy="128.2" rx="13.8" ry="14"/>
	
		<radialGradient id="SVGID_38_" cx="354.4518" cy="25.02" r="11.74" gradientTransform="matrix(1.01 0 0 -1 -5.98 155.09)" gradientUnits="userSpaceOnUse">
		<stop  offset="0.7" style="stop-color:#000000"/>
		<stop  offset="0.86" style="stop-color:#9EADB2"/>
	</radialGradient>
	<ellipse class="st38" cx="350.7" cy="129" rx="11.8" ry="11.8"/>
	
		<linearGradient id="SVGID_39_" gradientUnits="userSpaceOnUse" x1="360.6305" y1="27.2189" x2="340.6405" y2="18.7689" gradientTransform="matrix(1 0 0 -1 0 152)">
		<stop  offset="0" style="stop-color:#738289"/>
		<stop  offset="0.2" style="stop-color:#9DAFB8"/>
		<stop  offset="0.31" style="stop-color:#738289"/>
		<stop  offset="0.42" style="stop-color:#CEDBDD"/>
		<stop  offset="0.62" style="stop-color:#9BB2C1"/>
		<stop  offset="0.72" style="stop-color:#9EAEB0"/>
		<stop  offset="0.8" style="stop-color:#C5E0F3"/>
		<stop  offset="0.97" style="stop-color:#738289"/>
	</linearGradient>
	<circle class="st39" cx="350.6" cy="129" r="11.2"/>
	
		<linearGradient id="SVGID_40_" gradientUnits="userSpaceOnUse" x1="339.02" y1="33.5" x2="360.04" y2="12.48" gradientTransform="matrix(1 0 0 -1 0 152)">
		<stop  offset="0" style="stop-color:#738289"/>
		<stop  offset="0.2" style="stop-color:#9DAFB8"/>
		<stop  offset="0.31" style="stop-color:#738289"/>
		<stop  offset="0.42" style="stop-color:#CEDBDD"/>
		<stop  offset="0.62" style="stop-color:#9BB2C1"/>
		<stop  offset="0.72" style="stop-color:#9EAEB0"/>
		<stop  offset="0.8" style="stop-color:#C5E0F3"/>
		<stop  offset="0.97" style="stop-color:#738289"/>
	</linearGradient>
	<circle class="st40" cx="351.3" cy="130.7" r="10.4"/>
	
		<radialGradient id="SVGID_41_" cx="351.68" cy="21.15" r="11.64" gradientTransform="matrix(1 0 0 -1 0 152)" gradientUnits="userSpaceOnUse">
		<stop  offset="0.67" style="stop-color:#FFFFFF"/>
		<stop  offset="0.75" style="stop-color:#FDFDFE"/>
		<stop  offset="0.79" style="stop-color:#F6F8F8"/>
		<stop  offset="0.81" style="stop-color:#EBEEEF"/>
		<stop  offset="0.83" style="stop-color:#DADFE1"/>
		<stop  offset="0.84" style="stop-color:#C4CDD0"/>
		<stop  offset="0.85" style="stop-color:#A9B6BB"/>
		<stop  offset="0.86" style="stop-color:#9EADB2"/>
	</radialGradient>
	<circle class="st41" cx="351.3" cy="130.7" r="10.4"/>
	<g>
		
			<radialGradient id="SVGID_42_" cx="354.25" cy="17.65" r="13.67" gradientTransform="matrix(1 0 0 -1 0 152)" gradientUnits="userSpaceOnUse">
			<stop  offset="0.32" style="stop-color:#9EADB2"/>
			<stop  offset="0.47" style="stop-color:#AFBCC0"/>
			<stop  offset="0.78" style="stop-color:#DCE1E3"/>
			<stop  offset="1" style="stop-color:#FFFFFF"/>
		</radialGradient>
		<ellipse class="st42" cx="351.2" cy="130.5" rx="9.3" ry="9.5"/>
	</g>
	
		<radialGradient id="SVGID_43_" cx="343.55" cy="27.01" r="17.11" gradientTransform="matrix(1 0 0 -1 0 152)" gradientUnits="userSpaceOnUse">
		<stop  offset="8.000000e-02" style="stop-color:#FFFFFF"/>
		<stop  offset="0.16" style="stop-color:#F6F8F8"/>
		<stop  offset="0.28" style="stop-color:#DEE3E5"/>
		<stop  offset="0.43" style="stop-color:#B7C2C6"/>
		<stop  offset="0.51" style="stop-color:#9EADB2"/>
		<stop  offset="0.92" style="stop-color:#000000"/>
	</radialGradient>
	<path class="st43" d="M351.3,141.1h-0.5c-0.5,0-1-0.1-1.5-0.2c-0.3-0.1-0.7-0.2-1.1-0.3c-0.4-0.1-0.8-0.3-1.2-0.5
		c-1-0.4-1.9-1-2.6-1.7c-0.9-0.8-1.7-1.8-2.3-2.9c-0.7-1.2-1.1-2.6-1.2-4c-0.1-0.7-0.1-1.5,0-2.2c0.1-0.8,0.3-1.5,0.5-2.2
		c1-3,3.4-5.3,6.4-6.4c1.4-0.5,2.9-0.7,4.4-0.6c1.4,0.1,2.8,0.5,4,1.2c1.1,0.6,2.1,1.4,3,2.3c0.7,0.8,1.3,1.7,1.7,2.6
		c0.2,0.4,0.3,0.8,0.5,1.2c0.1,0.4,0.2,0.8,0.3,1.1c0.1,0.5,0.1,1,0.2,1.6c0,0.4,0,0.5,0,0.5s0-0.2,0-0.5c0-0.5-0.1-1-0.2-1.5
		c-0.1-0.3-0.2-0.7-0.3-1.1c-0.1-0.4-0.3-0.8-0.5-1.2c-1-2-2.6-3.7-4.6-4.8c-1.2-0.6-2.5-1-3.9-1.1c-1.4-0.1-2.9,0.1-4.3,0.6
		c-2.9,1-5.1,3.3-6.1,6.1c-0.3,0.7-0.4,1.4-0.5,2.1c-0.5,3.3,0.7,6.7,3.2,8.9c0.8,0.7,1.6,1.3,2.5,1.7c0.4,0.2,0.8,0.4,1.2,0.5
		l1.1,0.3c0.5,0.1,1,0.2,1.5,0.2L351.3,141.1z"/>
	
		<radialGradient id="SVGID_44_" cx="343.73" cy="26.91" r="16.99" gradientTransform="matrix(1 0 0 -1 0 152)" gradientUnits="userSpaceOnUse">
		<stop  offset="8.000000e-02" style="stop-color:#FFFFFF"/>
		<stop  offset="0.16" style="stop-color:#F6F8F8"/>
		<stop  offset="0.28" style="stop-color:#DEE3E5"/>
		<stop  offset="0.43" style="stop-color:#B7C2C6"/>
		<stop  offset="0.51" style="stop-color:#9EADB2"/>
		<stop  offset="0.92" style="stop-color:#000000"/>
	</radialGradient>
	<path class="st44" d="M351.4,141.1h-0.5c-0.5,0-1-0.1-1.5-0.2c-0.3-0.1-0.7-0.2-1.1-0.3c-0.4-0.1-0.8-0.3-1.2-0.5
		c-1-0.4-1.9-1-2.6-1.7c-0.9-0.8-1.7-1.8-2.3-2.9c-0.7-1.2-1.1-2.6-1.2-4c-0.1-0.7-0.1-1.5,0-2.2c0.1-0.8,0.3-1.5,0.5-2.2
		c1-3,3.4-5.3,6.3-6.3c1.4-0.5,2.9-0.7,4.4-0.6c1.4,0.1,2.8,0.5,4,1.2c1.1,0.6,2.1,1.4,2.9,2.3c0.7,0.8,1.3,1.7,1.7,2.6
		c0.2,0.4,0.3,0.8,0.5,1.2c0.1,0.4,0.2,0.8,0.3,1.1c0.1,0.5,0.1,1,0.2,1.5v0.6v-0.6c0-0.5-0.1-1-0.2-1.5c-0.1-0.3-0.2-0.7-0.3-1.1
		c-1.8-5.4-7.5-8.3-12.9-6.5c-3,1-5.4,3.3-6.4,6.2c-0.3,0.7-0.4,1.4-0.5,2.1c-0.1,0.7-0.1,1.4-0.1,2.1c0.2,2.6,1.4,5,3.3,6.8
		c0.8,0.7,1.6,1.3,2.5,1.7c0.4,0.2,0.8,0.4,1.2,0.5c0.4,0.1,0.7,0.2,1.1,0.3c0.5,0.1,1,0.2,1.5,0.2L351.4,141.1z"/>
	<g id="numerosBalanza">
		<path id="punto" d="M271.2,111v-3.9h3.9v3.9H271.2z"/>
		<path id="decimal" d="M285.2,89.5l-2.4,2.5l-1.5-1.5V75.2l3.9,3.9L285.2,89.5z M285.2,106.3l-3.9,3.9V95l1.5-1.5l2.5,2.4V106.3z
			 M302.4,74.5l-3.9,3.9h-12.7l-3.9-3.9L302.4,74.5z M302.4,111H282l3.9-3.9h12.7L302.4,111z M303.2,90.5l-1.4,1.5l-2.5-2.4V79.1
			l3.9-3.9V90.5z M303.2,110.2l-3.9-3.9V95.9l2.5-2.4l1.4,1.5V110.2z"/>
		<path id="gramo" d="M316.3,104.8v5.1l-1.8-1.8v-2.8l1.1-1.1L316.3,104.8z M314.5,102.3v-4.8l1.8-1.8v7.1l-0.7,0.7L314.5,102.3z
			 M306.5,110.2l1.8-1.8h5.9l1.8,1.8H306.5z M306.5,95.3h9.5l-1.8,1.8h-5.9L306.5,95.3z M308.1,104.6l-0.9-0.9l0.9-0.9h6.3l0.9,0.9
			l-0.9,0.9H308.1z M306.1,102.7v-7.1l1.9,1.8v4.8l-1.1,1.1L306.1,102.7z"/>
		<path id="_0a" d="M197.1,89.5l-2.4,2.5l-1.5-1.5V75.2l3.9,3.9V89.5z M197.1,106.3l-3.9,3.9V95l1.5-1.5l2.4,2.4V106.3z M214.3,74.5
			l-3.9,3.9h-12.7l-3.9-3.9H214.3z M214.3,111h-20.4l3.9-3.9h12.7L214.3,111z M215.1,90.5l-1.4,1.5l-2.5-2.4V79.1l3.9-3.9
			L215.1,90.5z M215.1,110.2l-3.9-3.9V95.9l2.5-2.4l1.4,1.5L215.1,110.2z"/>
		<path id="_0b" d="M221.6,89.5l-2.5,2.5l-1.5-1.5V75.2l3.9,3.9L221.6,89.5z M221.6,106.3l-3.9,3.9V95l1.5-1.5l2.4,2.4V106.3z
			 M238.9,74.5l-3.9,3.9h-12.7l-3.9-3.9L238.9,74.5z M238.9,111h-20.4l3.9-3.9H235L238.9,111z M239.6,90.5l-1.4,1.5l-2.5-2.4V79.1
			l3.9-3.9L239.6,90.5z M239.6,110.2l-3.9-3.9V95.9l2.5-2.4l1.4,1.5L239.6,110.2z"/>
		<path id="_0c" d="M247,89.5l-2.5,2.5l-1.5-1.5V75.2l3.9,3.9V89.5z M247,106.3l-3.9,3.9V95l1.5-1.5l2.4,2.4V106.3z M264.2,74.5
			l-3.9,3.9h-12.7l-3.9-3.9H264.2z M264.2,111h-20.4l3.9-3.9h12.7L264.2,111z M264.9,90.5l-1.5,1.5l-2.5-2.5V79.1l3.9-3.9
			L264.9,90.5z M264.9,110.2l-3.9-3.9V95.9l2.5-2.4l1.4,1.5L264.9,110.2z"/>
		<path id="_x32_" d="M221.6,106.3l-3.9,3.9V95l1.5-1.5l2.4,2.4V106.3z M238.9,74.5l-3.9,3.9h-12.7l-3.9-3.9L238.9,74.5z M238.9,111
			h-20.4l3.9-3.9H235L238.9,111z M239.6,90.5l-1.4,1.5l-2.5-2.4V79.1l3.9-3.9L239.6,90.5z M233.9,91.5l2.3,1.6l-2.1,2.3h-10.4
			l-1.8-2.1l1.9-1.8L233.9,91.5z"/>
		<path id="_x35_" d="M221.6,89.5l-2.5,2.5l-1.5-1.5V75.2l3.9,3.9L221.6,89.5z M238.9,74.5l-3.9,3.9h-12.7l-3.9-3.9L238.9,74.5z
			 M238.9,111h-20.4l3.9-3.9H235L238.9,111z M233.9,91.5l2.3,1.6l-2.1,2.3h-10.4l-1.8-2.1l1.9-1.8L233.9,91.5z M239.6,110.2
			l-3.9-3.9V95.9l2.5-2.4l1.4,1.5L239.6,110.2z"/>
	</g>
</g>
</svg>
