<svg xmlns="http://www.w3.org/2000/svg" xmlns:xlink="http://www.w3.org/1999/xlink" viewBox="0 0 317.08 127.45"><defs><style>.cls-1{mask:url(#mask);filter:url(#luminosity-noclip-6);}.cls-10,.cls-15,.cls-16,.cls-19,.cls-2,.cls-21,.cls-22,.cls-24,.cls-25,.cls-26,.cls-27,.cls-28,.cls-29,.cls-30,.cls-38,.cls-39,.cls-4,.cls-40,.cls-41,.cls-42,.cls-46,.cls-49,.cls-50,.cls-53,.cls-6,.cls-8{mix-blend-mode:multiply;}.cls-2{fill:url(#linear-gradient);}.cls-3,.cls-5{mask:url(#mask-2);}.cls-3{filter:url(#luminosity-noclip-7);}.cls-4{fill:url(#linear-gradient-2);}.cls-5{filter:url(#luminosity-noclip-8);}.cls-6{fill:url(#linear-gradient-3);}.cls-7{mask:url(#mask-4);filter:url(#luminosity-noclip-9);}.cls-8{fill:url(#radial-gradient);}.cls-9{mask:url(#mask-5);filter:url(#luminosity-noclip-10);}.cls-10{fill:url(#radial-gradient-2);}.cls-11{isolation:isolate;}.cls-12{fill:url(#radial-gradient-3);}.cls-13{fill:url(#linear-gradient-4);}.cls-14{fill:url(#linear-gradient-5);}.cls-15,.cls-16,.cls-27,.cls-28,.cls-29,.cls-30{opacity:0.6;}.cls-15{fill:url(#linear-gradient-6);}.cls-16{fill:url(#linear-gradient-7);}.cls-17{fill:url(#radial-gradient-4);}.cls-18{fill:url(#radial-gradient-5);}.cls-19,.cls-38,.cls-40,.cls-41,.cls-42,.cls-50,.cls-57{opacity:0.5;}.cls-19{fill:url(#linear-gradient-8);}.cls-20{fill:url(#linear-gradient-9);}.cls-21,.cls-26{opacity:0.2;}.cls-21{fill:url(#linear-gradient-10);}.cls-22,.cls-49{opacity:0.3;}.cls-22{fill:url(#linear-gradient-11);}.cls-23{fill:url(#linear-gradient-12);}.cls-24{fill:url(#radial-gradient-6);}.cls-25{fill:url(#radial-gradient-7);}.cls-26{fill:#57766c;}.cls-27{fill:url(#linear-gradient-13);}.cls-28{fill:url(#linear-gradient-14);}.cls-29{fill:url(#linear-gradient-15);}.cls-30{fill:url(#linear-gradient-16);}.cls-31{mask:url(#mask-6);}.cls-32,.cls-34,.cls-36,.cls-45,.cls-48,.cls-55,.cls-56,.cls-57{mix-blend-mode:screen;}.cls-32{fill:url(#linear-gradient-17);}.cls-33{mask:url(#mask-7);}.cls-34{opacity:0.4;fill:url(#linear-gradient-18);}.cls-35{mask:url(#mask-8);}.cls-36{fill:url(#linear-gradient-19);}.cls-37{fill:url(#radial-gradient-8);}.cls-38{fill:url(#linear-gradient-20);}.cls-39,.cls-45,.cls-56{opacity:0.7;}.cls-39{fill:url(#linear-gradient-21);}.cls-40{fill:url(#linear-gradient-22);}.cls-41{fill:url(#linear-gradient-23);}.cls-42{fill:url(#linear-gradient-24);}.cls-43{fill:url(#radial-gradient-9);}.cls-44{mask:url(#mask-9);}.cls-45{fill:url(#radial-gradient-10);}.cls-47{fill:url(#radial-gradient-11);}.cls-48{fill:url(#radial-gradient-12);}.cls-49{fill:url(#radial-gradient-13);}.cls-50{fill:url(#radial-gradient-14);}.cls-51{fill:url(#linear-gradient-25);}.cls-52{fill:url(#linear-gradient-26);}.cls-53{fill:url(#radial-gradient-15);}.cls-54{mask:url(#mask-10);}.cls-55{fill:url(#radial-gradient-16);}.cls-56{fill:url(#radial-gradient-17);}.cls-57{fill:url(#radial-gradient-18);}.cls-58{filter:url(#luminosity-noclip-5);}.cls-59{filter:url(#luminosity-noclip-4);}.cls-60{filter:url(#luminosity-noclip-2);}.cls-61{filter:url(#luminosity-noclip);}</style><filter id="luminosity-noclip" x="52.58" y="-9812" width="214.97" height="32766" filterUnits="userSpaceOnUse" color-interpolation-filters="sRGB"><feFlood flood-color="#fff" result="bg"/><feBlend in="SourceGraphic" in2="bg"/></filter><mask id="mask" x="52.58" y="-9812" width="214.97" height="32766" maskUnits="userSpaceOnUse"><g class="cls-61"/></mask><linearGradient id="linear-gradient" x1="56.23" y1="34.13" x2="251.53" y2="34.13" gradientUnits="userSpaceOnUse"><stop offset="0.08"/><stop offset="0.26" stop-color="#fff"/><stop offset="0.47" stop-color="#fff"/><stop offset="0.69" stop-color="#fff"/><stop offset="0.9"/></linearGradient><filter id="luminosity-noclip-2" x="13.16" y="-9812" width="295.58" height="32766" filterUnits="userSpaceOnUse" color-interpolation-filters="sRGB"><feFlood flood-color="#fff" result="bg"/><feBlend in="SourceGraphic" in2="bg"/></filter><mask id="mask-2" x="13.16" y="-9812" width="295.58" height="32766" maskUnits="userSpaceOnUse"><g class="cls-60"/></mask><linearGradient id="linear-gradient-2" x1="18.16" y1="30.16" x2="286.7" y2="30.16" xlink:href="#linear-gradient"/><linearGradient id="linear-gradient-3" x1="18.16" y1="26.85" x2="286.7" y2="26.85" xlink:href="#linear-gradient"/><filter id="luminosity-noclip-4" x="42.96" y="-9812" width="229.26" height="32766" filterUnits="userSpaceOnUse" color-interpolation-filters="sRGB"><feFlood flood-color="#fff" result="bg"/><feBlend in="SourceGraphic" in2="bg"/></filter><mask id="mask-4" x="42.96" y="-9812" width="229.26" height="32766" maskUnits="userSpaceOnUse"><g class="cls-59"/></mask><radialGradient id="radial-gradient" cx="150.66" cy="-164.07" r="228.45" gradientTransform="translate(0 42.65) scale(1 0.97)" gradientUnits="userSpaceOnUse"><stop offset="0" stop-color="#fff"/><stop offset="0.29" stop-color="#fdfdfd"/><stop offset="0.45" stop-color="#f5f5f5"/><stop offset="0.58" stop-color="#e7e7e7"/><stop offset="0.69" stop-color="#d4d4d4"/><stop offset="0.79" stop-color="#bababa"/><stop offset="0.88" stop-color="#9b9b9b"/><stop offset="0.96" stop-color="#777"/><stop offset="1" stop-color="#666"/></radialGradient><filter id="luminosity-noclip-5" x="291.22" y="-9812" width="15.87" height="32766" filterUnits="userSpaceOnUse" color-interpolation-filters="sRGB"><feFlood flood-color="#fff" result="bg"/><feBlend in="SourceGraphic" in2="bg"/></filter><mask id="mask-5" x="291.22" y="-9812" width="15.87" height="32766" maskUnits="userSpaceOnUse"><g class="cls-58"/></mask><radialGradient id="radial-gradient-2" cx="301.74" cy="114.44" r="11.64" gradientUnits="userSpaceOnUse"><stop offset="0.32"/><stop offset="0.38" stop-color="#111"/><stop offset="0.52" stop-color="#3e3e3e"/><stop offset="0.71" stop-color="#878787"/><stop offset="0.95" stop-color="#eaeaea"/><stop offset="1" stop-color="#fff"/></radialGradient><radialGradient id="radial-gradient-3" cx="158.25" cy="42.3" r="99.35" gradientUnits="userSpaceOnUse"><stop offset="0.81" stop-color="#8ea6b8"/><stop offset="1" stop-color="#899ea8"/></radialGradient><linearGradient id="linear-gradient-4" x1="5.81" y1="124.1" x2="32.83" y2="124.1" gradientUnits="userSpaceOnUse"><stop offset="0" stop-color="#030303"/><stop offset="0.15" stop-color="#434f58"/><stop offset="0.88" stop-color="#434f58"/><stop offset="1" stop-color="#030303"/></linearGradient><linearGradient id="linear-gradient-5" x1="281.79" y1="124.1" x2="308.81" y2="124.1" xlink:href="#linear-gradient-4"/><linearGradient id="linear-gradient-6" x1="19.32" y1="127.5" x2="19.32" y2="122.11" gradientUnits="userSpaceOnUse"><stop offset="0.42" stop-color="#fff"/><stop offset="0.44" stop-color="#dadcde"/><stop offset="0.47" stop-color="#b2b7ba"/><stop offset="0.5" stop-color="#8f979c"/><stop offset="0.53" stop-color="#747c83"/><stop offset="0.57" stop-color="#5e6870"/><stop offset="0.61" stop-color="#4f5a62"/><stop offset="0.65" stop-color="#46525a"/><stop offset="0.72" stop-color="#434f58"/></linearGradient><linearGradient id="linear-gradient-7" x1="295.3" y1="127.24" x2="295.3" y2="121.76" xlink:href="#linear-gradient-6"/><radialGradient id="radial-gradient-4" cx="100.63" cy="-117" r="387.15" gradientUnits="userSpaceOnUse"><stop offset="0.5" stop-color="#e2ecf3"/><stop offset="0.81" stop-color="#8ea6b8"/><stop offset="1" stop-color="#899ea8"/></radialGradient><radialGradient id="radial-gradient-5" cx="-33.33" cy="-80.52" r="422.44" gradientUnits="userSpaceOnUse"><stop offset="0.05" stop-color="#e2ecf3"/><stop offset="0.62" stop-color="#8ea6b8"/><stop offset="0.83" stop-color="#bbcbd7"/><stop offset="0.85" stop-color="#e2ecf3"/><stop offset="1" stop-color="#899ea8"/></radialGradient><linearGradient id="linear-gradient-8" x1="157.61" y1="41.5" x2="157.61" y2="36.13" gradientUnits="userSpaceOnUse"><stop offset="0.61" stop-color="#fff"/><stop offset="0.62" stop-color="#f4f5f6"/><stop offset="0.66" stop-color="#c6c9cc"/><stop offset="0.71" stop-color="#9da4a8"/><stop offset="0.75" stop-color="#7d858b"/><stop offset="0.8" stop-color="#636d75"/><stop offset="0.84" stop-color="#515c65"/><stop offset="0.89" stop-color="#46525b"/><stop offset="0.95" stop-color="#434f58"/></linearGradient><linearGradient id="linear-gradient-9" x1="153.37" y1="-18.26" x2="158.81" y2="21.43" gradientUnits="userSpaceOnUse"><stop offset="0" stop-color="#9fbeb4"/><stop offset="0.1" stop-color="#b0cbc2"/><stop offset="0.26" stop-color="#c5dad3"/><stop offset="0.45" stop-color="#d4e5e0"/><stop offset="0.67" stop-color="#dcece7"/><stop offset="1" stop-color="#dfeee9"/></linearGradient><linearGradient id="linear-gradient-10" x1="160.09" y1="-3.88" x2="159.74" y2="58.09" gradientUnits="userSpaceOnUse"><stop offset="0" stop-color="#769f91"/><stop offset="0.09" stop-color="#8cb0a4"/><stop offset="0.25" stop-color="#b0cbc2"/><stop offset="0.41" stop-color="#caded7"/><stop offset="0.55" stop-color="#daeae4"/><stop offset="0.66" stop-color="#dfeee9"/></linearGradient><linearGradient id="linear-gradient-11" x1="160.41" y1="-1.84" x2="160.12" y2="51.22" xlink:href="#linear-gradient-10"/><linearGradient id="linear-gradient-12" x1="159.21" y1="36.41" x2="159.21" y2="22.95" gradientUnits="userSpaceOnUse"><stop offset="0.01" stop-color="#3c7a69"/><stop offset="0.13" stop-color="#79b1a0"/><stop offset="0.35" stop-color="#79b1a0"/><stop offset="0.36" stop-color="#68a291"/><stop offset="0.38" stop-color="#55907f"/><stop offset="0.4" stop-color="#478473"/><stop offset="0.43" stop-color="#3e7c6b"/><stop offset="0.47" stop-color="#3c7a69"/><stop offset="0.53" stop-color="#3e7c6b"/><stop offset="0.55" stop-color="#458271"/><stop offset="0.56" stop-color="#508c7b"/><stop offset="0.57" stop-color="#619c8b"/><stop offset="0.58" stop-color="#77af9e"/><stop offset="0.58" stop-color="#79b1a0"/><stop offset="0.7" stop-color="#79b1a0"/><stop offset="0.8" stop-color="#639d8c"/><stop offset="1" stop-color="#3c7a69"/></linearGradient><radialGradient id="radial-gradient-6" cx="20.94" cy="29.57" r="17.02" gradientUnits="userSpaceOnUse"><stop offset="0.58" stop-color="#fff"/><stop offset="0.76" stop-color="#6f968b"/><stop offset="0.91" stop-color="#42685b"/></radialGradient><radialGradient id="radial-gradient-7" cx="299.29" cy="29.4" r="15.11" xlink:href="#radial-gradient-6"/><linearGradient id="linear-gradient-13" x1="16.36" y1="29.59" x2="64.32" y2="29.59" gradientUnits="userSpaceOnUse"><stop offset="0.13" stop-color="#fff"/><stop offset="0.21" stop-color="#79b1a0"/><stop offset="0.21" stop-color="#76ad9c"/><stop offset="0.23" stop-color="#5f8f80"/><stop offset="0.25" stop-color="#4f796b"/><stop offset="0.28" stop-color="#456c5f"/><stop offset="0.29" stop-color="#42685b"/><stop offset="0.68" stop-color="#42685b"/><stop offset="0.76" stop-color="#6f968b"/><stop offset="0.95" stop-color="#fff"/></linearGradient><linearGradient id="linear-gradient-14" x1="19.39" y1="29.59" x2="41.54" y2="29.59" xlink:href="#linear-gradient-13"/><linearGradient id="linear-gradient-15" x1="298.98" y1="29.59" x2="258.51" y2="29.59" xlink:href="#linear-gradient-13"/><linearGradient id="linear-gradient-16" x1="296.61" y1="29.59" x2="267.65" y2="29.59" xlink:href="#linear-gradient-13"/><filter id="luminosity-noclip-6" x="52.58" y="33.13" width="214.97" height="2.01" filterUnits="userSpaceOnUse" color-interpolation-filters="sRGB"><feFlood flood-color="#fff" result="bg"/><feBlend in="SourceGraphic" in2="bg"/></filter><mask id="mask-6" x="52.58" y="33.13" width="214.97" height="2.01" maskUnits="userSpaceOnUse"><g class="cls-1"><path class="cls-2" d="M267.55,34.13a1,1,0,0,1-1.05,1H53.64a1,1,0,0,1-1.05-1h0a1,1,0,0,1,1.05-1H266.5a1,1,0,0,1,1.05,1Z"/></g></mask><linearGradient id="linear-gradient-17" x1="56.23" y1="34.13" x2="251.53" y2="34.13" gradientUnits="userSpaceOnUse"><stop offset="0.08" stop-color="#42685b"/><stop offset="0.26" stop-color="#79b1a0"/><stop offset="0.28" stop-color="#93c0b2"/><stop offset="0.32" stop-color="#bad7ce"/><stop offset="0.36" stop-color="#d8e8e3"/><stop offset="0.4" stop-color="#eef5f3"/><stop offset="0.44" stop-color="#fbfcfc"/><stop offset="0.47" stop-color="#fff"/><stop offset="0.69" stop-color="#6f968b"/><stop offset="0.9" stop-color="#42685b"/></linearGradient><filter id="luminosity-noclip-7" x="13.16" y="26.28" width="295.58" height="7.76" filterUnits="userSpaceOnUse" color-interpolation-filters="sRGB"><feFlood flood-color="#fff" result="bg"/><feBlend in="SourceGraphic" in2="bg"/></filter><mask id="mask-7" x="13.16" y="26.28" width="295.58" height="7.76" maskUnits="userSpaceOnUse"><g class="cls-3"><path class="cls-4" d="M308.73,30.16c0,2.15-.65,3.88-1.45,3.88H14.6c-.8,0-1.45-1.73-1.45-3.88h0c0-2.15.65-3.88,1.45-3.88H307.29c.8,0,1.45,1.73,1.45,3.88Z"/></g></mask><linearGradient id="linear-gradient-18" x1="18.16" y1="30.16" x2="286.7" y2="30.16" xlink:href="#linear-gradient-17"/><filter id="luminosity-noclip-8" x="13.16" y="26.26" width="295.58" height="1.19" filterUnits="userSpaceOnUse" color-interpolation-filters="sRGB"><feFlood flood-color="#fff" result="bg"/><feBlend in="SourceGraphic" in2="bg"/></filter><mask id="mask-8" x="13.16" y="26.26" width="295.58" height="1.19" maskUnits="userSpaceOnUse"><g class="cls-5"><path class="cls-6" d="M308.73,26.85c0,.33-.65.59-1.45.59H14.6c-.8,0-1.45-.27-1.45-.59h0c0-.33.65-.59,1.45-.59H307.29c.8,0,1.45.27,1.45.59Z"/></g></mask><linearGradient id="linear-gradient-19" x1="18.16" y1="26.85" x2="286.7" y2="26.85" xlink:href="#linear-gradient-17"/><radialGradient id="radial-gradient-8" cx="25.35" cy="-48.5" r="325.14" gradientUnits="userSpaceOnUse"><stop offset="0.18" stop-color="#e2ecf3"/><stop offset="0.69" stop-color="#8ea6b8"/><stop offset="1" stop-color="#899ea8"/></radialGradient><linearGradient id="linear-gradient-20" x1="91.74" y1="78.69" x2="230.61" y2="78.69" gradientUnits="userSpaceOnUse"><stop offset="0.18" stop-color="#e2ecf3"/><stop offset="0.41" stop-color="#899ea8"/><stop offset="0.6" stop-color="#899ea8"/><stop offset="1" stop-color="#e2ecf3"/></linearGradient><linearGradient id="linear-gradient-21" x1="248.36" y1="66.39" x2="203.16" y2="109.44" gradientUnits="userSpaceOnUse"><stop offset="0.04" stop-color="#fff"/><stop offset="0.05" stop-color="#eeeff0"/><stop offset="0.06" stop-color="#c1c5c8"/><stop offset="0.08" stop-color="#9aa0a5"/><stop offset="0.1" stop-color="#7a8389"/><stop offset="0.12" stop-color="#626c74"/><stop offset="0.14" stop-color="#515c64"/><stop offset="0.16" stop-color="#46525b"/><stop offset="0.19" stop-color="#434f58"/><stop offset="0.25" stop-color="#4b565f"/><stop offset="0.35" stop-color="#616b72"/><stop offset="0.47" stop-color="#848c92"/><stop offset="0.6" stop-color="#b5babd"/><stop offset="0.75" stop-color="#f3f4f4"/><stop offset="0.78" stop-color="#fff"/></linearGradient><linearGradient id="linear-gradient-22" x1="48.78" y1="89.12" x2="73.09" y2="117.26" gradientUnits="userSpaceOnUse"><stop offset="0" stop-color="#fff"/><stop offset="0.01" stop-color="#eeeff0"/><stop offset="0.02" stop-color="#c1c5c8"/><stop offset="0.04" stop-color="#9aa0a5"/><stop offset="0.06" stop-color="#7a8389"/><stop offset="0.08" stop-color="#626c74"/><stop offset="0.11" stop-color="#515c64"/><stop offset="0.13" stop-color="#46525b"/><stop offset="0.16" stop-color="#434f58"/><stop offset="0.2" stop-color="#4b565f"/><stop offset="0.28" stop-color="#616b72"/><stop offset="0.37" stop-color="#848c92"/><stop offset="0.47" stop-color="#b5babd"/><stop offset="0.58" stop-color="#f3f4f4"/><stop offset="0.6" stop-color="#fff"/></linearGradient><linearGradient id="linear-gradient-23" x1="263.72" y1="59.76" x2="280.4" y2="80.53" gradientUnits="userSpaceOnUse"><stop offset="0" stop-color="#fff"/><stop offset="0.01" stop-color="#eeeff0"/><stop offset="0.04" stop-color="#c1c5c8"/><stop offset="0.08" stop-color="#9aa0a5"/><stop offset="0.12" stop-color="#7a8389"/><stop offset="0.15" stop-color="#626c74"/><stop offset="0.19" stop-color="#515c64"/><stop offset="0.23" stop-color="#46525b"/><stop offset="0.28" stop-color="#434f58"/><stop offset="0.34" stop-color="#4b565f"/><stop offset="0.43" stop-color="#616b72"/><stop offset="0.54" stop-color="#848c92"/><stop offset="0.67" stop-color="#b5babd"/><stop offset="0.81" stop-color="#f3f4f4"/><stop offset="0.84" stop-color="#fff"/></linearGradient><linearGradient id="linear-gradient-24" x1="55.9" y1="92.36" x2="126.72" y2="43.4" gradientUnits="userSpaceOnUse"><stop offset="0.02" stop-color="#fff"/><stop offset="0.02" stop-color="#f6f7f7"/><stop offset="0.03" stop-color="#dde0e1"/><stop offset="0.05" stop-color="#b5babe"/><stop offset="0.06" stop-color="#7f878d"/><stop offset="0.08" stop-color="#434f58"/><stop offset="0.16" stop-color="#445059"/><stop offset="0.34" stop-color="#4d5860"/><stop offset="0.42" stop-color="#59636a"/><stop offset="0.56" stop-color="#788086"/><stop offset="0.74" stop-color="#abb0b4"/><stop offset="0.96" stop-color="#f0f1f2"/><stop offset="1" stop-color="#fff"/></linearGradient><radialGradient id="radial-gradient-9" cx="140.37" cy="-20.92" fx="76.79581810333694" fy="59.91850335569106" r="256.83" gradientUnits="userSpaceOnUse"><stop offset="0" stop-color="#7c857a"/><stop offset="0.51" stop-color="#9faaa4"/><stop offset="0.94" stop-color="#b5bfbc"/></radialGradient><filter id="luminosity-noclip-9" x="42.96" y="61.44" width="229.26" height="35.71" filterUnits="userSpaceOnUse" color-interpolation-filters="sRGB"><feFlood flood-color="#fff" result="bg"/><feBlend in="SourceGraphic" in2="bg"/></filter><mask id="mask-9" x="42.96" y="61.44" width="229.26" height="35.71" maskUnits="userSpaceOnUse"><g class="cls-7"><path class="cls-8" d="M272.22,95.07a2.14,2.14,0,0,1-2.2,2.07H45.16A2.13,2.13,0,0,1,43,95.07V63.51a2.14,2.14,0,0,1,2.2-2.08H270a2.14,2.14,0,0,1,2.2,2.08Z"/></g></mask><radialGradient id="radial-gradient-10" cx="150.66" cy="-164.07" r="228.45" gradientTransform="translate(0 42.65) scale(1 0.97)" gradientUnits="userSpaceOnUse"><stop offset="0" stop-color="#7c857a"/><stop offset="0.35" stop-color="#7e877c"/><stop offset="0.55" stop-color="#858e84"/><stop offset="0.7" stop-color="#919a92"/><stop offset="0.84" stop-color="#a1aba5"/><stop offset="0.95" stop-color="#b7c2be"/><stop offset="1" stop-color="#c1ccca"/></radialGradient><radialGradient id="radial-gradient-11" cx="157.35" cy="81.1" r="87.44" xlink:href="#radial-gradient-8"/><radialGradient id="radial-gradient-12" cx="23.48" cy="43.6" r="245.09" xlink:href="#radial-gradient-4"/><radialGradient id="radial-gradient-13" cx="298.33" cy="109.71" r="11.85" gradientUnits="userSpaceOnUse"><stop offset="0.7"/><stop offset="0.86" stop-color="#9eadb2"/><stop offset="0.86" stop-color="#a8b5ba"/><stop offset="0.87" stop-color="#c3cccf"/><stop offset="0.88" stop-color="#d9dfe1"/><stop offset="0.89" stop-color="#eaedee"/><stop offset="0.91" stop-color="#f6f8f8"/><stop offset="0.93" stop-color="#fdfdfd"/><stop offset="0.98" stop-color="#fff"/></radialGradient><radialGradient id="radial-gradient-14" cx="285.89" cy="103.7" r="10" gradientTransform="translate(11.07 7.07) scale(1.01 1)" gradientUnits="userSpaceOnUse"><stop offset="0.7"/><stop offset="0.86" stop-color="#9eadb2"/></radialGradient><linearGradient id="linear-gradient-25" x1="307.18" y1="106.29" x2="290.15" y2="113.48" gradientUnits="userSpaceOnUse"><stop offset="0" stop-color="#738289"/><stop offset="0.2" stop-color="#9dafb8"/><stop offset="0.31" stop-color="#738289"/><stop offset="0.42" stop-color="#cedbdd"/><stop offset="0.62" stop-color="#9bb2c1"/><stop offset="0.72" stop-color="#9eaeb0"/><stop offset="0.8" stop-color="#c5e0f3"/><stop offset="0.97" stop-color="#738289"/></linearGradient><linearGradient id="linear-gradient-26" x1="288.77" y1="100.94" x2="306.67" y2="118.84" xlink:href="#linear-gradient-25"/><radialGradient id="radial-gradient-15" cx="299.55" cy="111.46" r="9.91" gradientUnits="userSpaceOnUse"><stop offset="0.67" stop-color="#fff"/><stop offset="0.75" stop-color="#fdfdfe"/><stop offset="0.79" stop-color="#f6f8f8"/><stop offset="0.81" stop-color="#ebeeef"/><stop offset="0.83" stop-color="#dadfe1"/><stop offset="0.84" stop-color="#c4cdd0"/><stop offset="0.85" stop-color="#a9b6bb"/><stop offset="0.86" stop-color="#9eadb2"/></radialGradient><filter id="luminosity-noclip-10" x="291.22" y="103.04" width="15.87" height="16.22" filterUnits="userSpaceOnUse" color-interpolation-filters="sRGB"><feFlood flood-color="#fff" result="bg"/><feBlend in="SourceGraphic" in2="bg"/></filter><mask id="mask-10" x="291.22" y="103.04" width="15.87" height="16.22" maskUnits="userSpaceOnUse"><g class="cls-9"><ellipse class="cls-10" cx="299.16" cy="111.15" rx="7.93" ry="8.11"/></g></mask><radialGradient id="radial-gradient-16" cx="301.74" cy="114.44" r="11.64" gradientUnits="userSpaceOnUse"><stop offset="0.32" stop-color="#9eadb2"/><stop offset="0.47" stop-color="#afbcc0"/><stop offset="0.78" stop-color="#dce1e3"/><stop offset="1" stop-color="#fff"/></radialGradient><radialGradient id="radial-gradient-17" cx="292.62" cy="106.46" r="14.57" gradientUnits="userSpaceOnUse"><stop offset="0.08" stop-color="#fff"/><stop offset="0.16" stop-color="#f6f8f8"/><stop offset="0.28" stop-color="#dee3e5"/><stop offset="0.43" stop-color="#b7c2c6"/><stop offset="0.51" stop-color="#9eadb2"/><stop offset="0.92"/></radialGradient><radialGradient id="radial-gradient-18" cx="292.78" cy="106.55" r="14.47" xlink:href="#radial-gradient-17"/></defs><title>balanza</title><g class="cls-11"><g id="Capa_2" data-name="Capa 2"><g id="Capa_1-2" data-name="Capa 1"><g id="balanza"><g id="estructura-balanza"><path class="cls-12" d="M23.22,34s-4.3,9.55-5.17,12.1c-.58,1.68,3.95,1.23,11.66,1.23S293.41,50.62,296,50.62s3.68.79,1.05-6.58a102.94,102.94,0,0,0-4.47-9.73Z"/><path class="cls-13" d="M32.83,126.38a1.07,1.07,0,0,1-1.07,1.07H6.88a1.07,1.07,0,0,1-1.07-1.07v-4.55a1.07,1.07,0,0,1,1.07-1.07H31.76a1.07,1.07,0,0,1,1.07,1.07Z"/><path class="cls-14" d="M308.81,126.38a1.07,1.07,0,0,1-1.07,1.07H282.86a1.07,1.07,0,0,1-1.07-1.07v-4.55a1.07,1.07,0,0,1,1.07-1.07h24.88a1.07,1.07,0,0,1,1.07,1.07Z"/><path class="cls-15" d="M32.83,126.38a1.07,1.07,0,0,1-1.07,1.07H6.88a1.07,1.07,0,0,1-1.07-1.07v-4.55a1.07,1.07,0,0,1,1.07-1.07H31.76a1.07,1.07,0,0,1,1.07,1.07Z"/><path class="cls-16" d="M308.81,126.38a1.07,1.07,0,0,1-1.07,1.07H282.86a1.07,1.07,0,0,1-1.07-1.07v-4.55a1.07,1.07,0,0,1,1.07-1.07h24.88a1.07,1.07,0,0,1,1.07,1.07Z"/><path class="cls-17" d="M316.78,119.09c.92,2.95-.31,4.12-3.29,4.12H5.66c-4,.11-6.49-.48-5.4-4.12L17.61,47.58c1-4,2.42-4.12,5.4-4.12H292.78c3.26.06,4.32.15,5.4,4.12Z"/><polygon class="cls-18" points="22.43 33.9 21.84 41.96 293.38 41.96 293.03 32.61 22.43 33.9"/><polygon class="cls-19" points="22.43 33.9 21.84 41.96 293.38 41.96 293.03 32.61 22.43 33.9"/><path class="cls-20" d="M309.4,23.49c0,1.18-2.56,12.39-3.74,12.39H12.73c-1.18,0-3.86-10.74-3.86-11.93L20.32,2.14C20.79.93,21.28,0,22.46,0H296.31c1.18,0,1.4.93,2.14,2.14Z"/><path class="cls-21" d="M298.76,20.21c.3.68-.1,1-1.06,1H22.86c-1.29,0-2.08-.11-1.73-1L26.69,3.72c.31-.91.78-1,1.73-1H291.07c1,0,1.39,0,1.73,1Z"/><path class="cls-22" d="M294.08,18.71c.29.58-.1.81-1,.81H28.22c-1.29,0-2.07-.09-1.72-.81l3.44-14c.31-.78.77-.8,1.72-.8H287.84c1,0,1.37,0,1.72.8Z"/><rect class="cls-23" x="8.4" y="22.91" width="301.62" height="13.36" rx="2.14" ry="2.14"/><path class="cls-24" d="M23.8,30.08a64.67,64.67,0,0,1,3.34-7.17H10.54A2.14,2.14,0,0,0,8.4,25v9.08a2.14,2.14,0,0,0,2.14,2.14H21.91A39,39,0,0,1,23.8,30.08Z"/><path class="cls-25" d="M307.88,22.91H291.54A10.72,10.72,0,0,1,294.21,26a11.68,11.68,0,0,1,.42,10.3h13.24A2.14,2.14,0,0,0,310,34.13V25A2.14,2.14,0,0,0,307.88,22.91Z"/><path class="cls-26" d="M298.44,2.14c-.73-1.2-1-2.14-2.14-2.14H22.46c-1.18,0-1.67.93-2.14,2.14L9.14,23.44a2.13,2.13,0,0,1,1.4-.53H307.88a2.14,2.14,0,0,1,1.52.64.36.36,0,0,0,0,0Zm9.17,20.66-296-.06L20.94,2.46l0,0v0c.5-1.3,1.34-2.07,2-2.07L295.72.17a2.08,2.08,0,0,1,1.75,1.17c.12.21.5,1.22.64,1.46C298.12,2.81,307.64,22.79,307.62,22.79Z"/><path class="cls-26" d="M298.44,2.14c-.73-1.2-1-2.14-2.14-2.14H22.46c-1.18,0-1.67.93-2.14,2.14L9.14,23.44a2.13,2.13,0,0,1,1.4-.53H307.88a2.14,2.14,0,0,1,1.52.64.36.36,0,0,0,0,0Zm10.08,20.69-298.1,0L20.56,2.51l.18-.35c.5-1.3,1.32-2,2-2l273,0a2,2,0,0,1,2,.91c.12.21.55,1.19.7,1.43C298.38,2.51,308.55,22.82,308.52,22.82Z"/><rect class="cls-27" x="15.46" y="22.91" width="52.8" height="13.36"/><rect class="cls-28" x="18.97" y="22.91" width="24.39" height="13.36"/><rect class="cls-29" x="230.24" y="22.91" width="71.51" height="13.36"/><rect class="cls-30" x="247.42" y="22.91" width="51.17" height="13.36"/><g class="cls-31"><path class="cls-32" d="M267.55,34.13a1,1,0,0,1-1.05,1H53.64a1,1,0,0,1-1.05-1h0a1,1,0,0,1,1.05-1H266.5a1,1,0,0,1,1.05,1Z"/></g><g class="cls-33"><path class="cls-34" d="M308.73,30.16c0,2.15-.65,3.88-1.45,3.88H14.6c-.8,0-1.45-1.73-1.45-3.88h0c0-2.15.65-3.88,1.45-3.88H307.29c.8,0,1.45,1.73,1.45,3.88Z"/></g><g class="cls-35"><path class="cls-36" d="M308.73,26.85c0,.33-.65.59-1.45.59H14.6c-.8,0-1.45-.27-1.45-.59h0c0-.33.65-.59,1.45-.59H307.29c.8,0,1.45.27,1.45.59Z"/></g><path class="cls-37" d="M274.08,54.28H40.62A4.12,4.12,0,0,0,36.5,58.4V99a4.13,4.13,0,0,0,4.12,4.12H274.08A4.12,4.12,0,0,0,278.2,99V58.4A4.12,4.12,0,0,0,274.08,54.28Zm-1,41.31a2.22,2.22,0,0,1-2.22,2.22H43.8a2.22,2.22,0,0,1-2.22-2.22V61.8a2.22,2.22,0,0,1,2.22-2.22H270.9a2.22,2.22,0,0,1,2.22,2.22Z"/><path class="cls-38" d="M274.08,54.28H40.62A4.12,4.12,0,0,0,36.5,58.4V99a4.13,4.13,0,0,0,4.12,4.12H274.08A4.12,4.12,0,0,0,278.2,99V58.4A4.12,4.12,0,0,0,274.08,54.28Zm-1,41.31a2.22,2.22,0,0,1-2.22,2.22H43.8a2.22,2.22,0,0,1-2.22-2.22V61.8a2.22,2.22,0,0,1,2.22-2.22H270.9a2.22,2.22,0,0,1,2.22,2.22Z"/><path class="cls-39" d="M273.12,92.31v3.27a2.22,2.22,0,0,1-2.22,2.22H149.46q-.08,2.65-.2,5.3H274.08A4.12,4.12,0,0,0,278.2,99V92.31Z"/><path class="cls-40" d="M78.42,97.8H43.8a2.22,2.22,0,0,1-2.22-2.22V92.31H36.5V99a4.13,4.13,0,0,0,4.12,4.12h37.8Z"/><path class="cls-41" d="M274.08,54.28H252.54q.07,2.65.13,5.3H270.9a2.22,2.22,0,0,1,2.22,2.22V92.31h5.09V58.4A4.12,4.12,0,0,0,274.08,54.28Z"/><path class="cls-42" d="M175,54.28H40.62A4.12,4.12,0,0,0,36.5,58.4V70.63h5.09V61.8a2.22,2.22,0,0,1,2.22-2.22H175Z"/><rect class="cls-43" x="41.59" y="59.58" width="231.53" height="38.22" rx="2.22" ry="2.22"/><g class="cls-44"><path class="cls-45" d="M272.22,95.07a2.14,2.14,0,0,1-2.2,2.07H45.16A2.13,2.13,0,0,1,43,95.07V63.51a2.14,2.14,0,0,1,2.2-2.08H270a2.14,2.14,0,0,1,2.2,2.08Z"/></g><g class="cls-46"><path class="cls-47" d="M36.5,58.4s0,5.12.12,14.08c0,4.47.08,9.91.13,16.15,0,3.12.05,6.44.08,9.94V99s0,0,0,0l0,.16c0,.21,0,.45.08.65l.18.55c.07.18.19.36.28.54a3.89,3.89,0,0,0,1.87,1.55l.6.18.63.06c.44,0,.92,0,1.39,0h2.85l52.46-.21,60.14-.09,60.14.09,52.46.22h2.85c.45,0,1,0,1.36,0l.69-.07.57-.18a3.87,3.87,0,0,0,1.87-1.55,5.08,5.08,0,0,0,.28-.54l.18-.58a7,7,0,0,0,.11-1.24c0-3.5.06-6.82.08-9.94.05-6.24.1-11.68.14-16.15.07-9,.12-14.08.12-14.08s0,5.12.12,14.08c0,4.47.08,9.91.13,16.15,0,3.12.05,6.44.08,9.94a8,8,0,0,1-.1,1.39l-.21.69a7.25,7.25,0,0,1-.33.65,4.61,4.61,0,0,1-2.22,1.88l-.75.22-.69.07c-.54,0-1,0-1.44,0l-2.85,0-52.46.21-60.14.09-60.14-.09-52.46-.21H41.9c-.48,0-.93,0-1.41,0l-.75-.08-.72-.22a4.6,4.6,0,0,1-2.22-1.88,6.11,6.11,0,0,1-.33-.65l-.21-.72a6.39,6.39,0,0,1-.07-.67l0-.16v-.53c0-3.5.05-6.82.08-9.94.05-6.24.1-11.68.13-16.15C36.46,63.51,36.5,58.4,36.5,58.4Z"/></g><path class="cls-48" d="M23.36,44.42h269.2l1.64-.12a4.57,4.57,0,0,1,3.53,1.87c-1-2.59-2.13-2.66-5-2.71H23c-3,0-4.44.15-5.4,4.12L.26,119.09h0L18.33,48.28C19.07,45.22,20.7,44.42,23.36,44.42Z"/><ellipse class="cls-49" cx="297.47" cy="109.22" rx="11.75" ry="11.94"/><ellipse class="cls-50" cx="298.74" cy="109.9" rx="10.01" ry="10.03"/><circle class="cls-51" cx="298.67" cy="109.88" r="9.56"/><circle class="cls-52" cx="299.2" cy="111.37" r="8.85"/><circle class="cls-53" cx="299.2" cy="111.37" r="8.85"/><g class="cls-54"><ellipse class="cls-55" cx="299.16" cy="111.15" rx="7.93" ry="8.11"/></g><path class="cls-56" d="M299.2,120.22h-.47a9.91,9.91,0,0,1-1.32-.13c-.28-.07-.59-.13-.92-.23a9.59,9.59,0,0,1-1-.4,8.24,8.24,0,0,1-2.25-1.46,9,9,0,0,1-2-2.5,8.72,8.72,0,0,1-1-3.41,9.21,9.21,0,0,1,0-1.89,8.58,8.58,0,0,1,.45-1.89,8.85,8.85,0,0,1,5.42-5.42,9.06,9.06,0,0,1,3.77-.49,8.73,8.73,0,0,1,3.42,1,9,9,0,0,1,2.5,2,8.28,8.28,0,0,1,1.46,2.25,9.6,9.6,0,0,1,.39,1c.09.33.16.65.23.92a9.71,9.71,0,0,1,.14,1.32c0,.3,0,.47,0,.47s0-.16,0-.47a9,9,0,0,0-.18-1.31c-.08-.27-.15-.58-.25-.91a9.76,9.76,0,0,0-.43-1,8.93,8.93,0,0,0-4-4,8.86,8.86,0,0,0-3.31-.92,8.68,8.68,0,0,0-3.64.5,8.69,8.69,0,0,0-5.23,5.22,8.29,8.29,0,0,0-.45,1.81,8.74,8.74,0,0,0,2.74,7.62,8.69,8.69,0,0,0,2.17,1.49,9.42,9.42,0,0,0,1,.43l.91.25a9.58,9.58,0,0,0,1.31.18Z"/><path class="cls-57" d="M299.32,120.22h-.46a9.82,9.82,0,0,1-1.31-.13c-.28-.07-.58-.13-.91-.23a8.42,8.42,0,0,1-1-.39,8.21,8.21,0,0,1-2.24-1.45,8.91,8.91,0,0,1-2-2.48,8.71,8.71,0,0,1-1-3.39,9.06,9.06,0,0,1,0-1.87,8.26,8.26,0,0,1,.45-1.88,8.79,8.79,0,0,1,5.39-5.39,8.94,8.94,0,0,1,3.74-.49,8.63,8.63,0,0,1,3.39,1,9,9,0,0,1,2.48,2,8.26,8.26,0,0,1,1.45,2.24,9.46,9.46,0,0,1,.39,1c.09.33.16.64.22.91a9.47,9.47,0,0,1,.13,1.31l0,.47,0-.47a9.41,9.41,0,0,0-.18-1.3c-.08-.27-.15-.58-.25-.9a8.7,8.7,0,0,0-16.45-.26,8.2,8.2,0,0,0-.44,1.8,8.6,8.6,0,0,0-.05,1.82,8.68,8.68,0,0,0,2.77,5.75,8.54,8.54,0,0,0,2.16,1.48,8.39,8.39,0,0,0,1,.42c.32.1.63.18.9.25a9.45,9.45,0,0,0,1.3.18Z"/></g><g id="numeros"><path id="punto" d="M231,94.53V91.2h3.34v3.33Z"/><path id="gramos" d="M269.43,89.24v4.33L267.88,92V89.63l1-1Zm-1.55-2.13V83l1.55-1.55v6.05l-.58.6Zm-6.82,6.73,1.53-1.55h5l1.53,1.55Zm0-12.69h8.08l-1.53,1.55h-5Zm1.35,8-.78-.77.78-.77h5.39l.76.77-.76.77Zm-1.63-1.65V81.43L262.32,83v4.13l-1,1Z"/><path id="_0d" data-name="0d" d="M242.94,76.26l-2.09,2.09-1.25-1.25V64l3.33,3.33Zm0,14.31-3.33,3.34v-13l1.25-1.29,2.09,2.09ZM257.6,63.46l-3.29,3.33h-10.8l-3.29-3.33Zm0,31.07H240.22l3.29-3.33h10.8Zm.62-17.42L257,78.35l-2.12-2.09V67.38L258.22,64Zm0,16.8-3.33-3.34V81.69L257,79.6l1.21,1.29Z"/><path id="_0c" data-name="0c" d="M210.36,76.26l-2.09,2.09L207,77.11V64l3.33,3.33Zm0,14.31L207,93.91v-13l1.24-1.29,2.09,2.09ZM225,63.46l-3.29,3.33h-10.8l-3.29-3.33Zm0,31.07H207.65l3.29-3.33h10.8Zm.63-17.42-1.22,1.25-2.12-2.09V67.38L225.65,64Zm0,16.8-3.33-3.34V81.69l2.12-2.09,1.22,1.29Z"/><path id="_0b" data-name="0b" d="M188.78,76.26l-2.09,2.09-1.24-1.25V64l3.33,3.33Zm0,14.31-3.33,3.34v-13l1.24-1.29,2.09,2.09Zm14.66-27.11-3.29,3.33h-10.8l-3.29-3.33Zm0,31.07H186.07l3.29-3.33h10.8Zm.62-17.42-1.21,1.25-2.12-2.09V67.38L204.07,64Zm0,16.8-3.33-3.34V81.69l2.12-2.09,1.21,1.29Z"/><path id="_0a" data-name="0a" d="M167.9,76.26l-2.09,2.09-1.24-1.25V64l3.33,3.33Zm0,14.31-3.33,3.34v-13l1.24-1.29,2.09,2.09Zm14.66-27.11-3.29,3.33h-10.8l-3.29-3.33Zm0,31.07H165.19l3.29-3.33h10.8Zm.62-17.42L182,78.35l-2.12-2.09V67.38L183.19,64Zm0,16.8-3.33-3.34V81.69L182,79.6l1.21,1.29Z"/></g></g></g></g></g></svg>