<svg xmlns="http://www.w3.org/2000/svg" viewBox="0 0 39.33 50.11"><defs><style>.cls-1{fill:#5aa253;}</style></defs><title>check_1</title><g id="Capa_2" data-name="Capa 2"><g id="Capa_1-2" data-name="Capa 1"><path class="cls-1" d="M39.33,2.35C37.94,5,35.88,7.09,34.21,9.5A75.32,75.32,0,0,0,25.76,26C24,30.57,22.59,35.29,20.87,39.9a27.67,27.67,0,0,1-3.6,7.17,6.73,6.73,0,0,1-5.7,3A6.44,6.44,0,0,1,7.2,48.27a24.05,24.05,0,0,1-5.54-8.11A16.9,16.9,0,0,1,0,33.58a4.89,4.89,0,0,1,1.88-4.25,2.72,2.72,0,0,1,4,.23A13.25,13.25,0,0,1,8.17,33.1c.73,1.46,1.44,2.93,2.17,4.38a7.28,7.28,0,0,0,1.19,1.72l1-2.23c2.64-6.17,5.22-12.36,8.24-18.36A72.25,72.25,0,0,1,28.22,6.31a21,21,0,0,1,5.52-5.17A15,15,0,0,1,36.37,0H37.7a1.86,1.86,0,0,1,1.63,1.43Z"/></g></g></svg>