<svg xmlns="http://www.w3.org/2000/svg" viewBox="0 0 45.99 50.44"><defs><style>.cls-1{fill:#c92123;}.cls-2{fill:#ec2629;}</style></defs><title>check</title><g id="Capa_2" data-name="Capa 2"><g id="Capa_1-2" data-name="Capa 1"><g id="X"><path class="cls-1" d="M38,50.44c-.17-.21-.43-.15-.65-.2A4.8,4.8,0,0,1,33.8,47.5q-2.89-6.21-6.13-12.25A53.61,53.61,0,0,0,24,29.17c-.63-.87-.76-.87-1.41,0a26.4,26.4,0,0,0-2.32,4.13c-2.08,4.16-4.14,8.33-6.22,12.49a18.26,18.26,0,0,1-1.93,3.12,3.87,3.87,0,0,1-1,1,1.21,1.21,0,0,1-1.06.2,48.42,48.42,0,0,1-7-2.66,8.3,8.3,0,0,1-1.85-1.25,2.1,2.1,0,0,1-.2-3.3c4.21-4.92,8.31-9.94,12.09-15.21a36.67,36.67,0,0,0,2.54-4,1.47,1.47,0,0,0-.19-1.85c-1.57-1.89-3.34-3.59-5.08-5.3-2.95-2.9-6-5.69-8.82-8.72A11,11,0,0,1,0,5.63V5a18.39,18.39,0,0,1,1.35-2.6A7,7,0,0,1,3,.64,3,3,0,0,1,6.68.6a6.71,6.71,0,0,1,1,.9c5,5,10.22,9.79,15.38,14.63.26.24.39.13.58,0a50,50,0,0,0,3.47-3.81,114.43,114.43,0,0,1,8.79-9.45C36.78,2,37.68,1.31,38.59.61A2.45,2.45,0,0,1,40.9.17a7.76,7.76,0,0,1,4.65,3.66,1.74,1.74,0,0,1-.37,2.51c-3.49,3.41-7,6.8-10.49,10.22a62.11,62.11,0,0,0-4.5,4.81c-1,1.25-1.05,1.4-.23,2.77,1.39,2.33,3.1,4.43,4.7,6.6,3.46,4.69,6.7,9.54,10.11,14.27a7.13,7.13,0,0,1,1.12,2.28,1.91,1.91,0,0,1-1.5,2.63c-.71.19-1.45.22-2.17.33a2.1,2.1,0,0,0-1,.19h-.41c-.06-.06-.13-.05-.2-.05s-.15,0-.2.05H39.3a.78.78,0,0,0-.61,0Z"/><path class="cls-2" d="M39.59,49.63a8,8,0,0,1-3-.49,3.56,3.56,0,0,1-1.87-1.71c-1.33-2.7-2.59-5.43-4-8.1A100.42,100.42,0,0,0,25.06,29.2c-.24-.35-.48-.7-.75-1A1.11,1.11,0,0,0,22.56,28,6.89,6.89,0,0,0,21.3,29.7c-1.59,2.7-2.81,5.58-4.23,8.37-1.24,2.42-2.42,4.87-3.66,7.29a15,15,0,0,1-2.26,3.49,1,1,0,0,1-1.27.29,50.26,50.26,0,0,1-6.4-2.47,5.59,5.59,0,0,1-2-1.49,1.19,1.19,0,0,1,0-1.58c.79-1,1.61-1.88,2.4-2.83,1-1.22,2-2.45,3-3.69,1.49-1.86,3-3.72,4.43-5.62a64.46,64.46,0,0,0,5-7.34,2.37,2.37,0,0,0-.38-3c-1.79-2-3.73-4-5.68-5.85-.83-.8-1.64-1.63-2.49-2.41-1.61-1.49-3.16-3-4.69-4.61a23,23,0,0,1-2-2.33.91.91,0,0,1-.12-1A8.34,8.34,0,0,1,3.35,1.42a2.33,2.33,0,0,1,3.27.16c.39.38.77.77,1.16,1.15C9.37,4.3,11,5.88,12.58,7.44s3.42,3.25,5.16,4.85c1.42,1.31,2.86,2.6,4.25,3.95.29.28.61.54.91.81a.61.61,0,0,0,.87,0,13.4,13.4,0,0,0,1.94-1.87c.81-.87,1.54-1.8,2.32-2.7,1.18-1.36,2.35-2.71,3.55-4.05s2.57-2.67,3.87-4a31.09,31.09,0,0,1,3.81-3.29A1.58,1.58,0,0,1,40.75,1a6.92,6.92,0,0,1,4.11,3.35,1,1,0,0,1-.23,1.44c-2.31,2.25-4.6,4.53-7,6.74-1.91,1.79-3.75,3.65-5.58,5.53a26.51,26.51,0,0,0-3.27,3.82,1.62,1.62,0,0,0-.14,1.55,15.69,15.69,0,0,0,2.09,3.48c2.18,3.07,4.57,6,6.64,9.12,2,3,4.15,5.82,6.2,8.75a8.18,8.18,0,0,1,1.55,3.12.94.94,0,0,1-.47,1.07,2.92,2.92,0,0,1-1.31.37A31.81,31.81,0,0,1,39.59,49.63Z"/></g></g></g></svg>