<svg xmlns="http://www.w3.org/2000/svg" viewBox="0 0 423.66 101.23"><defs><style>.cls-1{font-size:63.82px;}.cls-1,.cls-2{font-family:Catamaran-Bold, Catamaran;}.cls-1,.cls-2,.cls-4,.cls-5{font-weight:700;}.cls-2{font-size:57.77px;}.cls-3{fill:#474747;}.cls-4{font-size:45.72px;}.cls-4,.cls-5{font-family:Catamaran-ExtraBold, Catamaran;}.cls-5{font-size:35.85px;}.cls-6{stroke:#000;stroke-miterlimit:10;stroke-width:5px;}</style></defs><title>dInversoAVolumen</title><g id="Capa_2" data-name="Capa 2"><g id="Capa_1-2" data-name="Capa 1"><g id="dInversoAVolumen"><text class="cls-1" transform="translate(0 67.13)">D</text><text class="cls-2" transform="translate(48.07 62.76)">=</text><path class="cls-3" d="M108.15,54.09V44a3.54,3.54,0,0,1,2.5-.44h42.73c2.41,0,2.41,0,2.41-2.35,0-2.55,0-5.11,0-7.66,0-2.07.46-2.28,2.22-1.2,8.43,5.19,16.94,10.25,25.38,15.43a4.13,4.13,0,0,1,1.34,1,.57.57,0,0,1,0,.52,13,13,0,0,1-3.34,2.39c-7.54,4.48-15,9.15-22.51,13.61-.76.45-1.56,1.34-2.48.84s-.61-1.74-.63-2.67c0-2.24,0-4.49,0-6.73,0-2-.14-2.18-2.16-2.18h-43.3A3,3,0,0,1,108.15,54.09Z"/><path class="cls-3" d="M108.15,54.09h46c2.14,0,2.14,0,2.14,2.09,0,2.86,0,5.72,0,8.58,0,1.08.09,1.57,1.34.82,5-3,9.94-6,14.88-9.1,4-2.51,8.18-4.87,12.28-7.29,1.15-.11,1.9.68,2.75,1.25l-16,9.75-17,10.29-.7.41c0-4,0-7.72,0-11.48,0-2,0-2-2-2h-41.5c-2.15,0-2.15,0-2.15-2.13C108.13,54.91,108.14,54.5,108.15,54.09Z"/><path class="cls-3" d="M184.73,48.91c-3.42-1.67-6.55-3.86-9.82-5.79-5.61-3.3-11.13-6.75-16.71-10.1-.58-.35-1-1.09-2-1,0,3.41-.06,6.81,0,10.2,0,1.36-.29,1.82-1.75,1.81-15.45-.06-30.91,0-46.36,0-.13-3.06-.13-3.06,2.82-3.06,13.68,0,27.36,0,41,0,1.37,0,1.83-.31,1.79-1.75-.11-3.86,0-7.72,0-11.91l6.86,4.16,25,15.17c.35.21.66.47,1,.7C187,48.48,186.37,49.06,184.73,48.91Z"/><path class="cls-3" d="M184.73,48.91c.69-.45,2.06-.1,1.88-1.59.31.16.63.3.93.48,2.23,1.34,2.23,1.35,0,2.64-1.13.06-1.79-.92-2.75-1.25Q184.74,49.05,184.73,48.91Z"/><text class="cls-4" transform="translate(298.08 38.4)">1</text><text class="cls-5" transform="translate(224.42 87.25)">VOLUMEN</text><line class="cls-6" x1="199.75" y1="51.58" x2="423.66" y2="51.58"/></g></g></g></svg>