<svg xmlns="http://www.w3.org/2000/svg" viewBox="0 0 46.37 76.47"><defs><style>.cls-1{fill:#03935c;}</style></defs><title>flecha-arriba</title><g id="Capa_2" data-name="Capa 2"><g id="Capa_1-2" data-name="Capa 1"><path class="cls-1" d="M17.6,76.37l10.76.06c.67-.7.47-1.56.48-2.36q.14-19.56.25-39.12c0-.38,0-.77,0-1.15,0-2.27,0-2.27,2.51-2.26,2.72,0,5.43.06,8.15,0,2.2,0,2.43-.42,1.29-2.09-5.48-8-10.81-16-16.27-24A4,4,0,0,0,23.7,4.18a.68.68,0,0,0-.55,0,12.45,12.45,0,0,0-2.56,3.13c-4.81,7.08-9.82,14-14.6,21.13-.48.72-1.43,1.46-.91,2.33s1.84.59,2.83.61c2.39.05,4.77,0,7.16.06,2.17,0,2.31.14,2.31,2.05q-.06,12-.14,24.08-.05,8.36-.1,16.73A2.57,2.57,0,0,0,17.6,76.37Z"/><path class="cls-1" d="M17.6,76.37q.13-21.66.26-43.32c0-2,0-2-2.21-2-3,0-6.08,0-9.13,0-1.15,0-1.67-.1-.86-1.27,3.2-4.68,6.48-9.33,9.76-14C18.11,11.93,20.65,8,23.25,4.2c.13-1.09-.71-1.8-1.31-2.6l-10.46,15L.44,32.58,0,33.24l12.21.07c2.08,0,2.08,0,2.07,1.91Q14.16,54.78,14,74.34c0,2,0,2,2.25,2Z"/><path class="cls-1" d="M23.56,4.22c1.76,3.24,4.07,6.2,6.1,9.3C33.14,18.82,36.78,24,40.31,29.33c.37.55,1.15.92,1.07,1.85-3.62,0-7.24,0-10.86-.09-1.45,0-1.94.27-1.94,1.64,0,14.57-.14,29.13-.23,43.7,3.26.15,3.26.15,3.27-2.64.08-12.89.18-25.79.2-38.68,0-1.29.34-1.73,1.88-1.68,4.11.13,8.22.08,12.66.11L42,27,26,3.4c-.22-.33-.49-.63-.74-.94C24,2,23.41,2.67,23.56,4.22Z"/><path class="cls-1" d="M23.56,4.22c.48-.65.12-1.94,1.7-1.76-.17-.29-.32-.6-.51-.88-1.42-2.11-1.42-2.11-2.81,0-.07,1.06,1,1.69,1.31,2.6Z"/></g></g></svg>