<svg xmlns="http://www.w3.org/2000/svg" viewBox="0 0 53.8 46.37"><defs><style>.cls-1{fill:#535454;}</style></defs><title>flecha-derecha</title><g id="Capa_2" data-name="Capa 2"><g id="Capa_1-2" data-name="Capa 1"><path class="cls-1" d="M0,28.33.09,17.57c.5-.66,1.1-.46,1.66-.45l27.53.16h.81c1.6,0,1.6,0,1.62-2.49,0-2.72,0-5.43.06-8.15,0-2.2.32-2.43,1.48-1.27,5.56,5.56,11.17,11,16.73,16.52A3.33,3.33,0,0,1,50.87,23a1,1,0,0,1,0,.55,10.23,10.23,0,0,1-2.23,2.53c-5,4.73-10,9.67-15,14.38-.51.48-1,1.42-1.65.88s-.4-1.85-.4-2.84c0-2.39,0-4.77,0-7.16,0-2.17-.08-2.32-1.42-2.33l-16.94-.11L1.47,28.81C1,28.81.45,28.93,0,28.33Z"/><path class="cls-1" d="M0,28.33l30.48.19c1.42,0,1.42,0,1.41,2.23,0,3,0,6.08-.06,9.13,0,1.15.05,1.67.89.87,3.33-3.16,6.63-6.38,9.93-9.62,2.7-2.65,5.46-5.14,8.19-7.71.77-.11,1.26.73,1.81,1.34L42,35.07,30.65,45.94l-.47.43c0-4.22.05-8.21.07-12.21,0-2.08,0-2.08-1.32-2.09L1.41,31.91C0,31.9,0,31.9,0,29.63,0,29.2,0,28.76,0,28.33Z"/><path class="cls-1" d="M50.84,23.12c-2.26-1.79-4.32-4.14-6.48-6.2-3.7-3.53-7.34-7.23-11-10.81C33,5.73,32.71,4.94,32.06,5c0,3.62-.08,7.24,0,10.86,0,1.45-.21,1.93-1.17,1.92-10.25-.12-20.5-.16-30.75-.23C0,14.31,0,14.31,2,14.33c9.07.06,18.14.09,27.21.2.91,0,1.22-.32,1.2-1.86,0-4.11,0-8.22.05-12.67L35,4.45,51.44,20.68c.23.22.44.5.65.75C52.38,22.68,51.93,23.29,50.84,23.12Z"/><path class="cls-1" d="M50.84,23.12c.46-.48,1.37-.1,1.26-1.68.2.17.42.32.61.51,1.47,1.44,1.47,1.44,0,2.81-.75.05-1.18-1-1.81-1.34Q50.85,23.27,50.84,23.12Z"/></g></g></svg>