<svg xmlns="http://www.w3.org/2000/svg" xmlns:xlink="http://www.w3.org/1999/xlink" viewBox="0 0 79.66 555.41"><defs><style>.cls-1{fill:none;}.cls-2{fill:#231f20;}.cls-3{isolation:isolate;}.cls-4{fill:#d6c85f;}.cls-5{fill:url(#Degradado_sin_nombre_47);}.cls-6{opacity:0.05;}.cls-7{stroke:#999;stroke-miterlimit:10;fill:url(#_10_ppp_10_);}.cls-8{fill:#82a8f4;}.cls-9{fill:#fcbef8;}.cls-10{fill:#aee2f4;opacity:0.8;}.cls-11{fill:#efa759;}.cls-12{fill:url(#Degradado_sin_nombre_14);}.cls-13,.cls-14,.cls-15{mix-blend-mode:screen;}.cls-13{fill:url(#radial-gradient);}.cls-14{fill:url(#radial-gradient-2);}.cls-15{fill:url(#radial-gradient-3);}</style><radialGradient id="Degradado_sin_nombre_47" cx="38.45" cy="38.45" r="37.95" gradientTransform="translate(0 3.85) scale(1 0.9)" gradientUnits="userSpaceOnUse"><stop offset="0" stop-color="#e6e6e6"/><stop offset="0.74" stop-color="#e7e7e7"/><stop offset="1" stop-color="#d3d0cf"/></radialGradient><pattern id="_10_ppp_10_" data-name="10 ppp 10%" width="28.8" height="28.8" patternUnits="userSpaceOnUse" viewBox="0 0 28.8 28.8"><rect class="cls-1" width="28.8" height="28.8"/><circle class="cls-2" cx="28.8" cy="28.8" r="0.72"/><circle class="cls-2" cx="14.4" cy="28.8" r="0.72"/><circle class="cls-2" cx="28.8" cy="14.4" r="0.72"/><circle class="cls-2" cx="14.4" cy="14.4" r="0.72"/><circle class="cls-2" cx="7.2" cy="21.6" r="0.72"/><circle class="cls-2" cx="21.6" cy="21.6" r="0.72"/><circle class="cls-2" cx="7.2" cy="7.2" r="0.72"/><circle class="cls-2" cx="21.6" cy="7.2" r="0.72"/><circle class="cls-2" cy="28.8" r="0.72"/><circle class="cls-2" cy="14.4" r="0.72"/><circle class="cls-2" cx="28.8" r="0.72"/><circle class="cls-2" cx="14.4" r="0.72"/><circle class="cls-2" r="0.72"/></pattern><linearGradient id="Degradado_sin_nombre_14" x1="41.45" y1="553.51" x2="41.45" y2="502.49" gradientUnits="userSpaceOnUse"><stop offset="0" stop-color="#4d4d4d"/><stop offset="0.44" stop-color="#767676"/><stop offset="0.79" stop-color="#8f8f8f"/><stop offset="1" stop-color="#999"/></linearGradient><radialGradient id="radial-gradient" cx="-5989.98" cy="3580.76" r="3.26" gradientTransform="matrix(0, -1.9, 1.31, 0, -4662.97, -10864.88)" gradientUnits="userSpaceOnUse"><stop offset="0.13" stop-color="#e6e6e6"/><stop offset="0.22" stop-color="#d7d7d7"/><stop offset="0.39" stop-color="#b1b1b1"/><stop offset="0.62" stop-color="#727272"/><stop offset="0.91" stop-color="#1d1d1d"/><stop offset="1"/></radialGradient><radialGradient id="radial-gradient-2" cx="-5995.19" cy="3576.92" r="4.97" gradientTransform="matrix(0, -1.9, 1.31, 0, -4650.35, -10866.64)" xlink:href="#radial-gradient"/><radialGradient id="radial-gradient-3" cx="-5995.68" cy="3577.01" r="1.76" gradientTransform="matrix(0, -1.9, 1.31, 0, -4649.14, -10867.85)" xlink:href="#radial-gradient"/></defs><title>fluidos</title><g class="cls-3"><g id="Capa_2" data-name="Capa 2"><g id="Capa_1-2" data-name="Capa 1"><g id="probeta"><path id="glicerina" class="cls-4" d="M1.44,65.5V224c.79,2.15,3.38,5.46,11.87,6H66s11.49-.51,13.67-5.82V65.5s-20.3,4.17-37.8,4.56C21.31,70.53,1.44,65.5,1.44,65.5Z"/><g id="bola-icopor"><circle id="textura" class="cls-5" cx="38.45" cy="38.45" r="37.95"/><g id="textura-2" data-name="textura" class="cls-6"><circle id="punteado" class="cls-7" cx="38.45" cy="38.45" r="37.95"/></g></g><path id="alcohol" class="cls-8" d="M1.44,224.5v55.32c.79.77,3.38,2,11.87,2.15H66s11.49-.18,13.67-2.09V224.5Z"/><path id="glicerina-2" data-name="glicerina" class="cls-9" d="M1.44,377.5V483c.79,1.41,3.38,3.57,11.87,3.93H66s11.49-.34,13.67-3.8V377.5s-20.3,4.68-37.8,4.94C21.31,382.75,1.44,377.5,1.44,377.5Z"/><path id="agua" class="cls-10" d="M1.44,271.5V377c.79,1.41,3.38,3.57,11.87,3.93H66s11.49-.34,13.67-3.8V271.5s-20.3,4.68-37.8,4.94C21.31,276.75,1.44,271.5,1.44,271.5Z"/><path id="miel" class="cls-11" d="M1.44,480.5v70.9c.79.92,3.38,2.33,11.87,2.57H66s11.49-.22,13.67-2.48v-71s-20.3,5-37.8,5.19C21.31,485.89,1.44,480.5,1.44,480.5Z"/><g id="balin"><circle class="cls-12" cx="41.45" cy="529.89" r="25.51"/><ellipse class="cls-13" cx="41.83" cy="513.47" rx="5.41" ry="7.82" transform="translate(-459.33 394.14) rotate(-71.95)"/><ellipse class="cls-14" cx="49.45" cy="521.34" rx="8.24" ry="11.92" transform="translate(-461.55 406.81) rotate(-71.95)"/><ellipse class="cls-15" cx="50.79" cy="521.51" rx="2.92" ry="4.22" transform="translate(-460.79 408.2) rotate(-71.95)"/></g></g></g></g></g></svg>