<svg xmlns="http://www.w3.org/2000/svg" viewBox="0 0 1011.13 143.65"><defs><style>.cls-1{font-size:32.95px;}.cls-1,.cls-2,.cls-3,.cls-6{font-family:Catamaran-ExtraBold, Catamaran;font-weight:700;}.cls-2{font-size:38.43px;}.cls-3{font-size:36.31px;}.cls-4,.cls-8{stroke:#000;}.cls-10,.cls-4,.cls-8{stroke-miterlimit:10;}.cls-4{stroke-width:6px;}.cls-5{fill:#024f84;}.cls-6{font-size:56.03px;}.cls-7{font-size:45px;}.cls-7,.cls-9{font-family:Catamaran-Medium, Catamaran;}.cls-10,.cls-8{stroke-width:3px;}.cls-9{font-size:27.04px;}.cls-10{stroke:#f4030f;}</style></defs><title>formula-masa</title><g id="Capa_2" data-name="Capa 2"><g id="Capa_1-2" data-name="Capa 1"><g id="formula-masa"><g id="volumen-x-densidad"><text class="cls-1" transform="translate(0 47.11)">VOLUMEN X DENSIDAD</text><text class="cls-2" transform="translate(457.48 36.2) scale(0.97 1)">MASA</text><text class="cls-3" transform="translate(425.02 83.56)">VOLUMEN</text><line class="cls-4" x1="418.53" y1="47.25" x2="608" y2="47.25"/><path id="traslado3" class="cls-5" d="M190.43,65.78l32.65,11.88-11.72,7.62c22,15.87,68.76,43.94,130.49,50,76.87,7.55,155.43-50.63,155.43-50.63l-1,10.31S412.81,150.07,341.1,143c-65.84-6.47-118.39-39.54-137.22-52.87l-13.22,8.6Z"/><text class="cls-6" transform="translate(376.2 47.06)">=</text></g><text class="cls-7" transform="translate(633 57.19)"><tspan xml:space="preserve">m = 3 ml x 2      = 6 g</tspan></text><line class="cls-8" x1="863" y1="46.04" x2="908.54" y2="46.04"/><text class="cls-9" transform="translate(877.87 34.9)">g</text><text class="cls-9" transform="translate(870.6 72.08)">ml</text><line class="cls-10" x1="789" y1="18.19" x2="743" y2="63.19"/><line class="cls-10" x1="904" y1="49.19" x2="868.22" y2="84.19"/></g></g></g></svg>