<svg xmlns="http://www.w3.org/2000/svg" viewBox="0 0 952.07 182.97"><defs><style>.cls-1{font-size:46.06px;}.cls-1,.cls-10,.cls-2{font-family:Catamaran-Bold, Catamaran;}.cls-1,.cls-10,.cls-11,.cls-12,.cls-13,.cls-2{font-weight:700;}.cls-2{font-size:41.7px;}.cls-14,.cls-3,.cls-7{stroke:#000;}.cls-14,.cls-3,.cls-7,.cls-9{stroke-miterlimit:10;}.cls-3{stroke-width:5px;}.cls-4{font-size:40px;}.cls-4,.cls-5,.cls-6,.cls-8{font-family:Catamaran-Medium, Catamaran;}.cls-5{font-size:50.92px;}.cls-6{font-size:41.74px;}.cls-7,.cls-9{stroke-width:3px;}.cls-8{font-size:27.04px;}.cls-9{stroke:#f4030f;}.cls-10{font-size:39.91px;}.cls-11{font-size:45.12px;}.cls-11,.cls-12,.cls-13{font-family:Catamaran-ExtraBold, Catamaran;}.cls-12{font-size:47.4px;}.cls-13{font-size:56.03px;}.cls-14{stroke-width:6px;}.cls-15{fill:#024f84;}</style></defs><title>formula-volumen</title><g id="Capa_2" data-name="Capa 2"><g id="Capa_1-2" data-name="Capa 1"><g id="formula-volumen"><text class="cls-1" transform="translate(644.07 64.49)">D</text><text class="cls-2" transform="translate(678.76 61.33)">=</text><line class="cls-3" x1="708.07" y1="50.94" x2="804.98" y2="50.94"/><text class="cls-4" transform="translate(735.32 33.97)">6g</text><text class="cls-4" transform="translate(746.9 88.97)">2</text><text class="cls-2" transform="translate(831.76 62.33)">=</text><text class="cls-5" transform="translate(869.75 62.74)">3</text><text class="cls-6" transform="translate(907.07 65.32)">ml</text><line class="cls-7" x1="769.51" y1="88.83" x2="822.61" y2="88.83"/><text class="cls-8" transform="translate(787.94 77.68)">g</text><text class="cls-8" transform="translate(780.66 114.86)">ml</text><line class="cls-9" x1="792.17" y1="1.08" x2="745.97" y2="45.87"/><g id="volumen-masa-densidad"><g id="formula"><text class="cls-10" transform="translate(305.94 103.82)">DENSIDAD</text><text class="cls-11" transform="translate(345.11 48.15) scale(0.97 1)">MASA</text><text class="cls-12" transform="translate(0 75.41)">VOLUMEN</text><text class="cls-13" transform="translate(248.27 74.85)">=</text><line class="cls-14" x1="299.38" y1="61.12" x2="521.84" y2="61.12"/></g><path id="traslado2" class="cls-15" d="M409.07,111l-39,10,12.65,10.12C355.52,146.9,298.45,174,226.57,174c-89.5,0-173.5-76-173.5-76v12s90,73,173.5,73c76.66,0,141-32.18,164.23-45.42L405.07,149Z"/><path id="traslado1" class="cls-15" d="M232.57,142.19c-39.29,0-76.83-24.09-94.68-37.48l7.82-6.42-23-7.46,1.08,25.49,9.86-8.1c16,11.57,58.71,39.44,98.95,39.44,58.68,0,105.5-31,105.5-31v-7.3S294.29,142.19,232.57,142.19Z"/></g></g></g></g></svg>