<?xml version="1.0" encoding="utf-8"?>
<!-- Generator: Adobe Illustrator 21.1.0, SVG Export Plug-In . SVG Version: 6.00 Build 0)  -->
<svg version="1.1" id="probeta" xmlns="http://www.w3.org/2000/svg" xmlns:xlink="http://www.w3.org/1999/xlink" x="0px" y="0px"
	 viewBox="0 0 140.4 632" style="enable-background:new 0 0 140.4 632;" xml:space="preserve">
<style type="text/css">
	.st0{fill:#5EC8FF;}
	.st1{fill:none;stroke:#050505;stroke-width:2;stroke-miterlimit:10;}
	.st2{fill:#333232;}
	.st3{font-family:'Catamaran-Medium';}
	.st4{font-size:25px;}
</style>
<title>probeta-vacia</title>
<g id="fluidos">
	<path id="_x34_0ml" class="st0" d="M31,589.3c0,0,6.6,8.9,42.9,8.9s37.1-8.9,37.1-8.9V372.1H30L31,589.3z"/>
	<path id="_x33_5ml" class="st0" d="M30,399.2h81v191.1c0,0-0.9,7.8-37.1,7.8S31,590.3,31,590.3L30,399.2z"/>
	<path id="_x33_0ml" class="st0" d="M31,591.2c0,0,6.6,6.9,42.9,6.9s37.1-6.9,37.1-6.9V421.7H30L31,591.2z"/>
</g>
<g id="probeta-vacio">
	<g id="estructura">
		<path class="st1" d="M139.2,616.8c-0.6-8.7-14.2-9.6-14.2-9.6c-11-2.9-10.1-21.4-10.1-21.4l-0.1-0.2V20.2H112
			c5.3-0.2,9.4-4.6,9.2-9.9c-0.2-5-4.2-9.1-9.2-9.2H13.8c-6-0.8-12.2,6.3-7.2,8.3c5.7,2.3,18.9,6.8,19.1,10.9h-0.2v565.5l-0.1,0.2
			c0,0,0.9,18.5-10.1,21.4c0,0-7.3,0.5-11.4,4.1l0,0c-0.2,0.2-0.4,0.4-0.6,0.6l0,0c-0.6,0.6-1.1,1.3-1.4,2.1l-0.1,0.2
			c-0.1,0.2-0.2,0.4-0.2,0.6l-0.1,0.3c-0.1,0.2-0.1,0.4-0.1,0.6s0,0.2-0.1,0.3c-0.1,0.3-0.1,0.6-0.1,0.9c0,0-2.3,12.8,10.4,14.2
			h117.2C141.5,629.6,139.2,616.8,139.2,616.8z"/>
		<path class="st1" d="M24.7,596.1c0,0,7.2,7.9,13.7,8.7s59.1,0,59.1,0s4.3,0,11.5-4.3s6-9.2,6-9.2"/>
		<line class="st1" x1="0.9" y1="624.3" x2="138.5" y2="624.3"/>
	</g>
	<g id="indicadores">
		<path class="st2" d="M57.6,62.6c-7.9,0-15.9-1.1-23.5-3.4c-0.3-0.1-0.5-0.5-0.4-0.8c0-0.3,0.3-0.6,0.6-0.5c0,0,0,0,0.1,0
			c15.2,4.4,31.3,4.4,46.4,0c0.3-0.1,0.6,0.1,0.7,0.5c0,0,0,0,0,0.1c0.1,0.3-0.1,0.7-0.4,0.8C73.5,61.4,65.6,62.6,57.6,62.6z"/>
		<path class="st2" d="M57.7,88.6c-4.9,0-9.9-0.4-14.7-1.3c-0.3-0.1-0.5-0.5-0.5-0.8c0-0.3,0.3-0.6,0.6-0.6c0,0,0,0,0.1,0
			c9.6,1.7,19.5,1.7,29.1,0c0.3,0,0.6,0.2,0.6,0.5c0,0,0,0,0,0.1c0.1,0.3-0.1,0.7-0.5,0.8C67.5,88.1,62.6,88.6,57.7,88.6z"/>
		<path class="st2" d="M57.7,81.9c-3.7,0-7.4-0.3-11-0.9c-0.2,0-0.3-0.2-0.3-0.4c0-0.2,0.1-0.3,0.3-0.3c0,0,0,0,0,0
			c7.3,1.2,14.6,1.2,21.9,0c0.2,0,0.3,0.1,0.3,0.3c0,0,0,0,0,0c0,0.2-0.1,0.3-0.3,0.4C65,81.5,61.3,81.8,57.7,81.9z"/>
		<path class="st2" d="M57.7,75.4c-3.7,0-7.4-0.3-11-0.9c-0.2,0-0.3-0.2-0.3-0.4c0-0.2,0.1-0.3,0.3-0.3c0,0,0,0,0,0
			c7.3,1.2,14.6,1.2,21.9,0c0.2,0,0.3,0.1,0.3,0.3c0,0,0,0,0,0c0,0.2-0.1,0.3-0.3,0.4C65,75,61.3,75.3,57.7,75.4z"/>
		<path class="st2" d="M57.7,68.9c-3.7,0-7.4-0.3-11-0.9c-0.2,0-0.3-0.2-0.3-0.4c0-0.2,0.1-0.3,0.3-0.3c0,0,0,0,0,0
			c7.3,1.2,14.6,1.2,21.9,0c0.2,0,0.3,0.1,0.3,0.3c0,0,0,0,0,0c0,0.2-0.1,0.3-0.3,0.4C65,68.5,61.3,68.8,57.7,68.9z"/>
		<path class="st2" d="M57.7,107.9c-3.7,0-7.4-0.3-11-0.9c-0.2,0-0.3-0.2-0.3-0.4c0-0.2,0.1-0.3,0.3-0.3c0,0,0,0,0,0
			c7.3,1.2,14.6,1.2,21.9,0c0.2,0,0.3,0.1,0.3,0.3c0,0,0,0,0,0c0,0.2-0.1,0.3-0.3,0.4C65,107.5,61.3,107.8,57.7,107.9z"/>
		<path class="st2" d="M57.7,101.4c-3.7,0-7.4-0.3-11-0.9c-0.2,0-0.3-0.2-0.3-0.4c0-0.2,0.1-0.3,0.3-0.3c0,0,0,0,0,0
			c7.3,1.2,14.6,1.2,21.9,0c0.2,0,0.3,0.1,0.3,0.3c0,0,0,0,0,0c0,0.2-0.1,0.3-0.3,0.4C65,101,61.3,101.3,57.7,101.4z"/>
		<path class="st2" d="M57.7,94.9c-3.7,0-7.4-0.3-11-0.9c-0.2,0-0.3-0.2-0.3-0.4c0-0.2,0.1-0.3,0.3-0.3c0,0,0,0,0,0
			c7.3,1.2,14.6,1.2,21.9,0c0.2,0,0.3,0.1,0.3,0.3c0,0,0,0,0,0c0,0.2-0.1,0.3-0.3,0.4C65,94.5,61.3,94.8,57.7,94.9z"/>
		<path class="st2" d="M57.6,114.6c-8,0-15.9-1.1-23.5-3.4c-0.3-0.1-0.5-0.5-0.4-0.8c0-0.3,0.3-0.6,0.6-0.5c0,0,0,0,0.1,0
			c15.2,4.4,31.3,4.4,46.4,0c0.3-0.1,0.6,0.1,0.7,0.5c0,0,0,0,0,0.1c0.1,0.3-0.1,0.7-0.4,0.8C73.5,113.4,65.6,114.6,57.6,114.6z"/>
		<path class="st2" d="M57.6,140.6c-4.9,0-9.9-0.4-14.7-1.3c-0.3-0.1-0.5-0.5-0.5-0.8c0-0.4,0.3-0.7,0.7-0.6
			c9.6,1.7,19.5,1.7,29.1,0c0.3-0.1,0.6,0.2,0.7,0.6c0.1,0.3-0.1,0.7-0.5,0.8C67.5,140.1,62.6,140.6,57.6,140.6z"/>
		<path class="st2" d="M57.7,133.9c-3.7,0-7.4-0.3-11-0.9c-0.2,0-0.3-0.2-0.3-0.4c0-0.2,0.1-0.3,0.3-0.3c0,0,0,0,0,0
			c7.3,1.2,14.6,1.2,21.9,0c0.2,0,0.3,0.1,0.3,0.3c0,0,0,0,0,0c0,0.2-0.1,0.3-0.3,0.4C65,133.5,61.3,133.8,57.7,133.9z"/>
		<path class="st2" d="M57.7,127.4c-3.7,0-7.4-0.3-11-0.9c-0.2,0-0.3-0.2-0.3-0.4c0-0.2,0.1-0.3,0.3-0.3c0,0,0,0,0,0
			c7.3,1.2,14.6,1.2,21.9,0c0.2,0,0.3,0.1,0.3,0.3c0,0,0,0,0,0c0,0.2-0.1,0.3-0.3,0.4C65,127,61.3,127.3,57.7,127.4z"/>
		<path class="st2" d="M57.7,120.9c-3.7,0-7.4-0.3-11-0.9c-0.2,0-0.3-0.2-0.3-0.4c0-0.2,0.1-0.3,0.3-0.3c0,0,0,0,0,0
			c7.3,1.2,14.6,1.2,21.9,0c0.2,0,0.3,0.1,0.3,0.3c0,0,0,0,0,0c0,0.2-0.1,0.3-0.3,0.4C65,120.5,61.3,120.8,57.7,120.9z"/>
		<path class="st2" d="M57.6,159.9c-3.7,0-7.4-0.3-11-0.9c-0.2,0-0.3-0.2-0.3-0.4c0-0.2,0.1-0.3,0.3-0.3c0,0,0,0,0,0
			c7.3,1.2,14.6,1.2,21.9,0c0.2,0,0.3,0.1,0.3,0.3c0,0,0,0,0,0c0,0.2-0.1,0.3-0.3,0.4C65,159.5,61.3,159.8,57.6,159.9z"/>
		<path class="st2" d="M57.7,153.4c-3.7,0-7.4-0.3-11-0.9c-0.2,0-0.3-0.2-0.3-0.4c0-0.2,0.1-0.3,0.3-0.3c0,0,0,0,0,0
			c7.3,1.2,14.6,1.2,21.9,0c0.2,0,0.3,0.1,0.3,0.3c0,0,0,0,0,0c0,0.2-0.1,0.3-0.3,0.4C65,153,61.3,153.3,57.7,153.4z"/>
		<path class="st2" d="M57.7,146.9c-3.7,0-7.4-0.3-11-0.9c-0.2,0-0.3-0.2-0.3-0.4c0-0.2,0.1-0.3,0.3-0.3c0,0,0,0,0,0
			c7.3,1.2,14.6,1.2,21.9,0c0.2,0,0.3,0.1,0.3,0.3c0,0,0,0,0,0c0,0.2-0.1,0.3-0.3,0.4C65,146.5,61.3,146.8,57.7,146.9z"/>
		<path class="st2" d="M57.6,166.5c-7.9,0-15.9-1.1-23.5-3.4c-0.3-0.1-0.5-0.5-0.4-0.9c0-0.3,0.3-0.6,0.6-0.5c0,0,0,0,0.1,0
			c15.2,4.4,31.3,4.4,46.4,0c0.3-0.1,0.6,0.1,0.7,0.5c0,0,0,0,0,0.1c0.1,0.3-0.1,0.7-0.4,0.9C73.5,165.4,65.6,166.6,57.6,166.5z"/>
		<path class="st2" d="M57.7,192.6c-4.9,0-9.9-0.4-14.7-1.3c-0.3-0.1-0.5-0.5-0.5-0.8c0-0.3,0.3-0.6,0.6-0.6c0,0,0,0,0.1,0
			c9.6,1.7,19.5,1.7,29.1,0c0.3,0,0.6,0.2,0.6,0.5c0,0,0,0,0,0.1c0.1,0.3-0.1,0.7-0.5,0.8C67.5,192.1,62.6,192.6,57.7,192.6z"/>
		<path class="st2" d="M57.7,185.9c-3.7,0-7.4-0.3-11-0.9c-0.2,0-0.3-0.2-0.3-0.4c0-0.2,0.1-0.3,0.3-0.3c0,0,0,0,0,0
			c7.3,1.2,14.6,1.2,21.9,0c0.2,0,0.3,0.1,0.3,0.3c0,0,0,0,0,0c0,0.2-0.1,0.3-0.3,0.4C65,185.5,61.3,185.8,57.7,185.9z"/>
		<path class="st2" d="M57.7,179.4c-3.7,0-7.4-0.3-11-0.9c-0.2,0-0.3-0.2-0.3-0.4c0-0.2,0.1-0.3,0.3-0.3c0,0,0,0,0,0
			c7.3,1.2,14.6,1.2,21.9,0c0.2,0,0.3,0.1,0.3,0.3c0,0,0,0,0,0c0,0.2-0.1,0.3-0.3,0.4C65,179,61.3,179.3,57.7,179.4z"/>
		<path class="st2" d="M57.7,172.9c-3.7,0-7.4-0.3-11-0.9c-0.2,0-0.3-0.2-0.3-0.4c0-0.2,0.1-0.3,0.3-0.3c0,0,0,0,0,0
			c7.3,1.2,14.6,1.2,21.9,0c0.2,0,0.3,0.1,0.3,0.3c0,0,0,0,0,0c0,0.2-0.1,0.3-0.3,0.4C65,172.5,61.3,172.8,57.7,172.9z"/>
		<path class="st2" d="M57.7,211.9c-3.7,0-7.4-0.3-11-0.9c-0.2,0-0.3-0.2-0.3-0.4c0-0.2,0.1-0.3,0.3-0.3c0,0,0,0,0,0
			c7.3,1.2,14.6,1.2,21.9,0c0.2,0,0.3,0.1,0.3,0.3c0,0,0,0,0,0c0,0.2-0.1,0.3-0.3,0.4C65,211.5,61.3,211.8,57.7,211.9z"/>
		<path class="st2" d="M57.6,205.4c-3.7,0-7.4-0.3-11-0.9c-0.2,0-0.3-0.2-0.3-0.4c0-0.2,0.1-0.3,0.3-0.3c0,0,0,0,0,0
			c7.3,1.2,14.6,1.2,21.9,0c0.2,0,0.3,0.1,0.3,0.3c0,0,0,0,0,0c0,0.2-0.1,0.3-0.3,0.4C65,205,61.3,205.3,57.6,205.4z"/>
		<path class="st2" d="M57.7,198.9c-3.7,0-7.4-0.3-11-0.9c-0.2,0-0.3-0.2-0.3-0.4c0-0.2,0.1-0.3,0.3-0.3c0,0,0,0,0,0
			c7.3,1.2,14.6,1.2,21.9,0c0.2,0,0.3,0.1,0.3,0.3c0,0,0,0,0,0c0,0.2-0.1,0.3-0.3,0.4C65,198.5,61.3,198.8,57.7,198.9z"/>
		<path class="st2" d="M57.6,218.5c-7.9,0-15.9-1.1-23.5-3.4c-0.3-0.1-0.5-0.5-0.4-0.9c0-0.3,0.3-0.6,0.6-0.5c0,0,0,0,0.1,0
			c15.2,4.4,31.3,4.4,46.4,0c0.3-0.1,0.6,0.1,0.7,0.5c0,0,0,0,0,0.1c0.1,0.3-0.1,0.7-0.4,0.9C73.5,217.4,65.6,218.5,57.6,218.5z"/>
		<path class="st2" d="M57.7,244.5c-4.9,0-9.9-0.4-14.7-1.3c-0.3-0.1-0.5-0.5-0.5-0.8c0-0.4,0.3-0.7,0.7-0.6
			c9.6,1.7,19.5,1.7,29.1,0c0.3-0.1,0.6,0.2,0.7,0.6c0.1,0.3-0.1,0.7-0.5,0.8C67.5,244.1,62.6,244.5,57.7,244.5z"/>
		<path class="st2" d="M57.7,237.9c-3.7,0-7.4-0.3-11-0.9c-0.2,0-0.3-0.2-0.3-0.4c0-0.2,0.1-0.3,0.3-0.3c0,0,0,0,0,0
			c7.3,1.2,14.6,1.2,21.9,0c0.2,0,0.3,0.1,0.3,0.3c0,0,0,0,0,0c0,0.2-0.1,0.3-0.3,0.4C65,237.5,61.3,237.8,57.7,237.9z"/>
		<path class="st2" d="M57.7,231.4c-3.7,0-7.4-0.3-11-0.9c-0.2,0-0.3-0.2-0.3-0.4c0-0.2,0.1-0.3,0.3-0.3c0,0,0,0,0,0
			c7.3,1.2,14.6,1.2,21.9,0c0.2,0,0.3,0.1,0.3,0.3c0,0,0,0,0,0c0,0.2-0.1,0.3-0.3,0.4C65,231,61.3,231.3,57.7,231.4z"/>
		<path class="st2" d="M57.6,224.9c-3.7,0-7.4-0.3-11-0.9c-0.2,0-0.3-0.2-0.3-0.4c0-0.2,0.1-0.3,0.3-0.3c0,0,0,0,0,0
			c7.3,1.2,14.6,1.2,21.9,0c0.2,0,0.3,0.1,0.3,0.3c0,0,0,0,0,0c0,0.2-0.1,0.3-0.3,0.4C65,224.5,61.3,224.8,57.6,224.9z"/>
		<path class="st2" d="M57.7,263.8c-3.7,0-7.4-0.3-11-0.9c-0.2,0-0.3-0.2-0.3-0.4c0-0.2,0.1-0.3,0.3-0.3c0,0,0,0,0,0
			c7.3,1.2,14.6,1.2,21.9,0c0.2,0,0.3,0.1,0.3,0.3c0,0,0,0,0,0c0,0.2-0.1,0.3-0.3,0.4C65,263.5,61.3,263.8,57.7,263.8z"/>
		<path class="st2" d="M57.7,257.3c-3.7,0-7.4-0.3-11-0.9c-0.2,0-0.3-0.2-0.3-0.4c0-0.2,0.1-0.3,0.3-0.3c0,0,0,0,0,0
			c7.3,1.2,14.6,1.2,21.9,0c0.2,0,0.3,0.1,0.3,0.3c0,0,0,0,0,0c0,0.2-0.1,0.3-0.3,0.4C65,257,61.3,257.3,57.7,257.3z"/>
		<path class="st2" d="M57.7,250.8c-3.7,0-7.4-0.3-11-0.9c-0.2,0-0.3-0.2-0.3-0.4c0-0.2,0.1-0.3,0.3-0.3c0,0,0,0,0,0
			c7.3,1.2,14.6,1.2,21.9,0c0.2,0,0.3,0.1,0.3,0.3c0,0,0,0,0,0c0,0.2-0.1,0.3-0.3,0.4C65,250.5,61.3,250.8,57.7,250.8z"/>
		<path class="st2" d="M57.6,270.5c-8,0-15.9-1.1-23.5-3.4c-0.3-0.1-0.5-0.5-0.4-0.9c0-0.3,0.3-0.6,0.6-0.5c0,0,0,0,0.1,0
			c15.2,4.4,31.3,4.4,46.4,0c0.3-0.1,0.6,0.1,0.7,0.5c0,0,0,0,0,0.1c0.1,0.3-0.1,0.7-0.4,0.9C73.5,269.4,65.6,270.5,57.6,270.5z"/>
		<path class="st2" d="M57.7,296.5c-4.9,0-9.9-0.4-14.7-1.3c-0.3-0.1-0.5-0.5-0.5-0.8c0-0.3,0.3-0.6,0.6-0.6c0,0,0,0,0.1,0
			c9.6,1.7,19.5,1.7,29.1,0c0.3-0.1,0.6,0.2,0.7,0.6c0.1,0.3-0.1,0.7-0.5,0.8C67.5,296.1,62.6,296.5,57.7,296.5z"/>
		<path class="st2" d="M57.7,289.8c-3.7,0-7.4-0.3-11-0.9c-0.2,0-0.3-0.2-0.3-0.4c0-0.2,0.1-0.3,0.3-0.3c0,0,0,0,0,0
			c7.3,1.2,14.6,1.2,21.9,0c0.2,0,0.3,0.1,0.3,0.3c0,0,0,0,0,0c0,0.2-0.1,0.3-0.3,0.4C65,289.5,61.3,289.8,57.7,289.8z"/>
		<path class="st2" d="M57.7,283.3c-3.7,0-7.4-0.3-11-0.9c-0.2,0-0.3-0.2-0.3-0.4c0-0.2,0.1-0.3,0.3-0.3c0,0,0,0,0,0
			c7.3,1.2,14.6,1.2,21.9,0c0.2,0,0.3,0.1,0.3,0.3c0,0,0,0,0,0c0,0.2-0.1,0.3-0.3,0.4C65,283,61.3,283.3,57.7,283.3z"/>
		<path class="st2" d="M57.6,276.8c-3.7,0-7.4-0.3-11-0.9c-0.2,0-0.3-0.2-0.3-0.4c0-0.2,0.1-0.3,0.3-0.3c0,0,0,0,0,0
			c7.3,1.2,14.6,1.2,21.9,0c0.2,0,0.3,0.1,0.3,0.3c0,0,0,0,0,0c0,0.2-0.1,0.3-0.3,0.4C65,276.5,61.3,276.8,57.6,276.8z"/>
		<path class="st2" d="M57.7,315.8c-3.7,0-7.4-0.3-11-0.9c-0.2,0-0.3-0.2-0.3-0.4c0-0.2,0.1-0.3,0.3-0.3c0,0,0,0,0,0
			c7.3,1.2,14.6,1.2,21.9,0c0.2,0,0.3,0.1,0.3,0.3c0,0,0,0,0,0c0,0.2-0.1,0.3-0.3,0.4C65,315.5,61.3,315.8,57.7,315.8z"/>
		<path class="st2" d="M57.7,309.3c-3.7,0-7.4-0.3-11-0.9c-0.2,0-0.3-0.2-0.3-0.4c0-0.2,0.1-0.3,0.3-0.3c0,0,0,0,0,0
			c7.3,1.2,14.6,1.2,21.9,0c0.2,0,0.3,0.1,0.3,0.3c0,0,0,0,0,0c0,0.2-0.1,0.3-0.3,0.4C65,309,61.3,309.3,57.7,309.3z"/>
		<path class="st2" d="M57.7,302.8c-3.7,0-7.4-0.3-11-0.9c-0.2,0-0.3-0.2-0.3-0.4c0-0.2,0.1-0.3,0.3-0.3c0,0,0,0,0,0
			c7.3,1.2,14.6,1.2,21.9,0c0.2,0,0.3,0.1,0.3,0.3c0,0,0,0,0,0c0,0.2-0.1,0.3-0.3,0.4C65,302.5,61.3,302.8,57.7,302.8z"/>
		<path class="st2" d="M57.6,322.5c-8,0-15.9-1.1-23.5-3.4c-0.3-0.1-0.5-0.5-0.4-0.9c0-0.3,0.3-0.6,0.6-0.5c0,0,0,0,0.1,0
			c15.2,4.4,31.3,4.4,46.4,0c0.3-0.1,0.6,0.1,0.7,0.5c0,0,0,0,0,0.1c0.1,0.3-0.1,0.7-0.4,0.9C73.5,321.4,65.6,322.5,57.6,322.5z"/>
		<path class="st2" d="M57.7,348.5c-4.9,0-9.9-0.4-14.7-1.3c-0.3-0.1-0.5-0.5-0.5-0.8c0-0.3,0.3-0.6,0.6-0.6c0,0,0,0,0.1,0
			c9.6,1.7,19.5,1.7,29.1,0c0.3,0,0.6,0.2,0.6,0.5c0,0,0,0,0,0.1c0.1,0.3-0.1,0.7-0.5,0.8C67.5,348.1,62.6,348.5,57.7,348.5z"/>
		<path class="st2" d="M57.7,341.8c-3.7,0-7.4-0.3-11-0.9c-0.2,0-0.3-0.2-0.3-0.4c0-0.2,0.1-0.3,0.3-0.3c0,0,0,0,0,0
			c7.3,1.2,14.6,1.2,21.9,0c0.2,0,0.3,0.1,0.3,0.3c0,0,0,0,0,0c0,0.2-0.1,0.3-0.3,0.4C65,341.5,61.3,341.8,57.7,341.8z"/>
		<path class="st2" d="M57.6,335.3c-3.7,0-7.4-0.3-11-0.9c-0.2,0-0.3-0.2-0.3-0.4c0-0.2,0.1-0.3,0.3-0.3c0,0,0,0,0,0
			c7.3,1.2,14.6,1.2,21.9,0c0.2,0,0.3,0.1,0.3,0.3c0,0,0,0,0,0c0,0.2-0.1,0.3-0.3,0.4C65,335,61.3,335.3,57.6,335.3z"/>
		<path class="st2" d="M57.7,328.8c-3.7,0-7.4-0.3-11-0.9c-0.2,0-0.3-0.2-0.3-0.4c0-0.2,0.1-0.3,0.3-0.3c0,0,0,0,0,0
			c7.3,1.2,14.6,1.2,21.9,0c0.2,0,0.3,0.1,0.3,0.3c0,0,0,0,0,0c0,0.2-0.1,0.3-0.3,0.4C65,328.5,61.3,328.8,57.7,328.8z"/>
		<path class="st2" d="M57.7,367.8c-3.7,0-7.4-0.3-11-0.9c-0.2,0-0.3-0.2-0.3-0.4c0-0.2,0.1-0.3,0.3-0.3c0,0,0,0,0,0
			c7.3,1.2,14.6,1.2,21.9,0c0.2,0,0.3,0.1,0.3,0.3c0,0,0,0,0,0c0,0.2-0.1,0.3-0.3,0.4C65,367.5,61.3,367.8,57.7,367.8z"/>
		<path class="st2" d="M57.7,361.3c-3.7,0-7.4-0.3-11-0.9c-0.2,0-0.3-0.2-0.3-0.4c0-0.2,0.1-0.3,0.3-0.3c0,0,0,0,0,0
			c7.3,1.2,14.6,1.2,21.9,0c0.2,0,0.3,0.1,0.3,0.3c0,0,0,0,0,0c0,0.2-0.1,0.3-0.3,0.4C65,361,61.3,361.3,57.7,361.3z"/>
		<path class="st2" d="M57.6,354.8c-3.7,0-7.4-0.3-11-0.9c-0.2,0-0.3-0.2-0.3-0.4c0-0.2,0.1-0.3,0.3-0.3c0,0,0,0,0,0
			c7.3,1.2,14.6,1.2,21.9,0c0.2,0,0.3,0.1,0.3,0.3c0,0,0,0,0,0c0,0.2-0.1,0.3-0.3,0.4C65,354.5,61.3,354.8,57.6,354.8z"/>
		<path class="st2" d="M57.6,374.5c-7.9,0-15.9-1.1-23.5-3.4c-0.3-0.1-0.5-0.5-0.4-0.9c0-0.3,0.3-0.6,0.6-0.5c0,0,0,0,0.1,0
			c15.2,4.4,31.3,4.4,46.4,0c0.3-0.1,0.6,0.1,0.7,0.5c0,0,0,0,0,0.1c0.1,0.3-0.1,0.7-0.4,0.9C73.5,373.4,65.6,374.5,57.6,374.5z"/>
		<path class="st2" d="M57.7,400.5c-4.9,0-9.9-0.4-14.7-1.3c-0.3-0.1-0.5-0.5-0.5-0.8c0-0.4,0.3-0.7,0.7-0.6
			c9.6,1.7,19.5,1.7,29.1,0c0.3-0.1,0.6,0.2,0.7,0.6c0.1,0.3-0.1,0.7-0.5,0.8C67.5,400.1,62.6,400.5,57.7,400.5z"/>
		<path class="st2" d="M57.7,393.8c-3.7,0-7.4-0.3-11-0.9c-0.2,0-0.3-0.2-0.3-0.4c0-0.2,0.1-0.3,0.3-0.3c0,0,0,0,0,0
			c7.3,1.2,14.6,1.2,21.9,0c0.2,0,0.3,0.1,0.3,0.3c0,0,0,0,0,0c0,0.2-0.1,0.3-0.3,0.4C65,393.5,61.3,393.8,57.7,393.8z"/>
		<path class="st2" d="M57.7,387.3c-3.7,0-7.4-0.3-11-0.9c-0.2,0-0.3-0.2-0.3-0.4c0-0.2,0.1-0.3,0.3-0.3c0,0,0,0,0,0
			c7.3,1.2,14.6,1.2,21.9,0c0.2,0,0.3,0.1,0.3,0.3c0,0,0,0,0,0c0,0.2-0.1,0.3-0.3,0.4C65,387,61.3,387.3,57.7,387.3z"/>
		<path class="st2" d="M57.6,380.8c-3.7,0-7.4-0.3-11-0.9c-0.2,0-0.3-0.2-0.3-0.4c0-0.2,0.1-0.3,0.3-0.3c0,0,0,0,0,0
			c7.3,1.2,14.6,1.2,21.9,0c0.2,0,0.3,0.1,0.3,0.3c0,0,0,0,0,0c0,0.2-0.1,0.3-0.3,0.4C65,380.5,61.3,380.8,57.6,380.8z"/>
		<path class="st2" d="M57.7,419.8c-3.7,0-7.4-0.3-11-0.9c-0.2,0-0.3-0.2-0.3-0.4c0-0.2,0.1-0.3,0.3-0.3c0,0,0,0,0,0
			c7.3,1.2,14.6,1.2,21.9,0c0.2,0,0.3,0.1,0.3,0.3c0,0,0,0,0,0c0,0.2-0.1,0.3-0.3,0.4C65,419.5,61.3,419.8,57.7,419.8z"/>
		<path class="st2" d="M57.7,413.3c-3.7,0-7.4-0.3-11-0.9c-0.2,0-0.3-0.2-0.3-0.4c0-0.2,0.1-0.3,0.3-0.3c0,0,0,0,0,0
			c7.3,1.2,14.6,1.2,21.9,0c0.2,0,0.3,0.1,0.3,0.3c0,0,0,0,0,0c0,0.2-0.1,0.3-0.3,0.4C65,413,61.3,413.3,57.7,413.3z"/>
		<path class="st2" d="M57.7,406.8c-3.7,0-7.4-0.3-11-0.9c-0.2,0-0.3-0.2-0.3-0.4c0-0.2,0.1-0.3,0.3-0.3c0,0,0,0,0,0
			c7.3,1.2,14.6,1.2,21.9,0c0.2,0,0.3,0.1,0.3,0.3c0,0,0,0,0,0c0,0.2-0.1,0.3-0.3,0.4C65,406.5,61.3,406.8,57.7,406.8z"/>
		<path class="st2" d="M57.6,426.5c-7.9,0-15.9-1.1-23.5-3.4c-0.3-0.1-0.5-0.5-0.4-0.9c0-0.3,0.3-0.6,0.6-0.5c0,0,0,0,0.1,0
			c15.2,4.4,31.3,4.4,46.4,0c0.3-0.1,0.6,0.1,0.7,0.5c0,0,0,0,0,0.1c0.1,0.3-0.1,0.7-0.4,0.9C73.5,425.4,65.6,426.5,57.6,426.5z"/>
		<path class="st2" d="M57.7,452.5c-4.9,0-9.9-0.4-14.7-1.3c-0.3-0.1-0.5-0.5-0.5-0.8c0-0.4,0.3-0.7,0.7-0.6
			c9.6,1.7,19.5,1.7,29.1,0c0.3,0,0.6,0.2,0.6,0.5c0,0,0,0,0,0.1c0.1,0.3-0.1,0.7-0.5,0.8C67.5,452.1,62.6,452.5,57.7,452.5z"/>
		<path class="st2" d="M57.7,445.8c-3.7,0-7.4-0.3-11-0.9c-0.2,0-0.3-0.2-0.3-0.4c0-0.2,0.1-0.3,0.3-0.3c0,0,0,0,0,0
			c7.3,1.2,14.6,1.2,21.9,0c0.2,0,0.3,0.1,0.3,0.3c0,0,0,0,0,0c0,0.2-0.1,0.3-0.3,0.4C65,445.5,61.3,445.7,57.7,445.8z"/>
		<path class="st2" d="M57.7,439.3c-3.7,0-7.4-0.3-11-0.9c-0.2,0-0.3-0.2-0.3-0.4c0-0.2,0.1-0.3,0.3-0.3c0,0,0,0,0,0
			c7.3,1.2,14.6,1.2,21.9,0c0.2,0,0.3,0.1,0.3,0.3c0,0.2-0.1,0.3-0.3,0.4C65,439,61.3,439.3,57.7,439.3z"/>
		<path class="st2" d="M57.7,432.8c-3.7,0-7.4-0.3-11-0.9c-0.2,0-0.3-0.2-0.3-0.4c0-0.2,0.1-0.3,0.3-0.3c0,0,0,0,0,0
			c7.3,1.2,14.6,1.2,21.9,0c0.2,0,0.3,0.1,0.3,0.3c0,0,0,0,0,0c0,0.2-0.1,0.3-0.3,0.4C65,432.5,61.3,432.8,57.7,432.8z"/>
		<path class="st2" d="M57.7,471.8c-3.7,0-7.4-0.3-11-0.9c-0.2,0-0.3-0.2-0.3-0.4c0-0.2,0.1-0.3,0.3-0.3c0,0,0,0,0,0
			c7.3,1.2,14.6,1.2,21.9,0c0.2,0,0.3,0.1,0.3,0.3c0,0,0,0,0,0c0,0.2-0.1,0.3-0.3,0.4C65,471.5,61.3,471.7,57.7,471.8z"/>
		<path class="st2" d="M57.6,465.3c-3.7,0-7.4-0.3-11-0.9c-0.2,0-0.3-0.2-0.3-0.4c0-0.2,0.1-0.3,0.3-0.3c0,0,0,0,0,0
			c7.3,1.2,14.6,1.2,21.9,0c0.2,0,0.3,0.1,0.3,0.3c0,0,0,0,0,0c0,0.2-0.1,0.3-0.3,0.4C65,465,61.3,465.2,57.6,465.3z"/>
		<path class="st2" d="M57.7,458.8c-3.7,0-7.4-0.3-11-0.9c-0.2,0-0.3-0.2-0.3-0.4c0-0.2,0.1-0.3,0.3-0.3c0,0,0,0,0,0
			c7.3,1.2,14.6,1.2,21.9,0c0.2,0,0.3,0.1,0.3,0.3c0,0.2-0.1,0.3-0.3,0.4C65,458.5,61.3,458.7,57.7,458.8z"/>
		<path class="st2" d="M57.6,478.5c-7.9,0-15.9-1.1-23.5-3.4c-0.3-0.1-0.5-0.5-0.4-0.9c0-0.3,0.3-0.6,0.6-0.5c0,0,0,0,0.1,0
			c15.2,4.4,31.3,4.4,46.4,0c0.3-0.1,0.6,0.1,0.7,0.5c0,0,0,0,0,0.1c0.1,0.3-0.1,0.7-0.4,0.9C73.5,477.3,65.6,478.5,57.6,478.5z"/>
		<path class="st2" d="M57.7,504.5c-4.9,0-9.9-0.4-14.7-1.3c-0.3-0.1-0.5-0.5-0.5-0.8c0-0.4,0.3-0.7,0.7-0.6
			c9.6,1.7,19.5,1.7,29.1,0c0.3,0,0.6,0.2,0.6,0.5c0,0,0,0,0,0.1c0.1,0.3-0.1,0.7-0.5,0.8C67.5,504,62.6,504.5,57.7,504.5z"/>
		<path class="st2" d="M57.7,497.8c-3.7,0-7.4-0.3-11-0.9c-0.2,0-0.3-0.2-0.3-0.4c0-0.2,0.1-0.3,0.3-0.3c0,0,0,0,0,0
			c7.3,1.2,14.6,1.2,21.9,0c0.2,0,0.3,0.1,0.3,0.3c0,0,0,0,0,0c0,0.2-0.1,0.3-0.3,0.4C65,497.4,61.3,497.7,57.7,497.8z"/>
		<path class="st2" d="M57.7,491.3c-3.7,0-7.4-0.3-11-0.9c-0.2,0-0.3-0.2-0.3-0.4c0-0.2,0.1-0.3,0.3-0.3c0,0,0,0,0,0
			c7.3,1.2,14.6,1.2,21.9,0c0.2,0,0.3,0.1,0.3,0.3c0,0,0,0,0,0c0,0.2-0.1,0.3-0.3,0.4C65,490.9,61.3,491.2,57.7,491.3z"/>
		<path class="st2" d="M57.6,484.8c-3.7,0-7.4-0.3-11-0.9c-0.2,0-0.3-0.2-0.3-0.4c0-0.2,0.1-0.3,0.3-0.3c0,0,0,0,0,0
			c7.3,1.2,14.6,1.2,21.9,0c0.2,0,0.3,0.1,0.3,0.3c0,0,0,0,0,0c0,0.2-0.1,0.3-0.3,0.4C65,484.4,61.3,484.7,57.6,484.8z"/>
		<path class="st2" d="M57.7,523.8c-3.7,0-7.4-0.3-11-0.9c-0.2,0-0.3-0.2-0.3-0.4c0-0.2,0.1-0.3,0.3-0.3c0,0,0,0,0,0
			c7.3,1.2,14.6,1.2,21.9,0c0.2,0,0.3,0.1,0.3,0.3c0,0,0,0,0,0c0,0.2-0.1,0.3-0.3,0.4C65,523.4,61.3,523.7,57.7,523.8z"/>
		<path class="st2" d="M57.7,517.3c-3.7,0-7.4-0.3-11-0.9c-0.2,0-0.3-0.2-0.3-0.4c0-0.2,0.1-0.3,0.3-0.3c0,0,0,0,0,0
			c7.3,1.2,14.6,1.2,21.9,0c0.2,0,0.3,0.1,0.3,0.3c0,0,0,0,0,0c0,0.2-0.1,0.3-0.3,0.4C65,516.9,61.3,517.2,57.7,517.3z"/>
		<path class="st2" d="M57.7,510.8c-3.7,0-7.4-0.3-11-0.9c-0.2,0-0.3-0.2-0.3-0.4c0-0.2,0.1-0.3,0.3-0.3c0,0,0,0,0,0
			c7.3,1.2,14.6,1.2,21.9,0c0.2,0,0.3,0.1,0.3,0.3c0,0,0,0,0,0c0,0.2-0.1,0.3-0.3,0.4C65,510.4,61.3,510.7,57.7,510.8z"/>
		<path class="st2" d="M57.6,530.5c-7.9,0-15.9-1.1-23.5-3.4c-0.3-0.1-0.5-0.5-0.4-0.8c0-0.3,0.3-0.6,0.6-0.5c0,0,0,0,0.1,0
			c15.2,4.4,31.3,4.4,46.4,0c0.3-0.1,0.6,0.1,0.7,0.5c0,0,0,0,0,0.1c0.1,0.3-0.1,0.7-0.4,0.8C73.5,529.3,65.6,530.5,57.6,530.5z"/>
		<path class="st2" d="M57.7,556.5c-4.9,0-9.9-0.4-14.7-1.3c-0.3-0.1-0.5-0.5-0.5-0.8c0-0.3,0.3-0.6,0.6-0.6c0,0,0,0,0.1,0
			c9.6,1.7,19.5,1.7,29.1,0c0.3-0.1,0.6,0.2,0.7,0.6c0.1,0.3-0.1,0.7-0.5,0.8C67.5,556,62.6,556.5,57.7,556.5z"/>
		<path class="st2" d="M57.7,549.8c-3.7,0-7.4-0.3-11-0.9c-0.2,0-0.3-0.2-0.3-0.4c0-0.2,0.1-0.3,0.3-0.3c0,0,0,0,0,0
			c7.3,1.2,14.6,1.2,21.9,0c0.2,0,0.3,0.1,0.3,0.3c0,0,0,0,0,0c0,0.2-0.1,0.3-0.3,0.4C65,549.4,61.3,549.7,57.7,549.8z"/>
		<path class="st2" d="M57.6,543.3c-3.7,0-7.4-0.3-11-0.9c-0.2,0-0.3-0.2-0.3-0.4c0-0.2,0.1-0.3,0.3-0.3c0,0,0,0,0,0
			c7.3,1.2,14.6,1.2,21.9,0c0.2,0,0.3,0.1,0.3,0.3c0,0,0,0,0,0c0,0.2-0.1,0.3-0.3,0.4C65,542.9,61.3,543.2,57.6,543.3z"/>
		<path class="st2" d="M57.7,536.8c-3.7,0-7.4-0.3-11-0.9c-0.2,0-0.3-0.2-0.3-0.4c0-0.2,0.1-0.3,0.3-0.3c0,0,0,0,0,0
			c7.3,1.2,14.6,1.2,21.9,0c0.2,0,0.3,0.1,0.3,0.3c0,0,0,0,0,0c0,0.2-0.1,0.3-0.3,0.4C65,536.4,61.3,536.7,57.7,536.8z"/>
		<path class="st2" d="M57.6,575.8c-3.7,0-7.4-0.3-11-0.9c-0.2,0-0.3-0.2-0.3-0.4c0-0.2,0.1-0.3,0.3-0.3c0,0,0,0,0,0
			c7.3,1.2,14.6,1.2,21.9,0c0.2,0,0.3,0.1,0.3,0.3c0,0,0,0,0,0c0,0.2-0.1,0.3-0.3,0.4C65,575.4,61.3,575.7,57.6,575.8z"/>
		<path class="st2" d="M57.7,569.3c-3.7,0-7.4-0.3-11-0.9c-0.2,0-0.3-0.2-0.3-0.4c0-0.2,0.1-0.3,0.3-0.3c0,0,0,0,0,0
			c7.3,1.2,14.6,1.2,21.9,0c0.2,0,0.3,0.1,0.3,0.3c0,0.2-0.1,0.3-0.3,0.4C65,568.9,61.3,569.2,57.7,569.3z"/>
		<path class="st2" d="M57.7,562.8c-3.7,0-7.4-0.3-11-0.9c-0.2,0-0.3-0.2-0.3-0.4c0-0.2,0.1-0.3,0.3-0.3c0,0,0,0,0,0
			c7.3,1.2,14.6,1.2,21.9,0c0.2,0,0.3,0.1,0.3,0.3c0,0,0,0,0,0c0,0.2-0.1,0.3-0.3,0.4C65,562.4,61.3,562.7,57.7,562.8z"/>
		<path class="st2" d="M57.6,582.4c-7.9,0-15.9-1.1-23.5-3.4c-0.3-0.1-0.5-0.5-0.4-0.8c0-0.3,0.3-0.6,0.6-0.5c0,0,0,0,0.1,0
			c15.2,4.4,31.3,4.4,46.4,0c0.3-0.1,0.6,0.1,0.7,0.5c0,0,0,0,0,0.1c0.1,0.3-0.1,0.7-0.4,0.8C73.5,581.3,65.6,582.4,57.6,582.4z"/>
	</g>
	<g id="numeros">
		<text transform="matrix(1 0 0 1 85.61 530)" class="st3 st4">10</text>
		<text transform="matrix(1 0 0 1 83.66 478)" class="st3 st4">20</text>
		<text transform="matrix(1 0 0 1 83.8 431)" class="st3 st4">30</text>
		<text transform="matrix(1 0 0 1 82.98 374)" class="st3 st4">40</text>
		<text transform="matrix(1 0 0 1 83.41 323)" class="st3 st4">50</text>
		<text transform="matrix(1 0 0 1 83.18 271)" class="st3 st4">60</text>
		<text transform="matrix(1 0 0 1 84.04 219)" class="st3 st4">70</text>
		<text transform="matrix(1 0 0 1 83.24 167)" class="st3 st4">80</text>
		<text transform="matrix(1 0 0 1 83.18 115)" class="st3 st4">90</text>
		<text transform="matrix(1 0 0 1 78.15 63)" class="st3 st4">100</text>
	</g>
</g>
</svg>
