<svg xmlns="http://www.w3.org/2000/svg" viewBox="0 0 140.38 632"><defs><style>.cls-1{isolation:isolate;}.cls-2,.cls-3{fill:none;stroke:#050505;stroke-miterlimit:10;stroke-width:2px;}.cls-2{mix-blend-mode:multiply;}.cls-4{fill:#333232;}.cls-5{font-size:25px;font-family:Catamaran-Medium, Catamaran;}</style></defs><title>probeta-vacia</title><g class="cls-1"><g id="Capa_2" data-name="Capa 2"><g id="Capa_1-2" data-name="Capa 1"><g id="probeta-vacio"><g id="estructura"><path class="cls-2" d="M139.22,616.81c-.58-8.68-14.19-9.56-14.19-9.56-11-2.89-10.12-21.41-10.12-21.41l-.09-.2V20.18H112a9.56,9.56,0,0,0,0-19.11H13.81C7.82.25,1.6,7.33,6.66,9.32c5.74,2.27,18.92,6.82,19.11,10.86h-.21V585.65l-.08.2s.86,18.53-10.14,21.41c0,0-7.26.48-11.4,4.12h0q-.31.28-.6.58l0,0a8,8,0,0,0-1.43,2.06l-.09.2q-.12.27-.22.56l-.09.27c-.06.19-.11.38-.15.58s0,.18-.06.27a8,8,0,0,0-.11.89S-1.15,629.56,11.59,631H128.8C141.53,629.56,139.22,616.81,139.22,616.81Z"/><path class="cls-2" d="M24.74,596.14s7.21,7.93,13.7,8.65,59.12,0,59.12,0,4.33,0,11.54-4.33,6-9.24,6-9.24"/><line class="cls-3" x1="0.94" y1="624.26" x2="138.47" y2="624.26"/></g><g id="indicadores"><path class="cls-4" d="M57.64,62.57A82.74,82.74,0,0,1,34.16,59.2a.73.73,0,0,1-.42-.85.58.58,0,0,1,.69-.52,82.55,82.55,0,0,0,46.44,0,.58.58,0,0,1,.69.52.73.73,0,0,1-.42.85A82.84,82.84,0,0,1,57.64,62.57Z"/><path class="cls-4" d="M57.65,88.58a83.42,83.42,0,0,1-14.73-1.3.7.7,0,0,1-.48-.8.6.6,0,0,1,.65-.6,83.12,83.12,0,0,0,29.12,0,.6.6,0,0,1,.65.6.7.7,0,0,1-.48.8A83.38,83.38,0,0,1,57.65,88.58Z"/><path class="cls-4" d="M57.65,81.88a81.14,81.14,0,0,1-11-.88.34.34,0,0,1-.25-.39.31.31,0,0,1,.32-.31,69.19,69.19,0,0,0,21.9,0,.31.31,0,0,1,.32.31.34.34,0,0,1-.25.39A81.13,81.13,0,0,1,57.65,81.88Z"/><path class="cls-4" d="M57.65,75.38a81.13,81.13,0,0,1-11-.88.34.34,0,0,1-.25-.39.31.31,0,0,1,.32-.31,69.19,69.19,0,0,0,21.9,0,.31.31,0,0,1,.32.31.34.34,0,0,1-.25.39A81.12,81.12,0,0,1,57.65,75.38Z"/><path class="cls-4" d="M57.65,68.88a81.13,81.13,0,0,1-11-.88.34.34,0,0,1-.25-.39.31.31,0,0,1,.32-.31,69.19,69.19,0,0,0,21.9,0,.31.31,0,0,1,.32.31.34.34,0,0,1-.25.39A81.12,81.12,0,0,1,57.65,68.88Z"/><path class="cls-4" d="M57.65,107.88a81.13,81.13,0,0,1-11-.88.34.34,0,0,1-.25-.39.31.31,0,0,1,.32-.31,69.19,69.19,0,0,0,21.9,0,.31.31,0,0,1,.32.31.34.34,0,0,1-.25.39A81.12,81.12,0,0,1,57.65,107.88Z"/><path class="cls-4" d="M57.65,101.38a81.13,81.13,0,0,1-11-.88.34.34,0,0,1-.25-.39.31.31,0,0,1,.32-.31,69.19,69.19,0,0,0,21.9,0,.31.31,0,0,1,.32.31.34.34,0,0,1-.25.39A81.12,81.12,0,0,1,57.65,101.38Z"/><path class="cls-4" d="M57.65,94.88a81.13,81.13,0,0,1-11-.88.34.34,0,0,1-.25-.39.31.31,0,0,1,.32-.31,69.19,69.19,0,0,0,21.9,0,.31.31,0,0,1,.32.31.34.34,0,0,1-.25.39A81.12,81.12,0,0,1,57.65,94.88Z"/><path class="cls-4" d="M57.64,114.56a82.76,82.76,0,0,1-23.49-3.37.73.73,0,0,1-.42-.85.58.58,0,0,1,.69-.52,82.55,82.55,0,0,0,46.44,0,.58.58,0,0,1,.69.52.73.73,0,0,1-.42.85A82.82,82.82,0,0,1,57.64,114.56Z"/><path class="cls-4" d="M57.64,140.56a83.51,83.51,0,0,1-14.73-1.3.7.7,0,0,1-.48-.8c0-.39.33-.66.65-.6a83.33,83.33,0,0,0,29.12,0c.32-.06.6.21.65.6a.7.7,0,0,1-.48.8A83.51,83.51,0,0,1,57.64,140.56Z"/><path class="cls-4" d="M57.65,133.87a81.09,81.09,0,0,1-11-.88.34.34,0,0,1-.25-.39.31.31,0,0,1,.32-.31,69.15,69.15,0,0,0,21.9,0,.31.31,0,0,1,.32.31.34.34,0,0,1-.25.39A81,81,0,0,1,57.65,133.87Z"/><path class="cls-4" d="M57.65,127.37a81.13,81.13,0,0,1-11-.88.34.34,0,0,1-.25-.39.31.31,0,0,1,.32-.31,69.19,69.19,0,0,0,21.9,0,.31.31,0,0,1,.32.31.34.34,0,0,1-.25.39A81.12,81.12,0,0,1,57.65,127.37Z"/><path class="cls-4" d="M57.65,120.87a81.14,81.14,0,0,1-11-.88.34.34,0,0,1-.25-.39.31.31,0,0,1,.32-.31,69.19,69.19,0,0,0,21.9,0,.31.31,0,0,1,.32.31.34.34,0,0,1-.25.39A81.13,81.13,0,0,1,57.65,120.87Z"/><path class="cls-4" d="M57.64,159.86a81,81,0,0,1-11-.88.34.34,0,0,1-.25-.39.31.31,0,0,1,.32-.31,69.15,69.15,0,0,0,21.9,0,.31.31,0,0,1,.32.31.34.34,0,0,1-.25.39A81.15,81.15,0,0,1,57.64,159.86Z"/><path class="cls-4" d="M57.65,153.36a81.13,81.13,0,0,1-11-.88.34.34,0,0,1-.25-.39.31.31,0,0,1,.32-.31,69.19,69.19,0,0,0,21.9,0,.31.31,0,0,1,.32.31.34.34,0,0,1-.25.39A81.12,81.12,0,0,1,57.65,153.36Z"/><path class="cls-4" d="M57.65,146.87a81.14,81.14,0,0,1-11-.88.34.34,0,0,1-.25-.39.31.31,0,0,1,.32-.31,69.19,69.19,0,0,0,21.9,0,.31.31,0,0,1,.32.31.34.34,0,0,1-.25.39A81.13,81.13,0,0,1,57.65,146.87Z"/><path class="cls-4" d="M57.64,166.54a82.78,82.78,0,0,1-23.48-3.37.73.73,0,0,1-.42-.85.58.58,0,0,1,.69-.52,82.61,82.61,0,0,0,46.44,0,.58.58,0,0,1,.69.52.73.73,0,0,1-.42.85A82.89,82.89,0,0,1,57.64,166.54Z"/><path class="cls-4" d="M57.65,192.55a83.42,83.42,0,0,1-14.73-1.3.7.7,0,0,1-.48-.8.6.6,0,0,1,.65-.6,83.19,83.19,0,0,0,29.12,0,.6.6,0,0,1,.65.6.7.7,0,0,1-.48.8A83.38,83.38,0,0,1,57.65,192.55Z"/><path class="cls-4" d="M57.65,185.86a81.09,81.09,0,0,1-11-.88.34.34,0,0,1-.25-.39.31.31,0,0,1,.32-.31,69.17,69.17,0,0,0,21.9,0,.31.31,0,0,1,.32.31.34.34,0,0,1-.25.39A81.05,81.05,0,0,1,57.65,185.86Z"/><path class="cls-4" d="M57.65,179.36a81.14,81.14,0,0,1-11-.88.34.34,0,0,1-.25-.39.31.31,0,0,1,.32-.31,69.19,69.19,0,0,0,21.9,0,.31.31,0,0,1,.32.31.34.34,0,0,1-.25.39A81.13,81.13,0,0,1,57.65,179.36Z"/><path class="cls-4" d="M57.65,172.86a81.13,81.13,0,0,1-11-.88.34.34,0,0,1-.25-.39.31.31,0,0,1,.32-.31,69.19,69.19,0,0,0,21.9,0,.31.31,0,0,1,.32.31.34.34,0,0,1-.25.39A81.12,81.12,0,0,1,57.65,172.86Z"/><path class="cls-4" d="M57.65,211.85a81.14,81.14,0,0,1-11-.88.34.34,0,0,1-.25-.39.31.31,0,0,1,.32-.31,69.19,69.19,0,0,0,21.9,0,.31.31,0,0,1,.32.31.34.34,0,0,1-.25.39A81.13,81.13,0,0,1,57.65,211.85Z"/><path class="cls-4" d="M57.64,205.35a81.06,81.06,0,0,1-11-.88.34.34,0,0,1-.25-.39.31.31,0,0,1,.32-.31,69.15,69.15,0,0,0,21.9,0,.31.31,0,0,1,.32.31.34.34,0,0,1-.25.39A81.18,81.18,0,0,1,57.64,205.35Z"/><path class="cls-4" d="M57.65,198.85a81.14,81.14,0,0,1-11-.88.34.34,0,0,1-.25-.39.31.31,0,0,1,.32-.31,69.19,69.19,0,0,0,21.9,0,.31.31,0,0,1,.32.31.34.34,0,0,1-.25.39A81.13,81.13,0,0,1,57.65,198.85Z"/><path class="cls-4" d="M57.64,218.53a82.78,82.78,0,0,1-23.48-3.37.73.73,0,0,1-.42-.85.58.58,0,0,1,.69-.52,82.61,82.61,0,0,0,46.44,0,.58.58,0,0,1,.69.52.73.73,0,0,1-.42.85A82.89,82.89,0,0,1,57.64,218.53Z"/><path class="cls-4" d="M57.65,244.54a83.53,83.53,0,0,1-14.73-1.3.7.7,0,0,1-.48-.8c0-.39.33-.66.65-.6a83.33,83.33,0,0,0,29.12,0c.31-.06.6.21.65.6a.7.7,0,0,1-.48.8A83.51,83.51,0,0,1,57.65,244.54Z"/><path class="cls-4" d="M57.65,237.85a81.14,81.14,0,0,1-11-.88.34.34,0,0,1-.25-.39.31.31,0,0,1,.32-.31,69.19,69.19,0,0,0,21.9,0,.31.31,0,0,1,.32.31.34.34,0,0,1-.25.39A81.13,81.13,0,0,1,57.65,237.85Z"/><path class="cls-4" d="M57.65,231.35a81.13,81.13,0,0,1-11-.88.34.34,0,0,1-.25-.39.31.31,0,0,1,.32-.31,69.19,69.19,0,0,0,21.9,0,.31.31,0,0,1,.32.31.34.34,0,0,1-.25.39A81.12,81.12,0,0,1,57.65,231.35Z"/><path class="cls-4" d="M57.64,224.85a81.06,81.06,0,0,1-11-.88.34.34,0,0,1-.25-.39.31.31,0,0,1,.32-.31,69.15,69.15,0,0,0,21.9,0,.31.31,0,0,1,.32.31.34.34,0,0,1-.25.39A81.2,81.2,0,0,1,57.64,224.85Z"/><path class="cls-4" d="M57.65,263.84a81.13,81.13,0,0,1-11-.88.34.34,0,0,1-.25-.39.31.31,0,0,1,.32-.31,69.19,69.19,0,0,0,21.9,0,.31.31,0,0,1,.32.31.34.34,0,0,1-.25.39A81.12,81.12,0,0,1,57.65,263.84Z"/><path class="cls-4" d="M57.65,257.34a81.13,81.13,0,0,1-11-.88.34.34,0,0,1-.25-.39.31.31,0,0,1,.32-.31,69.19,69.19,0,0,0,21.9,0,.31.31,0,0,1,.32.31.34.34,0,0,1-.25.39A81.12,81.12,0,0,1,57.65,257.34Z"/><path class="cls-4" d="M57.65,250.84a81.14,81.14,0,0,1-11-.88.34.34,0,0,1-.25-.39.31.31,0,0,1,.32-.31,69.19,69.19,0,0,0,21.9,0,.31.31,0,0,1,.32.31.34.34,0,0,1-.25.39A81.13,81.13,0,0,1,57.65,250.84Z"/><path class="cls-4" d="M57.64,270.52a82.69,82.69,0,0,1-23.49-3.37.73.73,0,0,1-.42-.85.58.58,0,0,1,.69-.52,82.47,82.47,0,0,0,46.44,0,.58.58,0,0,1,.69.52.73.73,0,0,1-.42.85A82.76,82.76,0,0,1,57.64,270.52Z"/><path class="cls-4" d="M57.65,296.52a83.48,83.48,0,0,1-14.73-1.3.7.7,0,0,1-.48-.8.6.6,0,0,1,.65-.6,83.25,83.25,0,0,0,29.12,0c.31-.06.6.21.65.6a.7.7,0,0,1-.48.8A83.43,83.43,0,0,1,57.65,296.52Z"/><path class="cls-4" d="M57.65,289.83a81.09,81.09,0,0,1-11-.88.34.34,0,0,1-.25-.39.31.31,0,0,1,.32-.31,69.19,69.19,0,0,0,21.9,0,.31.31,0,0,1,.32.31.34.34,0,0,1-.25.39A81.06,81.06,0,0,1,57.65,289.83Z"/><path class="cls-4" d="M57.65,283.33a81.14,81.14,0,0,1-11-.88.34.34,0,0,1-.25-.39.31.31,0,0,1,.32-.31,69.19,69.19,0,0,0,21.9,0,.31.31,0,0,1,.32.31.34.34,0,0,1-.25.39A81.13,81.13,0,0,1,57.65,283.33Z"/><path class="cls-4" d="M57.64,276.83a81.07,81.07,0,0,1-11-.88.34.34,0,0,1-.25-.39.31.31,0,0,1,.32-.31,69.15,69.15,0,0,0,21.9,0,.31.31,0,0,1,.32.31.34.34,0,0,1-.25.39A81.19,81.19,0,0,1,57.64,276.83Z"/><path class="cls-4" d="M57.65,315.82a81.14,81.14,0,0,1-11-.88.34.34,0,0,1-.25-.39.31.31,0,0,1,.32-.31,69.19,69.19,0,0,0,21.9,0,.31.31,0,0,1,.32.31.34.34,0,0,1-.25.39A81.13,81.13,0,0,1,57.65,315.82Z"/><path class="cls-4" d="M57.65,309.33a81.14,81.14,0,0,1-11-.88.34.34,0,0,1-.25-.39.31.31,0,0,1,.32-.31,69.17,69.17,0,0,0,21.9,0,.31.31,0,0,1,.32.31.34.34,0,0,1-.25.39A81.1,81.1,0,0,1,57.65,309.33Z"/><path class="cls-4" d="M57.65,302.83a81.14,81.14,0,0,1-11-.88.34.34,0,0,1-.25-.39.31.31,0,0,1,.32-.31,69.18,69.18,0,0,0,21.9,0,.31.31,0,0,1,.32.31.34.34,0,0,1-.25.39A81.08,81.08,0,0,1,57.65,302.83Z"/><path class="cls-4" d="M57.64,322.51a82.77,82.77,0,0,1-23.49-3.37.73.73,0,0,1-.42-.85.58.58,0,0,1,.69-.52,82.59,82.59,0,0,0,46.44,0,.58.58,0,0,1,.69.52.73.73,0,0,1-.42.85A82.86,82.86,0,0,1,57.64,322.51Z"/><path class="cls-4" d="M57.65,348.51a83.42,83.42,0,0,1-14.73-1.3.7.7,0,0,1-.48-.8.6.6,0,0,1,.65-.6,83.19,83.19,0,0,0,29.12,0,.6.6,0,0,1,.65.6.7.7,0,0,1-.48.8A83.45,83.45,0,0,1,57.65,348.51Z"/><path class="cls-4" d="M57.65,341.82a81.13,81.13,0,0,1-11-.88.34.34,0,0,1-.25-.39.31.31,0,0,1,.32-.31,69.19,69.19,0,0,0,21.9,0,.31.31,0,0,1,.32.31.34.34,0,0,1-.25.39A81.12,81.12,0,0,1,57.65,341.82Z"/><path class="cls-4" d="M57.64,335.32a81.06,81.06,0,0,1-11-.88.34.34,0,0,1-.25-.39.31.31,0,0,1,.32-.31,69.15,69.15,0,0,0,21.9,0,.31.31,0,0,1,.32.31.34.34,0,0,1-.25.39A81.19,81.19,0,0,1,57.64,335.32Z"/><path class="cls-4" d="M57.65,328.82a81.13,81.13,0,0,1-11-.88.34.34,0,0,1-.25-.39.31.31,0,0,1,.32-.31,69.18,69.18,0,0,0,21.9,0,.31.31,0,0,1,.32.31.34.34,0,0,1-.25.39A81.09,81.09,0,0,1,57.65,328.82Z"/><path class="cls-4" d="M57.65,367.81a81.13,81.13,0,0,1-11-.88.34.34,0,0,1-.25-.39.31.31,0,0,1,.32-.31,69.19,69.19,0,0,0,21.9,0,.31.31,0,0,1,.32.31.34.34,0,0,1-.25.39A81.12,81.12,0,0,1,57.65,367.81Z"/><path class="cls-4" d="M57.65,361.31a81.13,81.13,0,0,1-11-.88.34.34,0,0,1-.25-.39.31.31,0,0,1,.32-.31,69.19,69.19,0,0,0,21.9,0,.31.31,0,0,1,.32.31.34.34,0,0,1-.25.39A81.12,81.12,0,0,1,57.65,361.31Z"/><path class="cls-4" d="M57.64,354.82a81.06,81.06,0,0,1-11-.88.34.34,0,0,1-.25-.39.31.31,0,0,1,.32-.31,69.15,69.15,0,0,0,21.9,0,.31.31,0,0,1,.32.31.34.34,0,0,1-.25.39A81.2,81.2,0,0,1,57.64,354.82Z"/><path class="cls-4" d="M57.64,374.49a82.78,82.78,0,0,1-23.48-3.37.73.73,0,0,1-.42-.85.58.58,0,0,1,.69-.52,82.61,82.61,0,0,0,46.44,0,.58.58,0,0,1,.69.52.73.73,0,0,1-.42.85A82.89,82.89,0,0,1,57.64,374.49Z"/><path class="cls-4" d="M57.65,400.5a83.75,83.75,0,0,1-14.73-1.29.7.7,0,0,1-.48-.8c0-.39.33-.66.65-.6a83.53,83.53,0,0,0,29.12,0c.31-.06.6.21.65.6a.7.7,0,0,1-.48.8A83.7,83.7,0,0,1,57.65,400.5Z"/><path class="cls-4" d="M57.65,393.81a81.14,81.14,0,0,1-11-.88.34.34,0,0,1-.25-.39.31.31,0,0,1,.32-.31,69.19,69.19,0,0,0,21.9,0,.31.31,0,0,1,.32.31.34.34,0,0,1-.25.39A81.13,81.13,0,0,1,57.65,393.81Z"/><path class="cls-4" d="M57.65,387.31a81.14,81.14,0,0,1-11-.88.34.34,0,0,1-.25-.39.31.31,0,0,1,.32-.31,69.19,69.19,0,0,0,21.9,0,.31.31,0,0,1,.32.31.34.34,0,0,1-.25.39A81.13,81.13,0,0,1,57.65,387.31Z"/><path class="cls-4" d="M57.64,380.81a81.13,81.13,0,0,1-11-.88.34.34,0,0,1-.25-.39.31.31,0,0,1,.32-.31,69.17,69.17,0,0,0,21.9,0,.31.31,0,0,1,.32.31.34.34,0,0,1-.25.39A81.14,81.14,0,0,1,57.64,380.81Z"/><path class="cls-4" d="M57.65,419.8a81.13,81.13,0,0,1-11-.88.34.34,0,0,1-.25-.39.31.31,0,0,1,.32-.31,69.19,69.19,0,0,0,21.9,0,.31.31,0,0,1,.32.31.34.34,0,0,1-.25.39A81.12,81.12,0,0,1,57.65,419.8Z"/><path class="cls-4" d="M57.65,413.3a81.13,81.13,0,0,1-11-.88.34.34,0,0,1-.25-.39.31.31,0,0,1,.32-.31,69.19,69.19,0,0,0,21.9,0,.31.31,0,0,1,.32.31.34.34,0,0,1-.25.39A81.12,81.12,0,0,1,57.65,413.3Z"/><path class="cls-4" d="M57.65,406.8a81.08,81.08,0,0,1-11-.88.34.34,0,0,1-.25-.39.31.31,0,0,1,.32-.31,69.17,69.17,0,0,0,21.9,0,.31.31,0,0,1,.32.31.34.34,0,0,1-.25.39A81,81,0,0,1,57.65,406.8Z"/><path class="cls-4" d="M57.64,426.48a82.78,82.78,0,0,1-23.48-3.37.73.73,0,0,1-.42-.85.58.58,0,0,1,.69-.52,82.61,82.61,0,0,0,46.44,0,.58.58,0,0,1,.69.52.73.73,0,0,1-.42.85A82.89,82.89,0,0,1,57.64,426.48Z"/><path class="cls-4" d="M57.65,452.49a83.53,83.53,0,0,1-14.73-1.3.7.7,0,0,1-.48-.8c0-.39.33-.66.65-.6a83.33,83.33,0,0,0,29.12,0,.6.6,0,0,1,.65.6.7.7,0,0,1-.48.8A83.51,83.51,0,0,1,57.65,452.49Z"/><path class="cls-4" d="M57.65,445.79a81.14,81.14,0,0,1-11-.88.34.34,0,0,1-.25-.39.31.31,0,0,1,.32-.31,69.19,69.19,0,0,0,21.9,0,.31.31,0,0,1,.32.31.34.34,0,0,1-.25.39A81.13,81.13,0,0,1,57.65,445.79Z"/><path class="cls-4" d="M57.65,439.3a81.14,81.14,0,0,1-11-.88.34.34,0,0,1-.25-.39.31.31,0,0,1,.32-.31,69.19,69.19,0,0,0,21.9,0c.16,0,.3.12.32.31a.34.34,0,0,1-.25.39A81.13,81.13,0,0,1,57.65,439.3Z"/><path class="cls-4" d="M57.65,432.8a81.13,81.13,0,0,1-11-.88.34.34,0,0,1-.25-.39.31.31,0,0,1,.32-.31,69.19,69.19,0,0,0,21.9,0,.31.31,0,0,1,.32.31.34.34,0,0,1-.25.39A81.12,81.12,0,0,1,57.65,432.8Z"/><path class="cls-4" d="M57.65,471.79a81.13,81.13,0,0,1-11-.88.34.34,0,0,1-.25-.39.31.31,0,0,1,.32-.31,69.19,69.19,0,0,0,21.9,0,.31.31,0,0,1,.32.31.34.34,0,0,1-.25.39A81.12,81.12,0,0,1,57.65,471.79Z"/><path class="cls-4" d="M57.64,465.29a81.07,81.07,0,0,1-11-.88.34.34,0,0,1-.25-.39.31.31,0,0,1,.32-.31,69.15,69.15,0,0,0,21.9,0,.31.31,0,0,1,.32.31.34.34,0,0,1-.25.39A81.19,81.19,0,0,1,57.64,465.29Z"/><path class="cls-4" d="M57.65,458.79a81.14,81.14,0,0,1-11-.88.34.34,0,0,1-.25-.39.31.31,0,0,1,.32-.31,69.19,69.19,0,0,0,21.9,0c.16,0,.3.12.32.31a.34.34,0,0,1-.25.39A81.11,81.11,0,0,1,57.65,458.79Z"/><path class="cls-4" d="M57.64,478.47a82.66,82.66,0,0,1-23.48-3.37.73.73,0,0,1-.42-.85.58.58,0,0,1,.69-.52,82.52,82.52,0,0,0,46.44,0,.58.58,0,0,1,.69.52.73.73,0,0,1-.42.85A82.86,82.86,0,0,1,57.64,478.47Z"/><path class="cls-4" d="M57.65,504.47a83.43,83.43,0,0,1-14.73-1.3.7.7,0,0,1-.48-.8c0-.39.34-.66.65-.6a83.19,83.19,0,0,0,29.12,0,.6.6,0,0,1,.65.6.7.7,0,0,1-.48.8A83.39,83.39,0,0,1,57.65,504.47Z"/><path class="cls-4" d="M57.65,497.78a81.09,81.09,0,0,1-11-.88.34.34,0,0,1-.25-.39.31.31,0,0,1,.32-.31,69.19,69.19,0,0,0,21.9,0,.31.31,0,0,1,.32.31.34.34,0,0,1-.25.39A81.06,81.06,0,0,1,57.65,497.78Z"/><path class="cls-4" d="M57.65,491.28a81.14,81.14,0,0,1-11-.88.34.34,0,0,1-.25-.39.31.31,0,0,1,.32-.31,69.19,69.19,0,0,0,21.9,0,.31.31,0,0,1,.32.31.34.34,0,0,1-.25.39A81.13,81.13,0,0,1,57.65,491.28Z"/><path class="cls-4" d="M57.64,484.78a81.07,81.07,0,0,1-11-.88.34.34,0,0,1-.25-.39.31.31,0,0,1,.32-.31,69.15,69.15,0,0,0,21.9,0,.31.31,0,0,1,.32.31.34.34,0,0,1-.25.39A81.19,81.19,0,0,1,57.64,484.78Z"/><path class="cls-4" d="M57.65,523.77a81.14,81.14,0,0,1-11-.88.34.34,0,0,1-.25-.39.31.31,0,0,1,.32-.31,69.19,69.19,0,0,0,21.9,0,.31.31,0,0,1,.32.31.34.34,0,0,1-.25.39A81.13,81.13,0,0,1,57.65,523.77Z"/><path class="cls-4" d="M57.65,517.28a81.14,81.14,0,0,1-11-.88.34.34,0,0,1-.25-.39.31.31,0,0,1,.32-.31,69.19,69.19,0,0,0,21.9,0,.31.31,0,0,1,.32.31.34.34,0,0,1-.25.39A81.13,81.13,0,0,1,57.65,517.28Z"/><path class="cls-4" d="M57.65,510.78a81.09,81.09,0,0,1-11-.88.34.34,0,0,1-.25-.39.31.31,0,0,1,.32-.31,69.17,69.17,0,0,0,21.9,0,.31.31,0,0,1,.32.31.34.34,0,0,1-.25.39A81.05,81.05,0,0,1,57.65,510.78Z"/><path class="cls-4" d="M57.64,530.46a82.7,82.7,0,0,1-23.48-3.37.73.73,0,0,1-.42-.85.58.58,0,0,1,.69-.52,82.56,82.56,0,0,0,46.44,0,.58.58,0,0,1,.69.52.73.73,0,0,1-.42.85A82.88,82.88,0,0,1,57.64,530.46Z"/><path class="cls-4" d="M57.65,556.47a83.21,83.21,0,0,1-14.73-1.3.7.7,0,0,1-.48-.8.6.6,0,0,1,.65-.6,82.94,82.94,0,0,0,29.12,0c.32-.06.6.21.65.6a.7.7,0,0,1-.48.8A83.21,83.21,0,0,1,57.65,556.47Z"/><path class="cls-4" d="M57.65,549.77a81,81,0,0,1-11-.88.34.34,0,0,1-.25-.39.31.31,0,0,1,.32-.31,69.11,69.11,0,0,0,21.9,0,.31.31,0,0,1,.32.31.34.34,0,0,1-.25.39A81,81,0,0,1,57.65,549.77Z"/><path class="cls-4" d="M57.64,543.27a81.05,81.05,0,0,1-11-.88.34.34,0,0,1-.25-.39.31.31,0,0,1,.32-.31,69.19,69.19,0,0,0,21.9,0,.31.31,0,0,1,.32.31.34.34,0,0,1-.25.39A81.19,81.19,0,0,1,57.64,543.27Z"/><path class="cls-4" d="M57.65,536.77a81.16,81.16,0,0,1-11-.88.34.34,0,0,1-.25-.39.31.31,0,0,1,.32-.31,69.15,69.15,0,0,0,21.9,0,.31.31,0,0,1,.32.31.34.34,0,0,1-.25.39A81.1,81.1,0,0,1,57.65,536.77Z"/><path class="cls-4" d="M57.64,575.76a81.06,81.06,0,0,1-11-.88.34.34,0,0,1-.25-.39.31.31,0,0,1,.32-.31,69.11,69.11,0,0,0,21.9,0,.31.31,0,0,1,.32.31.34.34,0,0,1-.25.39A81.15,81.15,0,0,1,57.64,575.76Z"/><path class="cls-4" d="M57.65,569.26a81.15,81.15,0,0,1-11-.88.34.34,0,0,1-.25-.39.31.31,0,0,1,.32-.31,69.19,69.19,0,0,0,21.9,0c.16,0,.3.12.32.31a.34.34,0,0,1-.25.39A81.12,81.12,0,0,1,57.65,569.26Z"/><path class="cls-4" d="M57.65,562.77a81.08,81.08,0,0,1-11-.88.34.34,0,0,1-.25-.39.31.31,0,0,1,.32-.31,69.19,69.19,0,0,0,21.9,0,.31.31,0,0,1,.32.31.34.34,0,0,1-.25.39A81.05,81.05,0,0,1,57.65,562.77Z"/><path class="cls-4" d="M57.64,582.44a82.75,82.75,0,0,1-23.48-3.37.73.73,0,0,1-.42-.85.58.58,0,0,1,.69-.52,82.64,82.64,0,0,0,46.44,0,.58.58,0,0,1,.69.52.73.73,0,0,1-.42.85A83,83,0,0,1,57.64,582.44Z"/></g><g id="numeros"><text class="cls-5" transform="translate(85.61 530)">10</text><text class="cls-5" transform="translate(83.66 478)">20</text><text class="cls-5" transform="translate(83.8 431)">30</text><text class="cls-5" transform="translate(82.98 374)">40</text><text class="cls-5" transform="translate(83.41 323)">50</text><text class="cls-5" transform="translate(83.18 271)">60</text><text class="cls-5" transform="translate(84.04 219)">70</text><text class="cls-5" transform="translate(83.24 167)">80</text><text class="cls-5" transform="translate(83.18 115)">90</text><text class="cls-5" transform="translate(78.15 63)">100</text></g></g></g></g></g></svg>