<svg xmlns="http://www.w3.org/2000/svg" viewBox="0 0 423.81 184.01"><defs><style>.cls-1{font-size:55.79px;font-family:Catamaran-Medium, Catamaran;}.cls-2{fill:#03935c;}.cls-3{fill:#535454;}</style></defs><title>proporcionDirecta</title><g id="Capa_2" data-name="Capa 2"><g id="Capa_1-2" data-name="Capa 1"><g id="proporcionDirecta"><text class="cls-1" transform="translate(0 48.65)">masa </text><path class="cls-2" d="M177.25,0,188,.1c.66.67.45,1.46.45,2.21q-.09,18.29-.21,36.57c0,.36,0,.72,0,1.08,0,2.12,0,2.12,2.48,2.14,2.72,0,5.43,0,8.15.06,2.2,0,2.42.42,1.26,2-5.57,7.4-11,14.86-16.55,22.27a3.79,3.79,0,0,1-1.07,1.17.72.72,0,0,1-.55,0,11.82,11.82,0,0,1-2.53-3c-4.72-6.67-9.65-13.24-14.35-19.92-.48-.68-1.42-1.38-.88-2.19S166,42,167,42c2.39,0,4.77,0,7.16,0,2.17,0,2.32-.11,2.33-1.89q.08-11.26.14-22.51,0-7.82.1-15.64C176.77,1.29,176.64.59,177.25,0Z"/><path class="cls-2" d="M177.25,0q-.13,20.25-.25,40.49c0,1.89,0,1.89-2.23,1.88-3,0-6.08,0-9.13-.06-1.15,0-1.67.07-.88,1.18,3.15,4.42,6.37,8.79,9.6,13.17,2.65,3.58,5.13,7.24,7.69,10.87.11,1-.73,1.67-1.34,2.41L170.43,55.78l-10.85-15-.43-.62,12.21.07c2.08,0,2.08,0,2.1-1.76q.11-18.28.22-36.57c0-1.89,0-1.89,2.28-1.88Z"/><path class="cls-2" d="M182.36,67.53c1.8-3,4.14-5.74,6.21-8.62,3.54-4.92,7.24-9.76,10.84-14.66.38-.51,1.16-.85,1.09-1.71-3.62,0-7.24-.1-10.86,0-1.45,0-1.93-.27-1.92-1.56.14-13.62.2-27.23.29-40.85,3.26-.1,3.26-.1,3.24,2.51-.07,12.05-.13,24.1-.25,36.16,0,1.21.32,1.62,1.86,1.59,4.11-.07,8.22,0,12.67,0l-4.46,6L184.79,68.33c-.23.3-.5.58-.75.87C182.79,69.58,182.19,69,182.36,67.53Z"/><path class="cls-2" d="M182.36,67.53c.47.61.1,1.82,1.68,1.67-.17.27-.32.55-.52.81-1.44,2-1.44,2-2.81-.05-.05-1,1-1.57,1.34-2.41Z"/><path class="cls-3" d="M242.53,42.47l-.64-8.75c.5-.58,1.16-.46,1.77-.51L273.41,31l.88-.06c1.73-.13,1.73-.13,1.58-2.16-.16-2.21-.34-4.42-.48-6.63-.11-1.79.19-2,1.52-1.15,6.38,4.05,12.8,8,19.18,12a3.09,3.09,0,0,1,1,.79.59.59,0,0,1,0,.45,9.64,9.64,0,0,1-2.24,2.25c-5.12,4.27-10.15,8.71-15.28,13-.52.43-1,1.24-1.73.86s-.55-1.47-.62-2.28c-.17-1.94-.29-3.88-.44-5.83-.14-1.77-.24-1.88-1.69-1.77l-18.32,1.34-12.72.93C243.59,42.78,243,42.93,242.53,42.47Z"/><path class="cls-3" d="M242.53,42.47l32.95-2.42c1.53-.11,1.54-.11,1.67,1.7.18,2.48.37,4.95.54,7.43.06.94.16,1.35,1,.64,3.39-2.85,6.74-5.75,10.09-8.66,2.74-2.38,5.56-4.64,8.34-7,.82-.16,1.41.49,2,.93l-10.87,9.28-11.52,9.8-.48.39-.73-9.93c-.12-1.69-.12-1.7-1.57-1.59l-29.76,2.19c-1.54.11-1.54.11-1.67-1.73C242.57,43.18,242.55,42.83,242.53,42.47Z"/><path class="cls-3" d="M297.1,33.95c-2.56-1.27-4.94-3-7.41-4.49-4.23-2.56-8.41-5.26-12.62-7.86-.44-.27-.77-.89-1.46-.77.22,2.95.39,5.9.67,8.83.11,1.18-.1,1.59-1.14,1.66-11.08.77-22.16,1.6-33.24,2.41-.29-2.64-.29-2.64,1.83-2.8,9.81-.72,19.61-1.46,29.42-2.14,1-.07,1.29-.36,1.17-1.61-.32-3.34-.52-6.68-.78-10.3l5.19,3.24,18.87,11.81c.26.16.5.37.76.56C298.74,33.46,298.29,34,297.1,33.95Z"/><path class="cls-3" d="M297.1,33.95c.47-.43,1.47-.2,1.25-1.48.23.12.47.23.7.37,1.69,1,1.68,1,.14,2.29-.81.11-1.34-.71-2-.93Q297.12,34.07,297.1,33.95Z"/><text class="cls-1" transform="translate(312.04 48.65)">D </text><path class="cls-2" d="M391.6,0,402.36.1c.66.67.45,1.46.45,2.21q-.09,18.29-.21,36.57c0,.36,0,.72,0,1.08,0,2.12,0,2.12,2.48,2.14,2.72,0,5.43,0,8.15.06,2.2,0,2.42.42,1.26,2-5.57,7.4-11,14.86-16.55,22.27a3.79,3.79,0,0,1-1.07,1.17.72.72,0,0,1-.55,0,11.82,11.82,0,0,1-2.53-3c-4.72-6.67-9.65-13.24-14.35-19.92-.48-.68-1.42-1.38-.88-2.19s1.85-.53,2.84-.54c2.39,0,4.77,0,7.16,0,2.17,0,2.32-.11,2.33-1.89q.08-11.26.14-22.51,0-7.82.1-15.64C391.12,1.29,391,.59,391.6,0Z"/><path class="cls-2" d="M391.6,0q-.13,20.25-.25,40.49c0,1.89,0,1.89-2.23,1.88-3,0-6.08,0-9.13-.06-1.15,0-1.67.07-.88,1.18,3.15,4.42,6.37,8.79,9.6,13.17,2.65,3.58,5.13,7.24,7.69,10.87.11,1-.73,1.67-1.34,2.41L384.78,55.78l-10.85-15-.43-.62,12.21.07c2.08,0,2.08,0,2.1-1.76q.11-18.28.22-36.57C388,0,388,0,390.3,0Z"/><path class="cls-2" d="M396.71,67.53c1.8-3,4.14-5.74,6.21-8.62,3.54-4.92,7.24-9.76,10.84-14.66.38-.51,1.16-.85,1.09-1.71-3.62,0-7.24-.1-10.86,0-1.45,0-1.93-.27-1.92-1.56.14-13.62.2-27.23.29-40.85,3.26-.1,3.26-.1,3.24,2.51-.07,12.05-.13,24.1-.25,36.16,0,1.21.32,1.62,1.86,1.59,4.11-.07,8.22,0,12.67,0l-4.46,6L399.14,68.33c-.23.3-.5.58-.75.87C397.14,69.58,396.54,69,396.71,67.53Z"/><path class="cls-2" d="M396.71,67.53c.47.61.1,1.82,1.68,1.67-.17.27-.32.55-.52.81-1.44,2-1.44,2-2.81-.05-.05-1,1-1.57,1.34-2.41Z"/><text class="cls-1" transform="translate(2.29 158.69)">masa </text><path class="cls-2" d="M181.83,183.9l10.76.06c.67-.7.47-1.56.48-2.36q.14-19.56.25-39.12c0-.38,0-.77,0-1.15,0-2.27,0-2.27,2.51-2.26,2.72,0,5.43.06,8.15,0,2.2,0,2.43-.42,1.29-2.09-5.48-8-10.81-16-16.27-24a4,4,0,0,0-1.06-1.27.68.68,0,0,0-.55,0,12.45,12.45,0,0,0-2.56,3.13c-4.81,7.08-9.82,14-14.6,21.13-.48.72-1.43,1.46-.91,2.33s1.84.59,2.83.61c2.39.05,4.77,0,7.16.06,2.17,0,2.31.14,2.31,2.05q-.06,12-.14,24.08-.05,8.36-.1,16.73A2.57,2.57,0,0,0,181.83,183.9Z"/><path class="cls-2" d="M181.83,183.9q.13-21.66.26-43.32c0-2,0-2-2.21-2-3,0-6.08,0-9.13,0-1.15,0-1.67-.1-.86-1.27,3.2-4.68,6.48-9.33,9.76-14,2.69-3.8,5.22-7.68,7.83-11.53.13-1.09-.71-1.8-1.31-2.6l-10.46,15-11,15.94-.44.66,12.21.07c2.08,0,2.08,0,2.07,1.91q-.12,19.56-.24,39.12c0,2,0,2,2.25,2Z"/><path class="cls-2" d="M187.79,111.76c1.76,3.24,4.07,6.2,6.1,9.3,3.48,5.31,7.12,10.54,10.65,15.82.37.55,1.15.92,1.07,1.85-3.62,0-7.24,0-10.86-.09-1.45,0-1.94.27-1.94,1.64,0,14.57-.14,29.13-.23,43.7,3.26.15,3.26.15,3.27-2.64.08-12.89.18-25.79.2-38.68,0-1.29.34-1.73,1.88-1.68,4.11.13,8.22.08,12.66.11l-4.38-6.5-16-23.64c-.22-.33-.49-.63-.74-.94C188.26,109.57,187.64,110.21,187.79,111.76Z"/><path class="cls-2" d="M187.79,111.76c.48-.65.12-1.94,1.7-1.76-.17-.29-.32-.6-.51-.88-1.42-2.11-1.42-2.11-2.81,0-.07,1.06,1,1.69,1.31,2.6Z"/><path class="cls-3" d="M244.82,152.51l-.64-8.75c.5-.58,1.16-.46,1.77-.51l29.76-2.19.88-.06c1.73-.13,1.73-.13,1.58-2.16-.16-2.21-.34-4.42-.48-6.63-.11-1.79.19-2,1.52-1.15,6.38,4.05,12.8,8,19.18,12a3.09,3.09,0,0,1,1,.79.59.59,0,0,1,0,.45,9.64,9.64,0,0,1-2.24,2.25c-5.12,4.27-10.15,8.71-15.28,13-.52.43-1,1.24-1.73.86s-.55-1.47-.62-2.28c-.17-1.94-.29-3.88-.44-5.83-.14-1.77-.24-1.88-1.69-1.77l-18.32,1.34-12.72.93C245.88,152.82,245.32,153,244.82,152.51Z"/><path class="cls-3" d="M244.82,152.51l32.95-2.42c1.53-.11,1.54-.11,1.67,1.7.18,2.48.37,4.95.54,7.43.06.94.16,1.35,1,.64,3.39-2.85,6.74-5.75,10.09-8.66,2.74-2.38,5.56-4.64,8.34-7,.82-.16,1.41.49,2,.93l-10.87,9.28-11.52,9.8-.48.39-.73-9.93c-.12-1.69-.12-1.7-1.57-1.59l-29.76,2.19c-1.54.11-1.54.11-1.67-1.73C244.86,153.22,244.84,152.87,244.82,152.51Z"/><path class="cls-3" d="M299.39,144c-2.56-1.27-4.94-3-7.41-4.49-4.23-2.56-8.41-5.26-12.62-7.86-.44-.27-.77-.89-1.46-.77.22,2.95.39,5.9.67,8.83.11,1.18-.1,1.59-1.14,1.66-11.08.77-22.16,1.6-33.24,2.41-.29-2.64-.29-2.64,1.83-2.8,9.81-.72,19.61-1.46,29.42-2.14,1-.07,1.29-.36,1.17-1.61-.32-3.34-.52-6.68-.78-10.3l5.19,3.24L299.88,142c.26.16.5.37.76.56C301,143.5,300.58,144,299.39,144Z"/><path class="cls-3" d="M299.39,144c.47-.43,1.47-.2,1.25-1.48.23.12.47.23.7.37,1.69,1,1.68,1,.14,2.29-.81.11-1.34-.71-2-.93Q299.41,144.11,299.39,144Z"/><text class="cls-1" transform="translate(314.34 158.69)">D </text><path class="cls-2" d="M395,183.9l10.76.06c.67-.7.47-1.56.48-2.36q.14-19.56.25-39.12c0-.38,0-.77,0-1.15,0-2.27,0-2.27,2.51-2.26,2.72,0,5.43.06,8.15,0,2.2,0,2.43-.42,1.29-2.09-5.48-8-10.81-16-16.27-24a4,4,0,0,0-1.06-1.27.68.68,0,0,0-.55,0,12.45,12.45,0,0,0-2.56,3.13c-4.81,7.08-9.82,14-14.6,21.13-.48.72-1.43,1.46-.91,2.33s1.84.59,2.83.61c2.39.05,4.77,0,7.16.06,2.17,0,2.31.14,2.31,2.05q-.06,12-.14,24.08-.05,8.36-.1,16.73A2.57,2.57,0,0,0,395,183.9Z"/><path class="cls-2" d="M395,183.9q.13-21.66.26-43.32c0-2,0-2-2.21-2-3,0-6.08,0-9.13,0-1.15,0-1.67-.1-.86-1.27,3.2-4.68,6.48-9.33,9.76-14,2.69-3.8,5.22-7.68,7.83-11.53.13-1.09-.71-1.8-1.31-2.6l-10.46,15-11,15.94-.44.66,12.21.07c2.08,0,2.08,0,2.07,1.91q-.12,19.56-.24,39.12c0,2,0,2,2.25,2Z"/><path class="cls-2" d="M401,111.76c1.76,3.24,4.07,6.2,6.1,9.3,3.48,5.31,7.12,10.54,10.65,15.82.37.55,1.15.92,1.07,1.85-3.62,0-7.24,0-10.86-.09-1.45,0-1.94.27-1.94,1.64,0,14.57-.14,29.13-.23,43.7,3.26.15,3.26.15,3.27-2.64.08-12.89.18-25.79.2-38.68,0-1.29.34-1.73,1.88-1.68,4.11.13,8.22.08,12.66.11l-4.38-6.5-16-23.64c-.22-.33-.49-.63-.74-.94C401.46,109.57,400.85,110.21,401,111.76Z"/><path class="cls-2" d="M401,111.76c.48-.65.12-1.94,1.7-1.76-.17-.29-.32-.6-.51-.88-1.42-2.11-1.42-2.11-2.81,0-.07,1.06,1,1.69,1.31,2.6Z"/></g></g></g></svg>